<svg xmlns="http://www.w3.org/2000/svg" width="265.929" height="318.295" viewBox="0 0 265.929 318.295">
  <g id="_30576701_7718875" data-name="30576701_7718875" transform="translate(-47.943 -32.443)">
    <g id="Background_Complete">
      <g id="Grupo_3472" data-name="Grupo 3472">
        <path id="Trazado_998" data-name="Trazado 998" d="M285.885,280.236a30.721,30.721,0,0,0-14.278-9.2,31.351,31.351,0,0,0-15.6-.621,21.062,21.062,0,0,0-9.589,5.16,27.964,27.964,0,0,0-7.2,12.258,2.981,2.981,0,0,0,2.043,3.752l10.076,2.836a3,3,0,0,0,3.537-1.668c1.336-3.034,4.709-7.827,12.286-5.834a9.512,9.512,0,0,1,7.219,8.349,10.669,10.669,0,0,1-3.436,9.021c-3.926,3.666-9.048,2.954-11.753,2.2a5.868,5.868,0,0,0-7.216,4.036l-3.052,10.843a2.986,2.986,0,0,0,2.064,3.68l9.817,2.763a2.986,2.986,0,0,0,3.68-2.064l.641-2.278a.132.132,0,0,1,.121-.1,29.577,29.577,0,0,0,12.255-3.594c6.344-3.533,10.647-9.187,12.792-16.8C293.359,292.079,289.588,284.595,285.885,280.236Z" fill="#e0e0e0"/>
        <path id="Trazado_999" data-name="Trazado 999" d="M255.614,329.3l-.859-.241a7.736,7.736,0,1,0-4.191,14.892l.859.241a7.736,7.736,0,1,0,4.191-14.892Z" fill="#e0e0e0"/>
      </g>
      <g id="Grupo_3473" data-name="Grupo 3473">
        <path id="Trazado_1000" data-name="Trazado 1000" d="M307.523,220.183A15.757,15.757,0,0,0,299,218.392a16.082,16.082,0,0,0-7.585,2.561,10.8,10.8,0,0,0-3.647,4.228,14.344,14.344,0,0,0-1.2,7.189,1.529,1.529,0,0,0,1.666,1.422l5.345-.488a1.535,1.535,0,0,0,1.388-1.446,4.958,4.958,0,0,1,4.815-5.045,4.877,4.877,0,0,1,4.987,2.675,5.471,5.471,0,0,1,.008,4.949,6.251,6.251,0,0,1-5.224,3.209,3.009,3.009,0,0,0-2.716,3.255l.525,5.752a1.532,1.532,0,0,0,1.662,1.385l5.208-.475a1.531,1.531,0,0,0,1.384-1.662l-.11-1.209a.067.067,0,0,1,.04-.068,15.168,15.168,0,0,0,5.21-3.967,13.659,13.659,0,0,0,3.047-10.39A12.1,12.1,0,0,0,307.523,220.183Z" fill="#f5f5f5"/>
        <path id="Trazado_1001" data-name="Trazado 1001" d="M302.017,249.224l-.456.042a3.966,3.966,0,1,0,.721,7.9l.456-.042a3.966,3.966,0,0,0-.721-7.9Z" fill="#f5f5f5"/>
      </g>
      <g id="Grupo_3474" data-name="Grupo 3474">
        <path id="Trazado_1002" data-name="Trazado 1002" d="M93.473,97.39a13.142,13.142,0,0,0-6.431-3.381,13.41,13.41,0,0,0-6.669.325,9.011,9.011,0,0,0-3.89,2.561,11.955,11.955,0,0,0-2.6,5.495,1.276,1.276,0,0,0,1.013,1.522l4.4.827a1.281,1.281,0,0,0,1.444-.844,4.136,4.136,0,0,1,5.014-2.95,4.071,4.071,0,0,1,3.392,3.284,4.563,4.563,0,0,1-1.123,3.973,5.212,5.212,0,0,1-4.924,1.383,2.51,2.51,0,0,0-2.922,1.993l-.89,4.735A1.277,1.277,0,0,0,80.3,117.8l4.287.806a1.277,1.277,0,0,0,1.489-1.018l.187-.994a.056.056,0,0,1,.048-.045,12.659,12.659,0,0,0,5.085-1.994,11.39,11.39,0,0,0,4.814-7.642A10.091,10.091,0,0,0,93.473,97.39Z" fill="#f5f5f5"/>
        <path id="Trazado_1003" data-name="Trazado 1003" d="M82.432,119.436l-.375-.07a3.309,3.309,0,1,0-1.223,6.5l.375.07a3.309,3.309,0,1,0,1.223-6.5Z" fill="#f5f5f5"/>
      </g>
      <g id="Grupo_3475" data-name="Grupo 3475">
        <path id="Trazado_1004" data-name="Trazado 1004" d="M299.56,98.9a15.756,15.756,0,0,0-8.517-1.824,16.072,16.072,0,0,0-7.594,2.531,10.8,10.8,0,0,0-3.663,4.213,14.336,14.336,0,0,0-1.231,7.185,1.528,1.528,0,0,0,1.66,1.429l5.347-.467a1.536,1.536,0,0,0,1.394-1.441,4.958,4.958,0,0,1,4.834-5.026,4.876,4.876,0,0,1,4.976,2.7,5.472,5.472,0,0,1-.012,4.949,6.249,6.249,0,0,1-5.237,3.188,3.009,3.009,0,0,0-2.729,3.245l.5,5.753a1.531,1.531,0,0,0,1.657,1.391l5.209-.455a1.531,1.531,0,0,0,1.391-1.657l-.106-1.209a.068.068,0,0,1,.041-.068,15.167,15.167,0,0,0,5.226-3.946A13.658,13.658,0,0,0,305.8,109.01,12.1,12.1,0,0,0,299.56,98.9Z" fill="#ebebeb"/>
        <path id="Trazado_1005" data-name="Trazado 1005" d="M293.939,127.921l-.456.04a3.966,3.966,0,0,0,.69,7.9l.456-.04a3.966,3.966,0,0,0-.69-7.9Z" fill="#ebebeb"/>
      </g>
      <g id="Grupo_3476" data-name="Grupo 3476">
        <path id="Trazado_1006" data-name="Trazado 1006" d="M138.8,272.774a19.072,19.072,0,0,0-10.432-1.536,19.459,19.459,0,0,0-8.977,3.654,13.068,13.068,0,0,0-4.095,5.378,17.357,17.357,0,0,0-.923,8.777,1.85,1.85,0,0,0,2.118,1.6l6.423-.984a1.861,1.861,0,0,0,1.572-1.85c-.023-2.058.653-5.633,5.447-6.451a5.905,5.905,0,0,1,6.224,2.866,6.623,6.623,0,0,1,.373,5.98c-1.277,3.08-4.356,3.993-6.077,4.263a3.644,3.644,0,0,0-3.043,4.134l1.059,6.912a1.855,1.855,0,0,0,2.111,1.551l6.258-.958a1.855,1.855,0,0,0,1.551-2.111l-.223-1.452a.082.082,0,0,1,.044-.085,18.362,18.362,0,0,0,6-5.178,16.538,16.538,0,0,0,2.916-12.781C146.067,277.549,142.015,274.287,138.8,272.774Z" fill="#ebebeb"/>
        <path id="Trazado_1007" data-name="Trazado 1007" d="M134.289,308.275l-.548.084a4.8,4.8,0,1,0,1.454,9.493l.548-.084a4.8,4.8,0,1,0-1.454-9.493Z" fill="#ebebeb"/>
      </g>
      <g id="Grupo_3477" data-name="Grupo 3477">
        <path id="Trazado_1008" data-name="Trazado 1008" d="M82.478,141.978a26.8,26.8,0,0,0-14.662-2.132A27.353,27.353,0,0,0,55.213,145a18.368,18.368,0,0,0-5.74,7.566A24.394,24.394,0,0,0,48.2,164.9a2.6,2.6,0,0,0,2.979,2.238l9.022-1.4a2.613,2.613,0,0,0,2.2-2.6c-.038-2.891.9-7.915,7.636-9.078a8.3,8.3,0,0,1,8.752,4.01,9.307,9.307,0,0,1,.54,8.4c-1.788,4.33-6.11,5.621-8.528,6a5.118,5.118,0,0,0-4.265,5.816l1.5,9.709a2.605,2.605,0,0,0,2.97,2.173l8.79-1.362a2.605,2.605,0,0,0,2.173-2.97l-.316-2.04a.116.116,0,0,1,.061-.12,25.8,25.8,0,0,0,8.422-7.289c3.755-5.1,5.122-11.145,4.065-17.964C92.7,148.667,86.994,144.095,82.478,141.978Z" fill="#ebebeb"/>
        <path id="Trazado_1009" data-name="Trazado 1009" d="M76.225,191.867l-.769.119a6.747,6.747,0,1,0,2.066,13.334l.769-.119a6.747,6.747,0,0,0-2.066-13.334Z" fill="#ebebeb"/>
      </g>
    </g>
    <g id="Speech_Bubble">
      <g id="Grupo_3488" data-name="Grupo 3488">
        <g id="Grupo_3486" data-name="Grupo 3486">
          <g id="Grupo_3485" data-name="Grupo 3485">
            <g id="Grupo_3484" data-name="Grupo 3484">
              <g id="Grupo_3483" data-name="Grupo 3483">
                <g id="Grupo_3482" data-name="Grupo 3482">
                  <g id="Grupo_3481" data-name="Grupo 3481">
                    <g id="Grupo_3480" data-name="Grupo 3480">
                      <g id="Grupo_3479" data-name="Grupo 3479">
                        <path id="Trazado_1010" data-name="Trazado 1010" d="M209.55,80.486l6.8,1.133a26.3,26.3,0,1,0-4.652-8.191l-.008-.012Z" fill="#fff"/>
                        <g id="Grupo_3478" data-name="Grupo 3478">
                          <path id="Trazado_1011" data-name="Trazado 1011" d="M209.55,80.486s.035-.148.121-.45l.389-1.351c.357-1.218.878-2.994,1.552-5.291l.047-.159.1.137.008.012-.141.072a26.143,26.143,0,0,1-1.239-12.62,27.015,27.015,0,0,1,2.529-7.993,26.363,26.363,0,0,1,5.768-7.583,26.927,26.927,0,0,1,9.045-5.382,25.819,25.819,0,0,1,11.291-1.414,27,27,0,0,1,11.462,3.89,25.877,25.877,0,0,1,8.813,9.116,27.149,27.149,0,0,1,2.587,5.992c.15.518.247,1.05.374,1.572a14.718,14.718,0,0,1,.318,1.574q.1.8.192,1.587l.091.79.013.793a26.936,26.936,0,0,1-2.389,11.99,25.759,25.759,0,0,1-6.982,9.119,26.969,26.969,0,0,1-9.307,5.093,26.469,26.469,0,0,1-9.522,1.111l-2.215-.258c-.723-.1-1.418-.293-2.108-.431a23.828,23.828,0,0,1-3.869-1.238A26.135,26.135,0,0,1,216.29,81.67l.047.026-5.063-.89-1.3-.234c-.289-.054-.428-.087-.428-.087s.162.018.462.063l1.32.2,5.031.792.028,0,.019.023a26.194,26.194,0,0,0,10.16,7.359,23.658,23.658,0,0,0,3.837,1.207c.684.133,1.373.319,2.088.417l2.191.246a26.239,26.239,0,0,0,9.406-1.132,26.673,26.673,0,0,0,9.175-5.053,25.432,25.432,0,0,0,6.869-9,26.579,26.579,0,0,0,2.341-11.818l-.013-.782-.091-.779q-.1-.779-.19-1.563a14.471,14.471,0,0,0-.315-1.55c-.125-.514-.22-1.037-.368-1.548a26.762,26.762,0,0,0-2.55-5.9,25.522,25.522,0,0,0-8.679-8.984,26.665,26.665,0,0,0-11.292-3.846,25.5,25.5,0,0,0-11.136,1.375A26.638,26.638,0,0,0,218.9,45.5a26.131,26.131,0,0,0-5.725,7.473,26.834,26.834,0,0,0-2.541,7.9A26.2,26.2,0,0,0,211.771,73.4l.191.559-.332-.487-.008-.012.142-.022c-.706,2.265-1.253,4.016-1.628,5.217-.186.589-.329,1.04-.431,1.36C209.609,80.323,209.55,80.486,209.55,80.486Z" fill="#263238"/>
                        </g>
                      </g>
                    </g>
                  </g>
                </g>
              </g>
            </g>
          </g>
        </g>
        <g id="Grupo_3487" data-name="Grupo 3487">
          <path id="Trazado_1012" data-name="Trazado 1012" d="M242.028,52.647a11.249,11.249,0,0,0-5.959-1.787,11.48,11.48,0,0,0-5.551,1.366,7.712,7.712,0,0,0-2.849,2.79,10.231,10.231,0,0,0-1.287,5.044,1.091,1.091,0,0,0,1.1,1.112l3.833-.026a1.1,1.1,0,0,0,1.075-.946,3.541,3.541,0,0,1,3.73-3.3,3.485,3.485,0,0,1,3.389,2.2,3.908,3.908,0,0,1-.292,3.523,4.464,4.464,0,0,1-3.911,1.969,2.149,2.149,0,0,0-2.129,2.153l.028,4.125a1.094,1.094,0,0,0,1.1,1.085l3.735-.026a1.094,1.094,0,0,0,1.085-1.1l-.006-.867a.048.048,0,0,1,.032-.046,10.827,10.827,0,0,0,3.946-2.51A9.755,9.755,0,0,0,245.89,60.2,8.646,8.646,0,0,0,242.028,52.647Z" fill="#ff725e"/>
          <path id="Trazado_1013" data-name="Trazado 1013" d="M236.363,72.984l-.327,0a2.833,2.833,0,1,0,.038,5.666l.327,0a2.833,2.833,0,0,0-.038-5.666Z" fill="#ff725e"/>
        </g>
      </g>
    </g>
    <g id="Character">
      <g id="Grupo_3718" data-name="Grupo 3718">
        <path id="Trazado_1014" data-name="Trazado 1014" d="M246.772,114.5c-17.816-11.983-39-16.252-52.881-16.252-13,0-32.135,2.051-49.453,11.819A68.6,68.6,0,0,0,118.932,134.7c-7.308,12.177-11.263,27.244-11.756,44.783a9.707,9.707,0,0,0,9.714,9.96h34.091A9.756,9.756,0,0,0,160.6,181.1c1.512-10.69,7.857-28.691,33.369-29.131,19.435-.334,27.454,13.736,30,19.8,4.143,9.87,3.093,21.575-2.811,31.31-9.072,14.957-25.76,17.247-34.9,17.28a19.114,19.114,0,0,0-19.063,19.021v36.684a9.726,9.726,0,0,0,9.715,9.715h33.215a9.726,9.726,0,0,0,9.715-9.715v-7.708a.43.43,0,0,1,.294-.407,96.318,96.318,0,0,0,35.245-22.08c16.77-16.673,25.273-38.193,25.273-63.962C280.653,145.028,262.228,124.9,246.772,114.5Z" fill="#ff725e"/>
        <path id="Trazado_1015" data-name="Trazado 1015" d="M192.681,302.892h2.681a23.923,23.923,0,0,1,0,47.846h-2.681a23.923,23.923,0,1,1,0-47.846Z" fill="#263238"/>
        <g id="Grupo_3717" data-name="Grupo 3717">
          <path id="Trazado_1016" data-name="Trazado 1016" d="M176.782,292.873h33.2a9.574,9.574,0,0,0,9.712-9.408v-15a.418.418,0,0,1,.294-.395,80.3,80.3,0,0,0,15.627-7.6c-21.213-.149-59.88-.365-68.546-.049v23.041A9.575,9.575,0,0,0,176.782,292.873Z" fill="#263238"/>
          <g id="Grupo_3636" data-name="Grupo 3636">
            <g id="Grupo_3614" data-name="Grupo 3614">
              <g id="Grupo_3496" data-name="Grupo 3496">
                <g id="Grupo_3495" data-name="Grupo 3495">
                  <g id="Grupo_3494" data-name="Grupo 3494">
                    <g id="Grupo_3493" data-name="Grupo 3493">
                      <g id="Grupo_3492" data-name="Grupo 3492">
                        <g id="Grupo_3491" data-name="Grupo 3491">
                          <g id="Grupo_3490" data-name="Grupo 3490">
                            <g id="Grupo_3489" data-name="Grupo 3489">
                              <path id="Trazado_1017" data-name="Trazado 1017" d="M204.127,126.688,182.821,64.815c-4.5-15.492-17.265-25.786-32.627-20.859l-1.393.538a28.838,28.838,0,0,0-17.262,35.1c3.974,13.406,8.538,28.167,11.319,35.109,5.757,14.37,20.829,10.336,20.829,10.336.033-.011,3.355,9.578,4.807,13.883l7.8,7.711,3.223-3.521Z" fill="#ffbf9d"/>
                            </g>
                          </g>
                        </g>
                      </g>
                    </g>
                  </g>
                </g>
              </g>
              <g id="Grupo_3505" data-name="Grupo 3505">
                <g id="Grupo_3504" data-name="Grupo 3504">
                  <g id="Grupo_3503" data-name="Grupo 3503">
                    <g id="Grupo_3502" data-name="Grupo 3502">
                      <g id="Grupo_3501" data-name="Grupo 3501">
                        <g id="Grupo_3500" data-name="Grupo 3500">
                          <g id="Grupo_3499" data-name="Grupo 3499">
                            <g id="Grupo_3498" data-name="Grupo 3498">
                              <g id="Grupo_3497" data-name="Grupo 3497">
                                <path id="Trazado_1018" data-name="Trazado 1018" d="M163.686,125.034a37.39,37.39,0,0,0,16.653-12.822s-.329,12.6-15.24,16.869Z" fill="#ff9a6c"/>
                              </g>
                            </g>
                          </g>
                        </g>
                      </g>
                    </g>
                  </g>
                </g>
              </g>
              <g id="Grupo_3520" data-name="Grupo 3520">
                <g id="Grupo_3519" data-name="Grupo 3519">
                  <g id="Grupo_3518" data-name="Grupo 3518">
                    <g id="Grupo_3517" data-name="Grupo 3517">
                      <g id="Grupo_3516" data-name="Grupo 3516">
                        <g id="Grupo_3515" data-name="Grupo 3515">
                          <g id="Grupo_3514" data-name="Grupo 3514">
                            <g id="Grupo_3513" data-name="Grupo 3513">
                              <g id="Grupo_3512" data-name="Grupo 3512">
                                <g id="Grupo_3511" data-name="Grupo 3511">
                                  <g id="Grupo_3510" data-name="Grupo 3510">
                                    <g id="Grupo_3509" data-name="Grupo 3509">
                                      <g id="Grupo_3508" data-name="Grupo 3508">
                                        <g id="Grupo_3507" data-name="Grupo 3507">
                                          <g id="Grupo_3506" data-name="Grupo 3506">
                                            <path id="Trazado_1019" data-name="Trazado 1019" d="M141.963,89.36a2.21,2.21,0,0,0,2.792,1.312,2.115,2.115,0,0,0,1.407-2.68,2.211,2.211,0,0,0-2.79-1.314A2.116,2.116,0,0,0,141.963,89.36Z" fill="#263238"/>
                                          </g>
                                        </g>
                                      </g>
                                    </g>
                                  </g>
                                </g>
                              </g>
                            </g>
                          </g>
                        </g>
                      </g>
                    </g>
                  </g>
                </g>
              </g>
              <g id="Grupo_3536" data-name="Grupo 3536">
                <g id="Grupo_3535" data-name="Grupo 3535">
                  <g id="Grupo_3534" data-name="Grupo 3534">
                    <g id="Grupo_3533" data-name="Grupo 3533">
                      <g id="Grupo_3532" data-name="Grupo 3532">
                        <g id="Grupo_3531" data-name="Grupo 3531">
                          <g id="Grupo_3530" data-name="Grupo 3530">
                            <g id="Grupo_3529" data-name="Grupo 3529">
                              <g id="Grupo_3528" data-name="Grupo 3528">
                                <g id="Grupo_3527" data-name="Grupo 3527">
                                  <g id="Grupo_3526" data-name="Grupo 3526">
                                    <g id="Grupo_3525" data-name="Grupo 3525">
                                      <g id="Grupo_3524" data-name="Grupo 3524">
                                        <g id="Grupo_3523" data-name="Grupo 3523">
                                          <g id="Grupo_3522" data-name="Grupo 3522">
                                            <g id="Grupo_3521" data-name="Grupo 3521">
                                              <path id="Trazado_1020" data-name="Trazado 1020" d="M136.835,84.079c.359.17,1.474-1.59,3.7-2.441,2.206-.883,4.276-.37,4.411-.735.072-.166-.376-.551-1.284-.793a6.068,6.068,0,0,0-3.66.256,5.823,5.823,0,0,0-2.812,2.279C136.706,83.432,136.662,84.008,136.835,84.079Z" fill="#263238"/>
                                            </g>
                                          </g>
                                        </g>
                                      </g>
                                    </g>
                                  </g>
                                </g>
                              </g>
                            </g>
                          </g>
                        </g>
                      </g>
                    </g>
                  </g>
                </g>
              </g>
              <g id="Grupo_3552" data-name="Grupo 3552">
                <g id="Grupo_3551" data-name="Grupo 3551">
                  <g id="Grupo_3550" data-name="Grupo 3550">
                    <g id="Grupo_3549" data-name="Grupo 3549">
                      <g id="Grupo_3548" data-name="Grupo 3548">
                        <g id="Grupo_3547" data-name="Grupo 3547">
                          <g id="Grupo_3546" data-name="Grupo 3546">
                            <g id="Grupo_3545" data-name="Grupo 3545">
                              <g id="Grupo_3544" data-name="Grupo 3544">
                                <g id="Grupo_3543" data-name="Grupo 3543">
                                  <g id="Grupo_3542" data-name="Grupo 3542">
                                    <g id="Grupo_3541" data-name="Grupo 3541">
                                      <g id="Grupo_3540" data-name="Grupo 3540">
                                        <g id="Grupo_3539" data-name="Grupo 3539">
                                          <g id="Grupo_3538" data-name="Grupo 3538">
                                            <g id="Grupo_3537" data-name="Grupo 3537">
                                              <path id="Trazado_1021" data-name="Trazado 1021" d="M160.515,82c.36.17,1.478-1.59,3.7-2.441,2.206-.882,4.276-.37,4.412-.735.071-.166-.373-.551-1.285-.792a6.067,6.067,0,0,0-3.66.255,5.837,5.837,0,0,0-2.813,2.279C160.389,81.356,160.344,81.931,160.515,82Z" fill="#263238"/>
                                            </g>
                                          </g>
                                        </g>
                                      </g>
                                    </g>
                                  </g>
                                </g>
                              </g>
                            </g>
                          </g>
                        </g>
                      </g>
                    </g>
                  </g>
                </g>
              </g>
              <g id="Grupo_3567" data-name="Grupo 3567">
                <g id="Grupo_3566" data-name="Grupo 3566">
                  <g id="Grupo_3565" data-name="Grupo 3565">
                    <g id="Grupo_3564" data-name="Grupo 3564">
                      <g id="Grupo_3563" data-name="Grupo 3563">
                        <g id="Grupo_3562" data-name="Grupo 3562">
                          <g id="Grupo_3561" data-name="Grupo 3561">
                            <g id="Grupo_3560" data-name="Grupo 3560">
                              <g id="Grupo_3559" data-name="Grupo 3559">
                                <g id="Grupo_3558" data-name="Grupo 3558">
                                  <g id="Grupo_3557" data-name="Grupo 3557">
                                    <g id="Grupo_3556" data-name="Grupo 3556">
                                      <g id="Grupo_3555" data-name="Grupo 3555">
                                        <g id="Grupo_3554" data-name="Grupo 3554">
                                          <g id="Grupo_3553" data-name="Grupo 3553">
                                            <path id="Trazado_1022" data-name="Trazado 1022" d="M157.412,96.316a15.776,15.776,0,0,0-3.855.742c-.589.161-1.169.256-1.414-.094a3.1,3.1,0,0,1-.271-1.826q0-2.365.008-4.962c-.046-7.042-.313-12.743-.6-12.74s-.476,5.716-.43,12.758c.026,1.732.048,3.382.072,4.96a3.52,3.52,0,0,0,.565,2.338,1.526,1.526,0,0,0,1.252.469,4.121,4.121,0,0,0,1.014-.238C156.053,96.975,157.452,96.446,157.412,96.316Z" fill="#263238"/>
                                          </g>
                                        </g>
                                      </g>
                                    </g>
                                  </g>
                                </g>
                              </g>
                            </g>
                          </g>
                        </g>
                      </g>
                    </g>
                  </g>
                </g>
              </g>
              <g id="Grupo_3578" data-name="Grupo 3578">
                <g id="Grupo_3577" data-name="Grupo 3577">
                  <g id="Grupo_3576" data-name="Grupo 3576">
                    <g id="Grupo_3575" data-name="Grupo 3575">
                      <g id="Grupo_3574" data-name="Grupo 3574">
                        <g id="Grupo_3573" data-name="Grupo 3573">
                          <g id="Grupo_3572" data-name="Grupo 3572">
                            <g id="Grupo_3571" data-name="Grupo 3571">
                              <g id="Grupo_3570" data-name="Grupo 3570">
                                <g id="Grupo_3569" data-name="Grupo 3569">
                                  <g id="Grupo_3568" data-name="Grupo 3568">
                                    <path id="Trazado_1023" data-name="Trazado 1023" d="M155.384,69.527c.521.45,2.443-.978,5.043-2.046,2.578-1.122,4.941-1.508,4.982-2.194.008-.323-.631-.662-1.731-.764a9.459,9.459,0,0,0-7.637,3.231C155.348,68.614,155.146,69.308,155.384,69.527Z" fill="#263238"/>
                                  </g>
                                </g>
                              </g>
                            </g>
                          </g>
                        </g>
                      </g>
                    </g>
                  </g>
                </g>
              </g>
              <g id="Grupo_3589" data-name="Grupo 3589">
                <g id="Grupo_3588" data-name="Grupo 3588">
                  <g id="Grupo_3587" data-name="Grupo 3587">
                    <g id="Grupo_3586" data-name="Grupo 3586">
                      <g id="Grupo_3585" data-name="Grupo 3585">
                        <g id="Grupo_3584" data-name="Grupo 3584">
                          <g id="Grupo_3583" data-name="Grupo 3583">
                            <g id="Grupo_3582" data-name="Grupo 3582">
                              <g id="Grupo_3581" data-name="Grupo 3581">
                                <g id="Grupo_3580" data-name="Grupo 3580">
                                  <g id="Grupo_3579" data-name="Grupo 3579">
                                    <path id="Trazado_1024" data-name="Trazado 1024" d="M134.212,77.595c.651.335,2.273-.862,4.45-1.693,2.15-.9,4.161-1.149,4.391-1.837.091-.326-.387-.726-1.373-.908a7.5,7.5,0,0,0-3.937.51A7.381,7.381,0,0,0,134.557,76C133.977,76.807,133.916,77.423,134.212,77.595Z" fill="#263238"/>
                                  </g>
                                </g>
                              </g>
                            </g>
                          </g>
                        </g>
                      </g>
                    </g>
                  </g>
                </g>
              </g>
              <g id="Grupo_3596" data-name="Grupo 3596">
                <g id="Grupo_3595" data-name="Grupo 3595">
                  <g id="Grupo_3594" data-name="Grupo 3594">
                    <g id="Grupo_3593" data-name="Grupo 3593">
                      <g id="Grupo_3592" data-name="Grupo 3592">
                        <g id="Grupo_3591" data-name="Grupo 3591">
                          <g id="Grupo_3590" data-name="Grupo 3590">
                            <path id="Trazado_1025" data-name="Trazado 1025" d="M185.535,75.263c.2-.2,8.787-6.767,12.286,3.226s-7.256,11.444-7.374,11.164S185.535,75.263,185.535,75.263Z" fill="#ffbf9d"/>
                          </g>
                        </g>
                      </g>
                    </g>
                  </g>
                </g>
              </g>
              <g id="Grupo_3604" data-name="Grupo 3604">
                <g id="Grupo_3603" data-name="Grupo 3603">
                  <g id="Grupo_3602" data-name="Grupo 3602">
                    <g id="Grupo_3601" data-name="Grupo 3601">
                      <g id="Grupo_3600" data-name="Grupo 3600">
                        <g id="Grupo_3599" data-name="Grupo 3599">
                          <g id="Grupo_3598" data-name="Grupo 3598">
                            <g id="Grupo_3597" data-name="Grupo 3597">
                              <path id="Trazado_1026" data-name="Trazado 1026" d="M192.175,84.8c.032-.048.217.06.558.093a1.842,1.842,0,0,0,1.311-.429c.92-.757,1.222-2.744.64-4.563a6.1,6.1,0,0,0-1.36-2.322,2.13,2.13,0,0,0-1.778-.878.939.939,0,0,0-.86.837c-.036.326.1.5.05.539-.019.035-.273-.093-.337-.533a1.173,1.173,0,0,1,.174-.764,1.391,1.391,0,0,1,.873-.592,2.593,2.593,0,0,1,2.361.912,6.267,6.267,0,0,1,1.579,2.575c.641,2.036.27,4.281-1.028,5.2a1.974,1.974,0,0,1-1.685.293C192.277,85.032,192.146,84.828,192.175,84.8Z" fill="#ff9a6c"/>
                            </g>
                          </g>
                        </g>
                      </g>
                    </g>
                  </g>
                </g>
              </g>
              <g id="Grupo_3613" data-name="Grupo 3613">
                <g id="Grupo_3612" data-name="Grupo 3612">
                  <g id="Grupo_3611" data-name="Grupo 3611">
                    <g id="Grupo_3610" data-name="Grupo 3610">
                      <g id="Grupo_3609" data-name="Grupo 3609">
                        <g id="Grupo_3608" data-name="Grupo 3608">
                          <g id="Grupo_3607" data-name="Grupo 3607">
                            <g id="Grupo_3606" data-name="Grupo 3606">
                              <g id="Grupo_3605" data-name="Grupo 3605">
                                <path id="Trazado_1027" data-name="Trazado 1027" d="M164.954,95.309c-.352.1.415,2.4-1.011,4.7s-3.965,2.864-3.875,3.193c.017.155.7.265,1.745-.054a6.056,6.056,0,0,0,3.278-2.535,5.281,5.281,0,0,0,.7-3.891C165.556,95.728,165.107,95.243,164.954,95.309Z" fill="#263238"/>
                              </g>
                            </g>
                          </g>
                        </g>
                      </g>
                    </g>
                  </g>
                </g>
              </g>
            </g>
            <g id="Grupo_3635" data-name="Grupo 3635">
              <g id="Grupo_3619" data-name="Grupo 3619">
                <g id="Grupo_3618" data-name="Grupo 3618">
                  <g id="Grupo_3617" data-name="Grupo 3617">
                    <g id="Grupo_3616" data-name="Grupo 3616">
                      <g id="Grupo_3615" data-name="Grupo 3615">
                        <path id="Trazado_1028" data-name="Trazado 1028" d="M106.587,72.571a2.509,2.509,0,0,1,.625-1.773,7.716,7.716,0,0,1,3.521-1.923,22.293,22.293,0,0,0,8.329-5.515,11.057,11.057,0,0,1-3.351-.939,6.646,6.646,0,0,1-4-5.6,1.474,1.474,0,0,1,.447-1.231c.579-.428,1.371.009,2,.355A5.721,5.721,0,0,0,120,56.31a9.4,9.4,0,0,0,3.4-2.461c.027-.06.048-.124.076-.183.33-.719.657-1.409.982-2.08,0,0,0,0,0-.006v0c2.444-5.05,4.765-8.77,7.62-11.281,4.184-3.681,12.058-7.349,17.611-7.806s11.572,2.058,14.114,7.017c2-3.415,6.289-4.9,10.253-4.73l.074-.069c4.353.016,7.989,3.328,10.52,6.869.138.194.269.393.4.589a16.251,16.251,0,0,0,6.995,3.249c.45.086.973.2,1.17.616a1.324,1.324,0,0,1-.3,1.263,8.172,8.172,0,0,1-2.671,2.4,18.409,18.409,0,0,0,2.239,2.266c.7.586,1.527,1.288,1.417,2.191a1.73,1.73,0,0,1-1.446,1.345,5.076,5.076,0,0,1-2.087-.18l2.385,2.642a9.69,9.69,0,0,1-4.305,1.2c.478,3.977,2.267,11.025,2.2,13.859-2.634.98-3.38.919-4.561,1.834-1.526,1.183.211,4.012-2.345,3.935-1.3-.039-4.59-3.761-5.385-4.794a60.458,60.458,0,0,1-10.973-23.267,19.44,19.44,0,0,0-7.1-2.091l.228.1c-4.583.02-9.694.253-12.892,3.535-2.481,2.546-3.149,6.287-4.519,9.567-2.6,6.217-6.53,10.432-12.782,12.942.981,4.61,3.352,11.88,4.586,16.07l-6.414-7,.009.034c-.454-.383-.859-.786-1.258-1.194l-.13-.121-.006-.019a27.026,27.026,0,0,0-1.981-1.932l-.027.049a2.725,2.725,0,0,1-4.966-2.114,6.148,6.148,0,0,1,.8-1.687,4.314,4.314,0,0,1-3.52,2.369,3.382,3.382,0,0,1-3.368-2.36,2.875,2.875,0,0,1,.85-2.746,9.711,9.711,0,0,1-5.616.687C108.044,74.6,106.694,73.989,106.587,72.571Z" fill="#263238"/>
                      </g>
                    </g>
                  </g>
                </g>
              </g>
              <g id="Grupo_3624" data-name="Grupo 3624">
                <g id="Grupo_3623" data-name="Grupo 3623">
                  <g id="Grupo_3622" data-name="Grupo 3622">
                    <g id="Grupo_3621" data-name="Grupo 3621">
                      <g id="Grupo_3620" data-name="Grupo 3620">
                        <path id="Trazado_1029" data-name="Trazado 1029" d="M159.795,42.811a13.387,13.387,0,0,1,1.938.824,11.116,11.116,0,0,1,3.953,4.062,19.494,19.494,0,0,1,1.682,3.583c.48,1.344.88,2.823,1.312,4.379a40.763,40.763,0,0,0,1.579,4.831A17.919,17.919,0,0,0,171.48,62.9a5.586,5.586,0,0,0,1.9,2.089,2.338,2.338,0,0,0,2.307-.033,3.476,3.476,0,0,0,1.486-1.7,8.025,8.025,0,0,0,.1-4.212l-.294.145a13.01,13.01,0,0,0,2.857,2.436,4.613,4.613,0,0,0,3.389.546,2.976,2.976,0,0,0,1.414-.795,2.577,2.577,0,0,0,.669-1.369,2.658,2.658,0,0,0-.146-1.4,1.923,1.923,0,0,0-.87-.971l-.106.193a9.992,9.992,0,0,0,3.97,1.25,8.931,8.931,0,0,0,1.106.035,1.762,1.762,0,0,0,.379-.036,1.837,1.837,0,0,0-.379-.025c-.249-.012-.618-.029-1.093-.092a10.29,10.29,0,0,1-3.872-1.322l-.106.192a1.987,1.987,0,0,1,.862,2.138,2.312,2.312,0,0,1-.611,1.219,2.7,2.7,0,0,1-1.287.7,4.326,4.326,0,0,1-3.158-.542,12.829,12.829,0,0,1-2.768-2.393l-.375-.395.081.54a7.758,7.758,0,0,1-.09,4.023,3.129,3.129,0,0,1-1.33,1.523,1.972,1.972,0,0,1-1.96.03,5.3,5.3,0,0,1-1.761-1.959,17.717,17.717,0,0,1-1.2-2.361A41.48,41.48,0,0,1,169,55.57c-.441-1.552-.853-3.034-1.351-4.391a19.427,19.427,0,0,0-1.747-3.615,10.96,10.96,0,0,0-4.1-4.051A6.272,6.272,0,0,0,159.795,42.811Z" fill="#455a64"/>
                      </g>
                    </g>
                  </g>
                </g>
              </g>
              <g id="Grupo_3629" data-name="Grupo 3629">
                <g id="Grupo_3628" data-name="Grupo 3628">
                  <g id="Grupo_3627" data-name="Grupo 3627">
                    <g id="Grupo_3626" data-name="Grupo 3626">
                      <g id="Grupo_3625" data-name="Grupo 3625">
                        <path id="Trazado_1030" data-name="Trazado 1030" d="M119.592,72.963a.563.563,0,0,0,.152.058l.459.137a5.119,5.119,0,0,0,.759.179,8.271,8.271,0,0,0,1.054.155,13.742,13.742,0,0,0,6.653-1.079,17.558,17.558,0,0,0,7.673-6.365,30.4,30.4,0,0,0,4.5-11.4c.44-2.144.666-4.264,1.031-6.276a20.551,20.551,0,0,1,1.7-5.6,10.581,10.581,0,0,1,3.311-4.04,7.566,7.566,0,0,1,2.131-1.038,8.326,8.326,0,0,1,2.171-.326,8.975,8.975,0,0,1,6.1,2.319,10.741,10.741,0,0,1,1.526,1.926.527.527,0,0,0-.066-.149l-.227-.423a7.781,7.781,0,0,0-1.136-1.455,8.832,8.832,0,0,0-2.418-1.642,9.063,9.063,0,0,0-3.779-.832,8.56,8.56,0,0,0-2.248.314,7.807,7.807,0,0,0-2.224,1.06,10.835,10.835,0,0,0-3.438,4.137,20.681,20.681,0,0,0-1.748,5.686c-.372,2.028-.6,4.143-1.037,6.268a30.406,30.406,0,0,1-4.42,11.286,17.454,17.454,0,0,1-7.5,6.319,13.947,13.947,0,0,1-6.54,1.174A21.977,21.977,0,0,1,119.592,72.963Z" fill="#455a64"/>
                      </g>
                    </g>
                  </g>
                </g>
              </g>
              <g id="Grupo_3634" data-name="Grupo 3634">
                <g id="Grupo_3633" data-name="Grupo 3633">
                  <g id="Grupo_3632" data-name="Grupo 3632">
                    <g id="Grupo_3631" data-name="Grupo 3631">
                      <g id="Grupo_3630" data-name="Grupo 3630">
                        <path id="Trazado_1031" data-name="Trazado 1031" d="M116,67.009a2.413,2.413,0,0,0,.653.18,12.029,12.029,0,0,0,1.83.241,16.018,16.018,0,0,0,2.742-.059,16.86,16.86,0,0,0,6.377-2.02,16.1,16.1,0,0,0,2.276-1.53,12.006,12.006,0,0,0,1.357-1.251,2.43,2.43,0,0,0,.43-.523c-.049-.048-.71.652-1.944,1.571a18.181,18.181,0,0,1-2.279,1.44,18.089,18.089,0,0,1-6.257,1.982,18.275,18.275,0,0,1-2.691.134C116.954,67.134,116.011,66.942,116,67.009Z" fill="#455a64"/>
                      </g>
                    </g>
                  </g>
                </g>
              </g>
            </g>
          </g>
          <path id="Trazado_1032" data-name="Trazado 1032" d="M143.365,171.6c-.131.038,1.58,8.6,3.255,17.488h.53C145.474,180.206,143.5,171.565,143.365,171.6Z" fill="#263238"/>
          <path id="Trazado_1033" data-name="Trazado 1033" d="M150.594,189.52a10.021,10.021,0,0,0,9.977-8.241c1.522-10.675,7.613-28.744,33.293-29.183,19.563-.334,27.8,13.514,30.1,19.672a36.3,36.3,0,0,1-2.736,31.365c-9.131,14.935-25.93,17.221-35.13,17.255a19.163,19.163,0,0,0-19.188,18.993v39.887l52.995-1v-9.956a.429.429,0,0,1,.3-.407,92.5,92.5,0,0,0,28.206-15.793l-3.45-45.937s10.085-19.383,9.586-23.745c-4.566-39.842-18.117-62.386-23.624-64.489-6.183-2.36-30.057-1.211-30.057-1.211s-10.311,19.1-24.776,21.221c-8.049,1.178-10.988-8.873-10.988-8.873l-18.7,10.961c-13.306,6.712-15.888,32.825-16.133,49.477Z" fill="#455a64"/>
          <g id="Grupo_3637" data-name="Grupo 3637" opacity="0.3">
            <path id="Trazado_1034" data-name="Trazado 1034" d="M212.008,212.989c10.682,2.719,21.213,6.159,31.9,8.879a4.072,4.072,0,0,1,2.172,1.053c.786.911.61,2.293.257,3.444a20.966,20.966,0,0,1-6.432,9.38c-2.324,2.042-5.108,3.764-8.193,4.005-3.435.268-6.737-1.325-9.641-3.178A50.811,50.811,0,0,1,204.32,217.05s2.5-1.031,4.421-2.055A34.35,34.35,0,0,0,212.008,212.989Z"/>
          </g>
          <path id="Trazado_1035" data-name="Trazado 1035" d="M223.749,172.045c4.271,9.856,3.188,21.544-2.9,31.264a33.71,33.71,0,0,1-12.37,11.83,100.771,100.771,0,0,0,15.251,13.936c5.456,3.872,18.031,2.771,22.8-5.705,5.882-10.458,6.374-37.175,6.374-37.175l1.117-16.106-32.9-5.039-.264.9A35.5,35.5,0,0,1,223.749,172.045Z" fill="#ffbf9d"/>
          <g id="Grupo_3649" data-name="Grupo 3649">
            <g id="Grupo_3648" data-name="Grupo 3648">
              <g id="Grupo_3647" data-name="Grupo 3647">
                <g id="Grupo_3646" data-name="Grupo 3646">
                  <g id="Grupo_3645" data-name="Grupo 3645">
                    <g id="Grupo_3644" data-name="Grupo 3644">
                      <g id="Grupo_3643" data-name="Grupo 3643">
                        <g id="Grupo_3642" data-name="Grupo 3642">
                          <g id="Grupo_3641" data-name="Grupo 3641">
                            <g id="Grupo_3640" data-name="Grupo 3640">
                              <g id="Grupo_3639" data-name="Grupo 3639">
                                <g id="Grupo_3638" data-name="Grupo 3638">
                                  <path id="Trazado_1036" data-name="Trazado 1036" d="M166.468,165.276l-1.873,2.953c-1.424.982-2.779.443-3.659-1.382l-20.25-30.823,4.933-3.137,22.366,29.558A2.941,2.941,0,0,1,166.468,165.276Z" fill="#455a64"/>
                                </g>
                              </g>
                            </g>
                          </g>
                        </g>
                      </g>
                    </g>
                  </g>
                </g>
              </g>
            </g>
          </g>
          <g id="Grupo_3686" data-name="Grupo 3686">
            <g id="Grupo_3669" data-name="Grupo 3669">
              <g id="Grupo_3668" data-name="Grupo 3668">
                <g id="Grupo_3658" data-name="Grupo 3658">
                  <g id="Grupo_3657" data-name="Grupo 3657">
                    <g id="Grupo_3656" data-name="Grupo 3656">
                      <g id="Grupo_3655" data-name="Grupo 3655">
                        <g id="Grupo_3654" data-name="Grupo 3654">
                          <g id="Grupo_3653" data-name="Grupo 3653">
                            <g id="Grupo_3652" data-name="Grupo 3652">
                              <g id="Grupo_3651" data-name="Grupo 3651">
                                <g id="Grupo_3650" data-name="Grupo 3650">
                                  <path id="Trazado_1037" data-name="Trazado 1037" d="M119.682,135.495a22.54,22.54,0,1,1,31.552-29.1h0a22.537,22.537,0,0,1-31.552,29.1Zm21.461-37.907a21.017,21.017,0,1,0,8.72,9.445A21.022,21.022,0,0,0,141.144,97.587Z" fill="#263238"/>
                                </g>
                              </g>
                            </g>
                          </g>
                        </g>
                      </g>
                    </g>
                  </g>
                </g>
                <g id="Grupo_3667" data-name="Grupo 3667">
                  <g id="Grupo_3666" data-name="Grupo 3666">
                    <g id="Grupo_3665" data-name="Grupo 3665">
                      <g id="Grupo_3664" data-name="Grupo 3664">
                        <g id="Grupo_3663" data-name="Grupo 3663">
                          <g id="Grupo_3662" data-name="Grupo 3662">
                            <g id="Grupo_3661" data-name="Grupo 3661">
                              <g id="Grupo_3660" data-name="Grupo 3660">
                                <g id="Grupo_3659" data-name="Grupo 3659">
                                  <path id="Trazado_1038" data-name="Trazado 1038" d="M120.643,134.549a22.54,22.54,0,1,1,31.552-29.1h0a22.536,22.536,0,0,1-31.552,29.1ZM142.1,96.641a21.017,21.017,0,1,0,8.72,9.445A21.022,21.022,0,0,0,142.1,96.641Z" fill="#455a64"/>
                                </g>
                              </g>
                            </g>
                          </g>
                        </g>
                      </g>
                    </g>
                  </g>
                </g>
              </g>
            </g>
            <g id="Grupo_3672" data-name="Grupo 3672">
              <g id="Grupo_3671" data-name="Grupo 3671">
                <g id="Grupo_3670" data-name="Grupo 3670">
                  <path id="Trazado_1039" data-name="Trazado 1039" d="M150.495,115.255a2.189,2.189,0,0,1-.023-.37c-.018-.242.011-.6-.043-1.057a16.113,16.113,0,0,0-.747-3.8,20.172,20.172,0,0,0-.987-2.492,21.835,21.835,0,0,0-1.542-2.661,20.778,20.778,0,0,0-2.117-2.656,19.94,19.94,0,0,0-2.706-2.44,18.552,18.552,0,0,0-3.121-1.874,20.046,20.046,0,0,0-3.195-1.143,19.109,19.109,0,0,0-5.707-.579,18.3,18.3,0,0,0-3.835.6c-.449.1-.782.235-1.016.3a2.077,2.077,0,0,1-.359.094,2.127,2.127,0,0,1,.343-.14c.23-.076.56-.225,1.007-.34a17.151,17.151,0,0,1,3.851-.675,18.838,18.838,0,0,1,5.772.533,19.954,19.954,0,0,1,3.24,1.145,18.59,18.59,0,0,1,3.166,1.895,19.841,19.841,0,0,1,2.734,2.473,20.573,20.573,0,0,1,2.129,2.693,21.417,21.417,0,0,1,1.538,2.7,19.776,19.776,0,0,1,.97,2.527,15.22,15.22,0,0,1,.678,3.85,9.652,9.652,0,0,1,0,1.064A2.2,2.2,0,0,1,150.495,115.255Z" fill="#fff"/>
                </g>
              </g>
            </g>
            <g id="Grupo_3675" data-name="Grupo 3675">
              <g id="Grupo_3674" data-name="Grupo 3674">
                <g id="Grupo_3673" data-name="Grupo 3673">
                  <path id="Trazado_1040" data-name="Trazado 1040" d="M126.971,133.605c.016-.056,1.045.327,2.781.564l.682.082c.237.026.487.027.743.043.513.041,1.063.014,1.64,0a17.507,17.507,0,0,0,7.206-1.942c.5-.281.994-.533,1.417-.827.214-.143.429-.268.621-.41l.549-.413c1.382-1.077,2.08-1.926,2.121-1.886a4.627,4.627,0,0,1-.491.588,6.675,6.675,0,0,1-.629.644,11.024,11.024,0,0,1-.895.788l-.545.431c-.191.148-.406.279-.62.427a16.066,16.066,0,0,1-1.424.857,16.944,16.944,0,0,1-7.3,1.967,16.187,16.187,0,0,1-1.661-.026c-.26-.02-.511-.026-.751-.057l-.687-.1a10.767,10.767,0,0,1-1.17-.232,6.644,6.644,0,0,1-.867-.241A4.578,4.578,0,0,1,126.971,133.605Z" fill="#fff"/>
                </g>
              </g>
            </g>
            <g id="Grupo_3678" data-name="Grupo 3678">
              <g id="Grupo_3677" data-name="Grupo 3677">
                <g id="Grupo_3676" data-name="Grupo 3676">
                  <path id="Trazado_1041" data-name="Trazado 1041" d="M142.482,119.167c-.048.047-2.986-2.9-6.562-6.569s-6.438-6.691-6.39-6.738,2.986,2.894,6.563,6.57S142.529,119.121,142.482,119.167Z" fill="#fff"/>
                </g>
              </g>
            </g>
            <g id="Grupo_3681" data-name="Grupo 3681">
              <g id="Grupo_3680" data-name="Grupo 3680">
                <g id="Grupo_3679" data-name="Grupo 3679">
                  <path id="Trazado_1042" data-name="Trazado 1042" d="M139.012,125.072a1.4,1.4,0,0,1-.214-.209l-.578-.63-2.1-2.338c-1.772-1.976-4.227-4.7-6.971-7.676s-5.261-5.646-7.087-7.573l-2.16-2.284-.581-.627a1.425,1.425,0,0,1-.191-.23,1.358,1.358,0,0,1,.226.2l.613.6c.53.521,1.286,1.283,2.215,2.231,1.858,1.9,4.394,4.548,7.141,7.527s5.182,5.721,6.922,7.727c.87,1,1.568,1.819,2.044,2.39l.544.659A1.386,1.386,0,0,1,139.012,125.072Z" fill="#fff"/>
                </g>
              </g>
            </g>
            <g id="Grupo_3683" data-name="Grupo 3683" opacity="0.3">
              <g id="Grupo_3682" data-name="Grupo 3682">
                <path id="Trazado_1043" data-name="Trazado 1043" d="M120.632,97.463l27.679,30.067a21.846,21.846,0,0,1-4.293,4.5l-28.263-30.769A16.129,16.129,0,0,1,120.632,97.463Z" fill="#fff"/>
              </g>
            </g>
            <g id="Grupo_3685" data-name="Grupo 3685" opacity="0.3">
              <g id="Grupo_3684" data-name="Grupo 3684">
                <path id="Trazado_1044" data-name="Trazado 1044" d="M113.375,104.724,140.6,134.018s.253.138-1.623.612l-26.369-28.419A3.749,3.749,0,0,1,113.375,104.724Z" fill="#fff"/>
              </g>
            </g>
          </g>
          <g id="Grupo_3702" data-name="Grupo 3702">
            <g id="Grupo_3701" data-name="Grupo 3701">
              <g id="Grupo_3700" data-name="Grupo 3700">
                <g id="Grupo_3699" data-name="Grupo 3699">
                  <path id="Trazado_1045" data-name="Trazado 1045" d="M185.036,153.057c-5.814-4.669-20.064-16.089-20.715-16.393-.819-.383-13.361-4.839-15.763-3.408s-8.843,9.516-8.843,9.516.612,5.028,6.229,1.43l5.027-3.22-.008.005,5.972,1.4s-7.284,3.042-8.825,4.642-3.977,7.724-2.458,9.134a5.9,5.9,0,0,0,3.285,1.531s-3.007,4.271,2.327,6.849c0,0,.779,3.59,3.41,5s7.533.909,7.533.909a2.309,2.309,0,0,0,.585-3.574,7.586,7.586,0,0,0-4.8-2.538l3.861-2.252A17.759,17.759,0,0,1,166.832,165a43.188,43.188,0,0,1,7.045-7.064C177.828,155.07,185.036,153.057,185.036,153.057Z" fill="#ffbf9d"/>
                  <g id="Grupo_3690" data-name="Grupo 3690">
                    <g id="Grupo_3689" data-name="Grupo 3689">
                      <g id="Grupo_3688" data-name="Grupo 3688">
                        <g id="Grupo_3687" data-name="Grupo 3687">
                          <path id="Trazado_1046" data-name="Trazado 1046" d="M160.318,154.954a1.971,1.971,0,0,0-.573.034,8.787,8.787,0,0,0-1.526.354,10.072,10.072,0,0,0-6.727,7.315,8.762,8.762,0,0,0-.225,1.55,1.976,1.976,0,0,0,.014.574c.054,0,.066-.816.406-2.074a10.472,10.472,0,0,1,6.6-7.175C159.51,155.087,160.327,155.007,160.318,154.954Z" fill="#ff9a6c"/>
                        </g>
                      </g>
                    </g>
                  </g>
                  <g id="Grupo_3694" data-name="Grupo 3694">
                    <g id="Grupo_3693" data-name="Grupo 3693">
                      <g id="Grupo_3692" data-name="Grupo 3692">
                        <g id="Grupo_3691" data-name="Grupo 3691">
                          <path id="Trazado_1047" data-name="Trazado 1047" d="M160.575,148.455a2.544,2.544,0,0,0-.613.043,5.72,5.72,0,0,0-.711.116,9.4,9.4,0,0,0-.93.221,14.058,14.058,0,0,0-2.329.877,14.742,14.742,0,0,0-4.806,3.7,13.993,13.993,0,0,0-1.443,2.027,9.474,9.474,0,0,0-.451.842,5.809,5.809,0,0,0-.294.657,2.527,2.527,0,0,0-.2.581c.052.023.371-.792,1.115-1.976a15.576,15.576,0,0,1,1.468-1.96,17.132,17.132,0,0,1,2.187-2.047,20.1,20.1,0,0,1,2.642-1.791,12.2,12.2,0,0,1,2.165-.719C159.715,148.612,160.584,148.511,160.575,148.455Z" fill="#ff9a6c"/>
                        </g>
                      </g>
                    </g>
                  </g>
                  <g id="Grupo_3698" data-name="Grupo 3698">
                    <g id="Grupo_3697" data-name="Grupo 3697">
                      <g id="Grupo_3696" data-name="Grupo 3696">
                        <g id="Grupo_3695" data-name="Grupo 3695">
                          <path id="Trazado_1048" data-name="Trazado 1048" d="M161.666,140.991a1.654,1.654,0,0,0-.811-.183,4.456,4.456,0,0,0-1.979.354,3.754,3.754,0,0,0-1.629,1.179,1.647,1.647,0,0,0-.432.71,5.683,5.683,0,0,1,4.851-2.061Z" fill="#ff9a6c"/>
                        </g>
                      </g>
                    </g>
                  </g>
                </g>
              </g>
            </g>
          </g>
          <path id="Trazado_1049" data-name="Trazado 1049" d="M228.6,117.344S247,119.11,252.847,135.1c4.637,12.691,7.156,50.71,5.994,51.485l-32.492-1.039c-.428-9.271-2.924-16.419-6.423-21.044Z" fill="#455a64"/>
          <g id="Grupo_3703" data-name="Grupo 3703">
            <path id="Trazado_1050" data-name="Trazado 1050" d="M226.847,185.544a2.6,2.6,0,0,1,.638.355c.4.248.957.632,1.631,1.13a43.738,43.738,0,0,1,4.945,4.29,50.566,50.566,0,0,1,4.3,4.93c.506.667.9,1.216,1.163,1.606a2.633,2.633,0,0,1,.373.627,23.728,23.728,0,0,1-1.754-2.06c-1.067-1.281-2.571-3.026-4.366-4.826a59.42,59.42,0,0,0-4.836-4.348C227.648,186.2,226.812,185.595,226.847,185.544Z" fill="#ff9a6c"/>
          </g>
          <g id="Grupo_3704" data-name="Grupo 3704">
            <path id="Trazado_1051" data-name="Trazado 1051" d="M222.977,146.436c.107.018-.489,4.077-1.332,9.064s-1.612,9.018-1.72,9,.489-4.076,1.332-9.065S222.87,146.418,222.977,146.436Z" fill="#263238"/>
          </g>
          <g id="Grupo_3705" data-name="Grupo 3705">
            <path id="Trazado_1052" data-name="Trazado 1052" d="M182.085,260.45a2.812,2.812,0,0,1,.54-.081l1.554-.157,5.715-.541c4.825-.463,11.483-1.159,18.818-2.085s13.961-1.914,18.748-2.667l5.669-.9,1.543-.235a2.96,2.96,0,0,1,.543-.056,2.819,2.819,0,0,1-.529.134l-1.531.308c-1.33.261-3.261.612-5.651,1.023-4.779.823-11.4,1.852-18.744,2.783s-14.01,1.579-18.843,1.972c-2.417.2-4.373.338-5.728.417l-1.56.083A2.845,2.845,0,0,1,182.085,260.45Z" fill="#263238"/>
          </g>
          <g id="Grupo_3706" data-name="Grupo 3706">
            <path id="Trazado_1053" data-name="Trazado 1053" d="M179.212,255.593a8.839,8.839,0,0,1,1.339-.121l3.656-.195,12.058-.618,12.056-.7,3.655-.205a8.749,8.749,0,0,1,1.344-.026,8.758,8.758,0,0,1-1.333.178c-.86.09-2.106.2-3.647.33-3.082.255-7.342.556-12.055.814s-8.978.421-12.069.5c-1.545.041-2.8.065-3.661.069A8.746,8.746,0,0,1,179.212,255.593Z" fill="#263238"/>
          </g>
          <g id="Grupo_3716" data-name="Grupo 3716">
            <g id="Grupo_3711" data-name="Grupo 3711">
              <g id="Grupo_3710" data-name="Grupo 3710">
                <path id="Trazado_1054" data-name="Trazado 1054" d="M127.462,186.8a3.977,3.977,0,0,1,.588-1.29,3.815,3.815,0,0,1,6.419.136,2.348,2.348,0,0,1,1.751-2.26,2.687,2.687,0,0,1,2.559.77,3.858,3.858,0,0,1,1.318,2.161c.792-1.778,4.862-1.56,5.356-.226,0,0,3.5-3.833,5.293-1.948.744.783.425,1.984-.068,3.188-.658,1.606-1.091,2.276-1.951,4.045l-3.315.181c-.279,1.037-.867,5.256-.991,6.323a7.356,7.356,0,0,1-.905,3.066,3.2,3.2,0,0,1-2.628,1.612,2.077,2.077,0,0,1-2.069-2.009,5.053,5.053,0,0,1-1.256,2.4,2.718,2.718,0,0,1-2.506.778,1.881,1.881,0,0,1-1.407-2.053c-1.182.819-2.928.091-3.678-1.135a7.484,7.484,0,0,1-.723-4.188,9.495,9.495,0,0,0-.346-3.909,3.59,3.59,0,0,1-.261-.557,6.361,6.361,0,0,1-.044-.946,7.211,7.211,0,0,0-.4-1.963c-.051-.138-.106-.275-.167-.409-.161-.357-.4-.659-.58-1a.649.649,0,0,1-.084-.234A1.534,1.534,0,0,1,127.462,186.8Z" fill="#ffbf9d"/>
                <g id="Grupo_3709" data-name="Grupo 3709">
                  <g id="Grupo_3708" data-name="Grupo 3708">
                    <g id="Grupo_3707" data-name="Grupo 3707">
                      <path id="Trazado_1055" data-name="Trazado 1055" d="M123.733,184.956a3.086,3.086,0,0,0-2.442.812c-.7.783-.862,2.658-.782,3.706,1.228.232,1.884-.041,3.112.19.259.049.475-.017.69.136.567.4.475,1.757.7,2.414A2.363,2.363,0,0,0,128,193.489a3.171,3.171,0,0,0,1.915-2.825,4.895,4.895,0,0,0-1.248-3.3A6.855,6.855,0,0,0,123.733,184.956Z" fill="#ffbf9d"/>
                    </g>
                  </g>
                </g>
              </g>
            </g>
            <g id="Grupo_3712" data-name="Grupo 3712">
              <path id="Trazado_1056" data-name="Trazado 1056" d="M144.653,196.116c-.125-.026.38-2.275.7-5.072a22.335,22.335,0,0,0,.134-3.589,11.534,11.534,0,0,1-.094-1.5,3.868,3.868,0,0,1,.371,1.471,15.715,15.715,0,0,1-.02,3.657,28.209,28.209,0,0,1-.637,3.588A5.443,5.443,0,0,1,144.653,196.116Z" fill="#ff9a6c"/>
            </g>
            <g id="Grupo_3713" data-name="Grupo 3713">
              <path id="Trazado_1057" data-name="Trazado 1057" d="M138.67,200.945A12.877,12.877,0,0,1,139,198.8c.239-1.314.576-3.128.832-5.144a37.223,37.223,0,0,0,.319-5.184c-.02-1.33-.116-2.152-.053-2.161a7.9,7.9,0,0,1,.33,2.15,27.663,27.663,0,0,1-.207,5.245,49.349,49.349,0,0,1-.949,5.153A10.956,10.956,0,0,1,138.67,200.945Z" fill="#ff9a6c"/>
            </g>
            <g id="Grupo_3714" data-name="Grupo 3714">
              <path id="Trazado_1058" data-name="Trazado 1058" d="M133.609,201.808a22.093,22.093,0,0,1,.414-2.385,45.965,45.965,0,0,0,.632-11.593,21.917,21.917,0,0,1-.152-2.416,2.1,2.1,0,0,1,.166.633c.085.411.176,1.012.263,1.758a35.37,35.37,0,0,1-.636,11.673c-.168.732-.324,1.319-.453,1.719A2.151,2.151,0,0,1,133.609,201.808Z" fill="#ff9a6c"/>
            </g>
            <g id="Grupo_3715" data-name="Grupo 3715">
              <path id="Trazado_1059" data-name="Trazado 1059" d="M126.936,187.032a2.1,2.1,0,0,1,1.034.522,5.245,5.245,0,0,1,1.678,2.24,4.483,4.483,0,0,1,.223,2.8c-.22.729-.678.982-.693.936a3.856,3.856,0,0,0,.423-1,4.9,4.9,0,0,0-.319-2.585,5.97,5.97,0,0,0-1.49-2.171C127.288,187.3,126.906,187.089,126.936,187.032Z" fill="#ff9a6c"/>
            </g>
          </g>
        </g>
      </g>
    </g>
  </g>
</svg>
