<svg width="312" height="287" viewBox="0 0 312 287" fill="none" xmlns="http://www.w3.org/2000/svg">
<path opacity="0.7" d="M45.6911 262.78C106.616 294.087 205.384 294.087 266.309 262.78C327.234 231.474 327.227 180.714 266.309 149.407C205.391 118.101 106.616 118.101 45.6911 149.407C-15.2338 180.714 -15.2269 231.474 45.6911 262.78Z" fill="#F5F5F5"/>
<path d="M261.641 155.516L237.203 141.044V87.2866L261.641 101.766V155.516Z" fill="#E0E0E0"/>
<path d="M261.641 101.766L296.549 81.0854V134.843L261.641 155.516V101.766Z" fill="#EBEBEB"/>
<path d="M296.549 81.0855L261.641 101.766L237.203 87.2869L272.111 66.6133L296.549 81.0855Z" fill="#F5F5F5"/>
<path d="M265.126 103.828L293.057 87.2866L293.697 87.672V107.582L265.773 124.124L265.126 123.738V103.828Z" fill="#E6E6E6"/>
<path d="M276.716 101.102L281.467 98.2906C282.086 97.9266 282.58 98.0908 282.58 98.6617C282.536 99.013 282.412 99.3488 282.219 99.6424C282.025 99.936 281.768 100.179 281.467 100.353L276.716 103.207C276.104 103.571 275.603 103.4 275.603 102.829C275.643 102.472 275.765 102.129 275.958 101.829C276.152 101.529 276.411 101.28 276.716 101.102Z" fill="#E6E6E6"/>
<path d="M264.486 129.027L292.417 112.485L292.41 132.395L293.057 132.773L265.126 149.315L264.486 148.937V129.027Z" fill="#E0E0E0"/>
<path d="M265.126 129.405L293.057 112.863V132.773L265.126 149.315V129.405Z" fill="#F5F5F5"/>
<path d="M276.076 126.294L280.827 123.482C281.439 123.118 281.94 123.282 281.94 123.853C281.895 124.205 281.771 124.541 281.578 124.836C281.384 125.131 281.128 125.375 280.827 125.551L276.076 128.363C275.457 128.727 274.956 128.563 274.956 127.992C275.002 127.639 275.127 127.303 275.322 127.008C275.516 126.713 275.774 126.469 276.076 126.294Z" fill="#E6E6E6"/>
<path d="M265.126 103.828L293.057 87.2866V107.204L265.126 123.738V103.828Z" fill="#E0E0E0"/>
<path d="M307.018 97.1271L291.735 88.0713V105.612L307.018 114.668V97.1271Z" fill="#E6E6E6"/>
<path d="M275.603 126.572V101.759L281.592 98.1982L282.58 99.6968L300.041 89.3564V112.1L275.603 126.572Z" fill="#EBEBEB"/>
<path d="M275.603 126.572L277.349 104.863L301.78 90.3911L300.041 112.099L275.603 126.572Z" fill="#FAFAFA"/>
<path d="M279.095 113.67L265.766 105.777V123.318L279.088 131.21L279.095 113.67Z" fill="#E6E6E6"/>
<path d="M279.095 112.1L307.018 95.5581V115.468L279.088 132.01L279.095 112.1Z" fill="#F5F5F5"/>
<path d="M290.037 108.995L294.789 106.184C295.401 105.82 295.902 105.984 295.902 106.555C295.856 106.907 295.732 107.243 295.539 107.538C295.346 107.832 295.089 108.077 294.789 108.253L290.037 111.065C289.418 111.429 288.924 111.265 288.924 110.694C288.97 110.342 289.094 110.005 289.287 109.711C289.48 109.416 289.737 109.171 290.037 108.995Z" fill="#E6E6E6"/>
<path d="M279.095 112.099L278.163 111.55V131.46L279.095 132.009V112.099Z" fill="#E0E0E0"/>
<path d="M278.163 111.55L306.086 95.0078L307.018 95.5573L279.095 112.099L278.163 111.55Z" fill="#F0F0F0"/>
<path d="M245.481 159.841C245.648 155.723 248.813 147.038 253.189 141.857C257.565 136.676 264.438 133.415 269.036 135.242C273.307 136.948 272.611 142.764 267.199 146.41C261.787 150.057 253.683 154.595 251.109 161.182L245.933 169.189L245.481 159.841Z" fill="#FFB700"/>
<path opacity="0.1" d="M245.481 159.841C245.648 155.723 248.813 147.038 253.189 141.857C257.565 136.676 264.438 133.415 269.036 135.242C273.307 136.948 272.611 142.764 267.199 146.41C261.787 150.057 253.683 154.595 251.109 161.182L245.933 169.189L245.481 159.841Z" fill="black"/>
<path d="M267.339 137.254C262.135 138.496 247.165 149.264 245.773 164.671" stroke="white" stroke-width="1.02594" stroke-miterlimit="10" stroke-linecap="round"/>
<path d="M246.803 176.204C247.047 171.922 250.601 168.839 255.283 166.02C260.848 162.681 265.648 161.175 267.339 157.885C269.029 154.595 266.003 150.877 260.264 152.84C255.394 154.503 245.996 163.059 245.933 169.189L246.803 176.204Z" fill="#FFB700"/>
<path d="M263.707 155.452C256.02 157.257 247.429 164.429 246.274 171.943" stroke="white" stroke-miterlimit="10" stroke-linecap="round"/>
<path d="M31.8547 111.229V235.249L155.59 161.96V49.2148L63.5833 103.707L60.4041 94.3157L31.8547 111.229Z" fill="#263238"/>
<path d="M31.8547 235.249L38.1991 122.497L161.934 49.2148L155.59 161.96L31.8547 235.249Z" fill="white"/>
<path d="M31.8547 235.25L41.3712 124.382L165.106 51.0928L155.59 161.961L31.8547 235.25Z" fill="#37474F"/>
<path d="M64.9119 135.321V259.341L188.654 186.052V73.3071L96.6404 127.799L93.4682 118.408L64.9119 135.321Z" fill="#FFB700"/>
<g opacity="0.1">
<path d="M64.9119 135.321V259.341L188.654 186.052V73.3071L96.6404 127.799L93.4682 118.408L64.9119 135.321Z" fill="black"/>
</g>
<path d="M109.851 216.038C109.469 215.774 109.153 215.421 108.93 215.008C108.706 214.595 108.581 214.134 108.564 213.662V58.9273C108.591 58.4386 108.732 57.9637 108.974 57.5418C109.216 57.1199 109.552 56.7631 109.955 56.501L204.647 0.403292C205.042 0.148692 205.497 0.00942204 205.964 0.00046146C206.431 -0.00849912 206.891 0.113187 207.295 0.352434C207.699 0.591682 208.032 0.939439 208.258 1.3583C208.484 1.77717 208.594 2.2513 208.577 2.72969V157.45C208.549 157.938 208.408 158.413 208.166 158.835C207.924 159.256 207.588 159.613 207.186 159.876L112.501 215.967C112.096 216.192 111.645 216.316 111.184 216.329C110.724 216.341 110.267 216.241 109.851 216.038Z" fill="#EBEBEB"/>
<path d="M111.131 61.8961L149.593 36.0773L147.033 34.5645L109.934 56.5368C109.531 56.7989 109.195 57.1557 108.953 57.5776C108.711 57.9995 108.57 58.4745 108.543 58.9632V60.3904L111.131 61.8961Z" fill="#EBEBEB"/>
<path d="M123.951 66.4204L108.967 57.543C108.719 57.9613 108.58 58.4381 108.564 58.9274V213.64C108.547 214.119 108.657 214.593 108.883 215.012C109.109 215.431 109.442 215.778 109.846 216.018C110.25 216.257 110.71 216.379 111.177 216.37C111.644 216.361 112.099 216.221 112.494 215.967L123.951 209.187V66.4204Z" fill="#E0E0E0"/>
<path d="M112.501 215.967L207.207 159.876C207.609 159.613 207.945 159.256 208.187 158.835C208.428 158.413 208.569 157.938 208.598 157.45V2.72971C208.598 1.83768 207.986 1.47373 207.207 1.92332L112.494 58.0139C112.092 58.2784 111.756 58.6367 111.514 59.0596C111.272 59.4825 111.132 59.958 111.103 60.4474V215.16C111.131 216.038 111.743 216.416 112.501 215.967Z" fill="#E6E6E6"/>
<path d="M118.991 96.1499L141.732 82.6839C143.242 81.7918 144.466 82.427 144.466 84.1111C144.399 85.0526 144.117 85.9646 143.642 86.773C143.167 87.5815 142.513 88.2636 141.732 88.7639L118.991 102.258C117.482 103.151 116.258 102.515 116.258 100.831C116.322 99.8854 116.604 98.9686 117.079 98.1552C117.554 97.3418 118.209 96.6547 118.991 96.1499Z" fill="#F5F5F5"/>
<path d="M117.35 120.806L120.292 119.065C120.898 118.708 121.385 118.993 121.385 119.707V123.197C121.365 123.586 121.255 123.964 121.065 124.302C120.876 124.639 120.611 124.925 120.292 125.138L117.35 126.879C116.751 127.236 116.258 126.95 116.258 126.229V122.747C116.279 122.358 116.389 121.98 116.579 121.643C116.768 121.306 117.033 121.019 117.35 120.806Z" fill="#FAFAFA"/>
<path d="M125.322 117.608L143.103 107.075C143.854 106.626 144.494 106.947 144.494 107.789C144.458 108.262 144.313 108.72 144.071 109.124C143.83 109.529 143.498 109.868 143.103 110.115L125.322 120.641C124.564 121.091 123.931 120.77 123.931 119.928C123.966 119.456 124.111 118.999 124.353 118.596C124.595 118.192 124.927 117.854 125.322 117.608Z" fill="#F5F5F5"/>
<path d="M117.35 132.959L120.292 131.21C120.898 130.853 121.385 131.146 121.385 131.86V135.349C121.365 135.738 121.255 136.117 121.065 136.454C120.876 136.792 120.611 137.078 120.292 137.29L117.35 139.032C116.751 139.388 116.258 139.096 116.258 138.382V134.9C116.279 134.511 116.389 134.133 116.579 133.796C116.768 133.459 117.033 133.172 117.35 132.959Z" fill="#FAFAFA"/>
<path d="M125.322 129.755L143.103 119.229C143.854 118.779 144.494 119.093 144.494 119.942C144.457 120.415 144.312 120.872 144.07 121.276C143.828 121.681 143.497 122.021 143.103 122.269L125.322 132.795C124.564 133.244 123.931 132.923 123.931 132.081C123.968 131.608 124.113 131.151 124.355 130.747C124.596 130.343 124.928 130.003 125.322 129.755Z" fill="#F5F5F5"/>
<path d="M117.35 145.104L120.292 143.362C120.898 143.006 121.385 143.291 121.385 144.012V147.53C121.365 147.919 121.255 148.298 121.065 148.635C120.876 148.972 120.611 149.259 120.292 149.471L117.35 151.212C116.751 151.576 116.258 151.284 116.258 150.57V147.08C116.274 146.686 116.381 146.301 116.571 145.957C116.761 145.613 117.028 145.321 117.35 145.104Z" fill="#FAFAFA"/>
<path d="M125.322 141.907L143.103 131.374C143.854 130.924 144.494 131.245 144.494 132.087C144.458 132.561 144.313 133.02 144.071 133.425C143.829 133.831 143.497 134.172 143.103 134.421L125.322 144.94C124.564 145.389 123.931 145.075 123.931 144.226C123.966 143.754 124.111 143.297 124.353 142.894C124.595 142.491 124.927 142.152 125.322 141.907Z" fill="#F5F5F5"/>
<path d="M117.35 157.285L120.292 155.544C120.898 155.187 121.385 155.48 121.385 156.194V159.662C121.365 160.051 121.255 160.429 121.065 160.767C120.876 161.104 120.611 161.391 120.292 161.603L117.35 163.344C116.751 163.708 116.258 163.415 116.258 162.702V159.212C116.281 158.826 116.392 158.451 116.582 158.117C116.771 157.782 117.034 157.498 117.35 157.285Z" fill="#FAFAFA"/>
<path d="M125.322 154.088L143.103 143.555C143.854 143.106 144.494 143.427 144.494 144.269C144.458 144.743 144.313 145.201 144.071 145.607C143.829 146.012 143.497 146.353 143.103 146.603L125.322 157.121C124.564 157.571 123.931 157.257 123.931 156.408C123.968 155.936 124.113 155.48 124.355 155.077C124.597 154.674 124.928 154.335 125.322 154.088Z" fill="#F5F5F5"/>
<path d="M117.628 182.691L130.261 175.198C131.012 174.748 131.652 175.069 131.652 175.911C131.617 176.384 131.472 176.842 131.23 177.246C130.988 177.651 130.656 177.99 130.261 178.238L117.607 185.738C116.849 186.18 116.216 185.866 116.216 185.024C116.254 184.548 116.402 184.088 116.648 183.683C116.893 183.277 117.229 182.937 117.628 182.691Z" fill="#F5F5F5"/>
<path d="M117.628 188.763L143.103 173.677C143.854 173.227 144.494 173.549 144.494 174.391C144.458 174.864 144.313 175.323 144.071 175.728C143.829 176.134 143.497 176.475 143.103 176.724L117.628 191.774C116.87 192.224 116.237 191.903 116.237 191.061C116.278 190.593 116.425 190.142 116.667 189.743C116.908 189.344 117.238 189.008 117.628 188.763Z" fill="#F0F0F0"/>
<path d="M117.628 188.764L135.409 178.216C136.16 177.774 136.8 178.088 136.8 178.93C136.763 179.403 136.618 179.86 136.376 180.264C136.134 180.668 135.803 181.008 135.409 181.256L117.628 191.775C116.87 192.225 116.237 191.904 116.237 191.062C116.278 190.594 116.425 190.142 116.667 189.743C116.908 189.344 117.238 189.009 117.628 188.764Z" fill="#FAFAFA"/>
<path d="M117.628 194.837L130.261 187.336C131.012 186.894 131.652 187.208 131.652 188.05C131.615 188.523 131.469 188.98 131.228 189.384C130.986 189.788 130.655 190.128 130.261 190.376L117.607 197.87C116.849 198.319 116.216 197.998 116.216 197.156C116.254 196.682 116.402 196.224 116.648 195.82C116.893 195.417 117.23 195.08 117.628 194.837Z" fill="#F5F5F5"/>
<path d="M117.628 170.545L130.261 163.052C131.012 162.609 131.652 162.923 131.652 163.765C131.615 164.238 131.469 164.695 131.228 165.099C130.986 165.503 130.655 165.843 130.261 166.092L117.607 173.585C116.849 174.034 116.216 173.713 116.216 172.871C116.255 172.396 116.404 171.938 116.649 171.534C116.895 171.129 117.23 170.79 117.628 170.545Z" fill="#F5F5F5"/>
<path d="M117.628 176.625L143.103 161.532C143.854 161.089 144.494 161.403 144.494 162.245C144.457 162.718 144.311 163.175 144.069 163.579C143.828 163.983 143.496 164.323 143.103 164.572L117.628 179.643C116.87 180.093 116.237 179.772 116.237 178.93C116.275 178.46 116.421 178.006 116.662 177.606C116.904 177.205 117.235 176.869 117.628 176.625Z" fill="#F0F0F0"/>
<path d="M117.628 176.625L126.672 171.273C127.43 170.823 128.063 171.144 128.063 171.986C128.027 172.46 127.882 172.919 127.64 173.325C127.399 173.73 127.067 174.071 126.672 174.32L117.628 179.665C116.87 180.114 116.237 179.793 116.237 178.951C116.272 178.478 116.416 178.02 116.658 177.615C116.9 177.211 117.232 176.871 117.628 176.625Z" fill="#FAFAFA"/>
<path d="M117.628 200.909L143.103 185.823C143.854 185.373 144.494 185.695 144.494 186.537C144.458 187.01 144.313 187.467 144.072 187.872C143.83 188.276 143.498 188.616 143.103 188.863L117.628 203.956C116.87 204.399 116.237 204.085 116.237 203.242C116.273 202.768 116.417 202.31 116.659 201.904C116.901 201.499 117.233 201.158 117.628 200.909Z" fill="#F0F0F0"/>
<path d="M117.628 200.91L140.536 187.351C141.294 186.909 141.927 187.223 141.927 188.065C141.889 188.537 141.743 188.994 141.501 189.398C141.259 189.802 140.929 190.142 140.536 190.391L117.628 203.95C116.87 204.392 116.237 204.078 116.237 203.236C116.274 202.764 116.419 202.306 116.661 201.902C116.903 201.498 117.234 201.158 117.628 200.91Z" fill="#FAFAFA"/>
<path d="M207.207 1.95216L149.593 36.0418V193.995L207.207 159.876C207.609 159.614 207.945 159.257 208.187 158.835C208.428 158.413 208.569 157.939 208.598 157.45V2.73C208.577 1.83798 207.965 1.47403 207.207 1.95216Z" fill="#F5F5F5"/>
<path d="M149.593 42.122V54.2678L144.466 60.3479H149.593V72.4937L203.443 40.602V10.2231L149.593 42.122Z" fill="#EBEBEB"/>
<path d="M156.64 42.5423L178.456 29.6186C179.513 28.9977 180.369 29.5044 180.369 30.7532C180.333 31.435 180.142 32.0986 179.809 32.6901C179.477 33.2816 179.013 33.7842 178.456 34.1572L156.64 47.0738C155.583 47.7017 154.727 47.1951 154.727 45.9462C154.762 45.2645 154.954 44.6008 155.286 44.0094C155.619 43.4179 156.083 42.9152 156.64 42.5423Z" fill="#FAFAFA"/>
<path d="M155.409 52.3479L197.635 27.3355C198.01 27.1142 198.33 27.2712 198.33 27.6923C198.312 27.9288 198.24 28.1576 198.119 28.3598C197.998 28.562 197.832 28.7319 197.635 28.8555L155.409 53.8679C155.033 54.0891 154.713 53.9321 154.713 53.5111C154.731 53.2745 154.803 53.0458 154.924 52.8435C155.045 52.6413 155.211 52.4714 155.409 52.3479Z" fill="#FAFAFA"/>
<path d="M155.409 56.9005L197.635 31.9238C198.01 31.6954 198.33 31.8596 198.33 32.2735C198.312 32.5108 198.239 32.7404 198.118 32.9436C197.998 33.1469 197.832 33.3182 197.635 33.4438L155.409 58.4205C155.033 58.6418 154.713 58.4848 154.713 58.0637C154.733 57.8276 154.806 57.5995 154.927 57.3975C155.047 57.1956 155.212 57.0254 155.409 56.9005Z" fill="#FAFAFA"/>
<path d="M155.409 61.4606L197.635 36.4839C198.01 36.2627 198.33 36.4197 198.33 36.8407C198.312 37.0772 198.24 37.306 198.119 37.5083C197.998 37.7105 197.832 37.8804 197.635 38.0039L155.409 63.0163C155.033 63.2376 154.713 63.0806 154.713 62.6595C154.726 62.4168 154.795 62.1808 154.917 61.972C155.038 61.7631 155.207 61.5876 155.409 61.4606Z" fill="#FAFAFA"/>
<path d="M156.995 74.1994L159.937 72.4581C160.543 72.1013 161.037 72.3868 161.037 73.1075V76.59C161.015 76.9793 160.904 77.3579 160.713 77.6952C160.522 78.0324 160.256 78.3187 159.937 78.531L156.995 80.2723C156.397 80.6291 155.903 80.3436 155.903 79.63V76.1689C155.92 75.7754 156.028 75.3917 156.218 75.0494C156.408 74.707 156.674 74.4157 156.995 74.1994Z" fill="white"/>
<path d="M164.967 71.002L182.748 60.469C183.499 60.0194 184.139 60.3405 184.139 61.1826C184.103 61.6565 183.958 62.1148 183.716 62.5203C183.474 62.9258 183.142 63.267 182.748 63.5162L164.967 74.0278C164.209 74.4774 163.576 74.1634 163.576 73.3142C163.613 72.8433 163.758 72.3881 164 71.9862C164.242 71.5842 164.573 71.2469 164.967 71.002Z" fill="#E0E0E0"/>
<path d="M156.591 85.0812L201.377 58.5488C201.76 58.3204 202.073 58.4846 202.073 58.8985C202.056 59.1353 201.984 59.3645 201.863 59.5669C201.742 59.7693 201.575 59.939 201.377 60.0617L156.591 86.6012C156.209 86.8224 155.896 86.6654 155.896 86.2444C155.913 86.0076 155.984 85.7783 156.106 85.5759C156.227 85.3735 156.393 85.2039 156.591 85.0812Z" fill="#E0E0E0"/>
<path d="M156.591 89.6345L201.377 63.1021C201.76 62.8808 202.073 63.0378 202.073 63.4589C202.056 63.6957 201.984 63.9249 201.863 64.1273C201.742 64.3298 201.575 64.4994 201.377 64.6221L156.591 91.1545C156.209 91.3757 155.896 91.2187 155.896 90.7977C155.915 90.5615 155.988 90.3331 156.108 90.1311C156.229 89.929 156.395 89.7589 156.591 89.6345Z" fill="#E0E0E0"/>
<path d="M156.591 94.1949L201.377 67.6625C201.76 67.4341 202.073 67.5912 202.073 68.0122C202.056 68.249 201.984 68.4782 201.863 68.6807C201.742 68.8831 201.575 69.0527 201.377 69.1754L156.591 95.7078C156.209 95.9362 155.896 95.7792 155.896 95.3581C155.913 95.1213 155.984 94.8921 156.106 94.6897C156.227 94.4873 156.393 94.3176 156.591 94.1949Z" fill="#E0E0E0"/>
<path d="M156.591 98.7612L201.377 72.2288C201.76 72.0004 202.073 72.1645 202.073 72.5856C202.054 72.8218 201.981 73.0502 201.86 73.2522C201.739 73.4542 201.574 73.6243 201.377 73.7488L156.591 100.281C156.209 100.502 155.896 100.345 155.896 99.9244C155.913 99.6875 155.984 99.4583 156.106 99.2559C156.227 99.0535 156.393 98.8839 156.591 98.7612Z" fill="#E0E0E0"/>
<path d="M156.995 107.61L159.937 105.869C160.543 105.512 161.037 105.805 161.037 106.518V110.001C161.015 110.39 160.904 110.769 160.713 111.106C160.522 111.443 160.256 111.73 159.937 111.942L156.995 113.69C156.397 114.047 155.903 113.754 155.903 113.041V109.558C155.923 109.169 156.033 108.789 156.222 108.451C156.412 108.112 156.677 107.824 156.995 107.61Z" fill="white"/>
<path d="M164.967 104.413L182.748 93.8804C183.499 93.4379 184.139 93.7519 184.139 94.594C184.102 95.0666 183.956 95.5235 183.714 95.9277C183.473 96.3319 183.141 96.672 182.748 96.9204L164.967 107.453C164.209 107.896 163.576 107.582 163.576 106.74C163.613 106.267 163.758 105.81 164 105.406C164.241 105.001 164.573 104.661 164.967 104.413Z" fill="#E0E0E0"/>
<path d="M156.591 118.493L201.377 91.9609C201.76 91.7397 202.073 91.8967 202.073 92.3178C202.054 92.554 201.981 92.7823 201.86 92.9844C201.739 93.1864 201.574 93.3565 201.377 93.481L156.591 120.013C156.209 120.235 155.896 120.078 155.896 119.657C155.913 119.42 155.984 119.191 156.106 118.988C156.227 118.786 156.393 118.616 156.591 118.493Z" fill="#E0E0E0"/>
<path d="M156.591 123.046L201.377 96.5137C201.76 96.2925 202.073 96.4495 202.073 96.8705C202.056 97.1073 201.984 97.3366 201.863 97.539C201.742 97.7414 201.575 97.911 201.377 98.0337L156.591 124.566C156.209 124.794 155.896 124.63 155.896 124.216C155.914 123.979 155.986 123.749 156.107 123.546C156.228 123.342 156.394 123.171 156.591 123.046Z" fill="#E0E0E0"/>
<path d="M156.591 127.606L201.377 101.074C201.76 100.845 202.073 101.009 202.073 101.423C202.055 101.661 201.983 101.891 201.862 102.094C201.741 102.297 201.575 102.469 201.377 102.594L156.591 129.126C156.209 129.347 155.896 129.19 155.896 128.769C155.913 128.532 155.984 128.303 156.106 128.101C156.227 127.898 156.393 127.729 156.591 127.606Z" fill="#E0E0E0"/>
<path d="M156.591 132.174L201.377 105.641C201.76 105.42 202.073 105.577 202.073 105.998C202.056 106.235 201.984 106.464 201.863 106.666C201.742 106.869 201.575 107.038 201.377 107.161L156.591 133.694C156.209 133.915 155.896 133.758 155.896 133.337C155.915 133.101 155.988 132.872 156.108 132.67C156.229 132.468 156.395 132.298 156.591 132.174Z" fill="#E0E0E0"/>
<path d="M161.19 138.838L164.125 137.097C164.73 136.733 165.224 137.026 165.224 137.739V141.229C165.203 141.618 165.092 141.997 164.901 142.334C164.71 142.671 164.444 142.958 164.125 143.17L161.19 144.911C160.584 145.268 160.09 144.983 160.09 144.262V140.779C160.112 140.39 160.223 140.011 160.414 139.674C160.605 139.337 160.871 139.051 161.19 138.838Z" fill="white"/>
<path d="M156.591 150.678L168.73 143.484C169.106 143.263 169.426 143.42 169.426 143.841C169.408 144.078 169.336 144.307 169.215 144.509C169.094 144.711 168.928 144.881 168.73 145.004L156.591 152.191C156.209 152.419 155.896 152.255 155.896 151.841C155.913 151.604 155.984 151.375 156.106 151.172C156.227 150.97 156.393 150.8 156.591 150.678Z" fill="#E0E0E0"/>
<path d="M177.516 129.163L180.452 127.421C181.057 127.057 181.551 127.35 181.551 128.064V131.553C181.529 131.943 181.418 132.321 181.228 132.658C181.037 132.996 180.771 133.282 180.452 133.494L177.516 135.236C176.911 135.592 176.417 135.3 176.417 134.586V131.118C176.437 130.726 176.547 130.345 176.738 130.005C176.929 129.665 177.196 129.376 177.516 129.163Z" fill="white"/>
<path d="M172.918 140.993L185.057 133.807C185.433 133.586 185.753 133.743 185.753 134.164C185.735 134.4 185.663 134.629 185.542 134.831C185.421 135.034 185.255 135.204 185.057 135.327L172.918 142.535C172.536 142.763 172.223 142.599 172.223 142.185C172.237 141.944 172.308 141.71 172.429 141.502C172.55 141.295 172.718 141.121 172.918 140.993Z" fill="#E0E0E0"/>
<path d="M193.843 119.485L196.779 117.737C197.384 117.38 197.878 117.672 197.878 118.386V121.84C197.857 122.231 197.747 122.611 197.556 122.949C197.365 123.288 197.099 123.575 196.779 123.788L193.843 125.529C193.238 125.886 192.744 125.594 192.744 124.88V121.398C192.77 121.013 192.883 120.64 193.074 120.308C193.265 119.976 193.528 119.694 193.843 119.485Z" fill="white"/>
<path d="M189.238 131.317L201.377 124.131C201.76 123.91 202.073 124.067 202.073 124.488C202.056 124.725 201.984 124.954 201.863 125.156C201.742 125.359 201.575 125.528 201.377 125.651L189.238 132.837C188.862 133.065 188.542 132.901 188.542 132.48C188.562 132.244 188.635 132.016 188.756 131.814C188.877 131.612 189.042 131.442 189.238 131.317Z" fill="#E0E0E0"/>
<path d="M156.591 153.639L168.73 146.453C169.106 146.232 169.426 146.389 169.426 146.81C169.407 147.046 169.333 147.274 169.213 147.476C169.092 147.678 168.927 147.848 168.73 147.973L156.591 155.159C156.209 155.381 155.896 155.224 155.896 154.802C155.914 154.566 155.986 154.337 156.107 154.135C156.228 153.933 156.394 153.763 156.591 153.639Z" fill="#E0E0E0"/>
<path d="M172.918 143.962L185.057 136.776C185.433 136.548 185.753 136.712 185.753 137.126C185.734 137.363 185.662 137.593 185.541 137.796C185.42 137.999 185.254 138.171 185.057 138.296L172.918 145.483C172.536 145.704 172.223 145.547 172.223 145.126C172.239 144.889 172.311 144.66 172.432 144.457C172.553 144.255 172.72 144.085 172.918 143.962Z" fill="#E0E0E0"/>
<path d="M189.238 134.286L201.377 127.1C201.76 126.872 202.073 127.036 202.073 127.45C202.055 127.687 201.983 127.917 201.862 128.12C201.741 128.324 201.575 128.495 201.377 128.62L189.238 135.806C188.862 136.027 188.542 135.87 188.542 135.449C188.56 135.213 188.633 134.984 188.754 134.782C188.875 134.58 189.041 134.41 189.238 134.286Z" fill="#E0E0E0"/>
<path d="M156.591 156.607L168.73 149.414C169.106 149.193 169.426 149.35 169.426 149.771C169.408 150.007 169.336 150.236 169.215 150.438C169.094 150.641 168.928 150.811 168.73 150.934L156.591 158.127C156.209 158.349 155.896 158.192 155.896 157.771C155.913 157.534 155.984 157.305 156.106 157.102C156.227 156.9 156.393 156.73 156.591 156.607Z" fill="#E0E0E0"/>
<path d="M172.918 146.931L185.057 139.738C185.433 139.517 185.753 139.674 185.753 140.095C185.735 140.331 185.663 140.56 185.542 140.762C185.421 140.964 185.255 141.134 185.057 141.258L172.918 148.451C172.536 148.672 172.223 148.515 172.223 148.094C172.239 147.857 172.311 147.628 172.432 147.426C172.553 147.223 172.72 147.054 172.918 146.931Z" fill="#E0E0E0"/>
<path d="M189.238 137.255L201.377 130.062C201.76 129.84 202.073 129.997 202.073 130.418C202.056 130.655 201.984 130.884 201.863 131.087C201.742 131.289 201.575 131.459 201.377 131.582L189.238 138.768C188.862 138.996 188.542 138.839 188.542 138.418C188.56 138.181 188.633 137.953 188.754 137.75C188.875 137.548 189.041 137.378 189.238 137.255Z" fill="#E0E0E0"/>
<path d="M161.19 163.78L164.125 162.039C164.73 161.682 165.224 161.975 165.224 162.688V166.171C165.203 166.56 165.092 166.939 164.901 167.276C164.71 167.613 164.444 167.9 164.125 168.112L161.19 169.853C160.584 170.217 160.09 169.924 160.09 169.211V165.721C160.112 165.332 160.223 164.953 160.414 164.616C160.605 164.279 160.871 163.992 161.19 163.78Z" fill="white"/>
<path d="M156.591 175.619L168.73 168.433C169.106 168.204 169.426 168.368 169.426 168.782C169.408 169.019 169.336 169.248 169.215 169.45C169.094 169.652 168.928 169.822 168.73 169.945L156.591 177.139C156.209 177.36 155.896 177.203 155.896 176.782C155.913 176.545 155.984 176.316 156.106 176.113C156.227 175.911 156.393 175.741 156.591 175.619Z" fill="#E0E0E0"/>
<path d="M177.516 154.103L180.452 152.362C181.057 152.005 181.551 152.291 181.551 153.011V156.494C181.529 156.883 181.418 157.262 181.228 157.599C181.037 157.936 180.771 158.223 180.452 158.435L177.516 160.176C176.911 160.54 176.417 160.247 176.417 159.534V156.044C176.439 155.655 176.55 155.276 176.741 154.939C176.932 154.602 177.197 154.315 177.516 154.103Z" fill="white"/>
<path d="M172.918 165.942L185.057 158.756C185.433 158.527 185.753 158.684 185.753 159.105C185.735 159.342 185.663 159.571 185.542 159.773C185.421 159.975 185.255 160.145 185.057 160.269L172.918 167.462C172.536 167.683 172.223 167.526 172.223 167.105C172.239 166.868 172.311 166.639 172.432 166.437C172.553 166.234 172.72 166.065 172.918 165.942Z" fill="#E0E0E0"/>
<path d="M193.843 144.426L196.779 142.685C197.384 142.328 197.878 142.613 197.878 143.334V146.817C197.856 147.206 197.745 147.585 197.554 147.922C197.363 148.259 197.098 148.545 196.779 148.758L193.843 150.499C193.238 150.856 192.744 150.57 192.744 149.857V146.367C192.766 145.978 192.877 145.599 193.068 145.262C193.259 144.925 193.524 144.638 193.843 144.426Z" fill="white"/>
<path d="M189.238 156.266L201.377 149.072C201.76 148.851 202.073 149.008 202.073 149.429C202.056 149.666 201.984 149.895 201.863 150.098C201.742 150.3 201.575 150.47 201.377 150.592L189.238 157.786C188.862 158.007 188.542 157.85 188.542 157.429C188.56 157.192 188.633 156.963 188.754 156.761C188.875 156.559 189.041 156.389 189.238 156.266Z" fill="#E0E0E0"/>
<path d="M156.591 178.587L168.73 171.394C169.106 171.172 169.426 171.329 169.426 171.75C169.408 171.987 169.336 172.216 169.215 172.418C169.094 172.62 168.928 172.79 168.73 172.914L156.591 180.1C156.209 180.328 155.896 180.164 155.896 179.75C155.913 179.513 155.984 179.284 156.106 179.082C156.227 178.879 156.393 178.71 156.591 178.587Z" fill="#E0E0E0"/>
<path d="M172.918 168.939L185.057 161.753C185.433 161.532 185.753 161.689 185.753 162.11C185.735 162.346 185.663 162.575 185.542 162.777C185.421 162.98 185.255 163.149 185.057 163.273L172.918 170.459C172.536 170.687 172.223 170.523 172.223 170.109C172.24 169.872 172.313 169.642 172.434 169.439C172.555 169.235 172.721 169.064 172.918 168.939Z" fill="#E0E0E0"/>
<path d="M189.238 159.227L201.377 152.041C201.76 151.82 202.073 151.977 202.073 152.398C202.056 152.635 201.984 152.864 201.863 153.066C201.742 153.269 201.575 153.438 201.377 153.561L189.238 160.747C188.862 160.976 188.542 160.811 188.542 160.398C188.561 160.16 188.634 159.931 188.754 159.727C188.875 159.524 189.041 159.353 189.238 159.227Z" fill="#E0E0E0"/>
<path d="M156.591 181.549L168.73 174.363C169.106 174.142 169.426 174.299 169.426 174.72C169.407 174.956 169.333 175.184 169.213 175.386C169.092 175.588 168.927 175.758 168.73 175.883L156.591 183.069C156.209 183.29 155.896 183.133 155.896 182.712C155.915 182.476 155.988 182.248 156.108 182.046C156.229 181.843 156.395 181.673 156.591 181.549Z" fill="#E0E0E0"/>
<path d="M172.918 171.873L185.057 164.658C185.433 164.437 185.753 164.594 185.753 165.015C185.733 165.251 185.66 165.479 185.539 165.681C185.419 165.883 185.254 166.053 185.057 166.178L172.918 173.364C172.536 173.586 172.223 173.429 172.223 173.008C172.244 172.776 172.318 172.552 172.438 172.355C172.559 172.158 172.724 171.993 172.918 171.873Z" fill="#E0E0E0"/>
<path d="M189.238 162.195L201.377 155.009C201.76 154.78 202.073 154.945 202.073 155.358C202.055 155.596 201.983 155.826 201.862 156.029C201.741 156.232 201.575 156.404 201.377 156.529L189.238 163.715C188.862 163.936 188.542 163.779 188.542 163.358C188.56 163.122 188.633 162.893 188.754 162.691C188.875 162.488 189.041 162.318 189.238 162.195Z" fill="#E0E0E0"/>
<path d="M129.078 54.3102C136.181 50.1069 141.934 53.5109 141.934 61.9245C141.934 70.3381 136.181 80.55 129.078 84.7604C121.976 88.9707 116.23 85.5596 116.23 77.1532C116.23 68.7467 121.983 58.5134 129.078 54.3102Z" fill="#FAFAFA"/>
<path d="M129.078 60.9254C131.381 59.5624 133.252 60.6685 133.252 63.3945C133.173 64.8789 132.754 66.3232 132.029 67.6102C131.304 68.8972 130.293 69.9907 129.078 70.8019C126.776 72.1649 124.905 71.0588 124.905 68.3328C124.983 66.8483 125.402 65.4038 126.127 64.1166C126.853 62.8295 127.864 61.7361 129.078 60.9254Z" fill="#E0E0E0"/>
<path d="M137.218 75.4549C137.218 70.9733 134.15 69.1607 130.365 71.4015L128 72.8287C124.216 75.0695 121.148 80.5216 121.148 85.0031V86.2091C123.339 86.9228 126.087 86.5445 129.085 84.7819C132.376 82.6975 135.158 79.8684 137.218 76.511V75.4549Z" fill="#E0E0E0"/>
<path d="M121.475 106.412L139.256 95.8787C140.007 95.4291 140.647 95.7502 140.647 96.5923C140.611 97.0654 140.466 97.5229 140.225 97.9274C139.983 98.3318 139.651 98.6716 139.256 98.9187L121.475 109.452C120.717 109.901 120.084 109.58 120.084 108.738C120.118 108.265 120.263 107.807 120.505 107.402C120.747 106.997 121.079 106.658 121.475 106.412Z" fill="#F5F5F5"/>
<path d="M64.9187 259.341L87.5203 158.92L211.255 85.6387L188.654 186.052L64.9187 259.341Z" fill="#FFB700"/>
<path opacity="0.1" d="M127.082 222.518V135.491L210.928 86.0732L188.654 186.052L127.082 222.518Z" fill="black"/>
<path d="M148.404 235.156L127.082 222.518L166.79 199.175L148.404 235.156Z" fill="#E0E0E0"/>
<path d="M148.404 235.156C148.023 234.891 147.709 234.537 147.487 234.124C147.265 233.712 147.14 233.251 147.124 232.78V78.0594C147.153 77.5712 147.295 77.0971 147.536 76.6756C147.778 76.254 148.113 75.8968 148.515 75.633L243.2 19.5353C243.595 19.2803 244.051 19.141 244.518 19.1323C244.986 19.1236 245.446 19.2459 245.851 19.486C246.255 19.7261 246.588 20.075 246.814 20.4949C247.039 20.9148 247.148 21.3899 247.13 21.8688V176.582C247.101 177.07 246.96 177.545 246.719 177.967C246.477 178.388 246.141 178.745 245.739 179.008L151.054 235.106C150.647 235.326 150.195 235.446 149.735 235.454C149.274 235.463 148.818 235.361 148.404 235.156Z" fill="#EBEBEB"/>
<path d="M149.684 81L188.153 55.1811L185.586 53.6611L148.487 75.6335C148.086 75.8973 147.75 76.2545 147.509 76.676C147.267 77.0976 147.125 77.5717 147.096 78.0598V79.4871L149.684 81Z" fill="#455A64"/>
<path d="M162.504 85.5524L147.52 76.6821C147.276 77.0991 147.139 77.5732 147.124 78.0594V232.78C147.106 233.258 147.217 233.732 147.443 234.151C147.669 234.57 148.002 234.918 148.406 235.157C148.81 235.396 149.27 235.518 149.737 235.509C150.203 235.5 150.659 235.361 151.054 235.106L162.504 228.319V85.5524Z" fill="#263238"/>
<path d="M151.054 235.106L245.739 179.008C246.141 178.745 246.477 178.388 246.719 177.966C246.96 177.545 247.101 177.07 247.13 176.582V21.8688C247.13 20.9696 246.518 20.6128 245.739 21.0553L151.054 77.153C150.651 77.4151 150.315 77.7718 150.073 78.1937C149.831 78.6157 149.69 79.0906 149.663 79.5793V234.292C149.684 235.191 150.296 235.548 151.054 235.106Z" fill="#37474F"/>
<path d="M157.544 115.318L180.285 101.859C181.795 100.967 183.019 101.602 183.019 103.286C182.951 104.228 182.668 105.141 182.193 105.95C181.718 106.759 181.065 107.443 180.285 107.946L157.544 121.412C156.035 122.304 154.811 121.669 154.811 119.985C154.875 119.041 155.157 118.126 155.632 117.315C156.107 116.504 156.762 115.819 157.544 115.318Z" fill="#E0E0E0"/>
<path d="M155.91 139.938L158.852 138.197C159.451 137.84 159.944 138.132 159.944 138.846V142.328C159.923 142.718 159.813 143.097 159.623 143.435C159.434 143.773 159.17 144.062 158.852 144.277L155.91 146.018C155.304 146.375 154.818 146.082 154.818 145.368V141.886C154.837 141.496 154.946 141.116 155.136 140.777C155.326 140.439 155.591 140.151 155.91 139.938Z" fill="#FFB700"/>
<path d="M163.875 136.741L181.656 126.208C182.407 125.765 183.047 126.079 183.047 126.921C183.009 127.394 182.864 127.851 182.622 128.255C182.38 128.659 182.049 128.999 181.656 129.248L163.875 139.781C163.117 140.223 162.484 139.909 162.484 139.067C162.52 138.594 162.666 138.137 162.907 137.733C163.149 137.329 163.481 136.989 163.875 136.741Z" fill="#E0E0E0"/>
<path d="M155.91 152.09L158.852 150.385C159.451 150.028 159.944 150.314 159.944 151.034V154.517C159.923 154.905 159.813 155.283 159.623 155.62C159.434 155.958 159.17 156.244 158.852 156.458L155.91 158.199C155.304 158.556 154.818 158.27 154.818 157.557V154.067C154.832 153.672 154.939 153.286 155.129 152.942C155.319 152.598 155.587 152.306 155.91 152.09Z" fill="#FFB700"/>
<path d="M163.875 148.894L181.656 138.361C182.407 137.911 183.047 138.232 183.047 139.074C183.01 139.548 182.865 140.006 182.624 140.412C182.382 140.817 182.05 141.159 181.656 141.408L163.875 151.934C163.117 152.383 162.484 152.069 162.484 151.22C162.518 150.747 162.663 150.289 162.905 149.884C163.147 149.479 163.479 149.14 163.875 148.894Z" fill="#E0E0E0"/>
<path d="M155.91 164.244L158.852 162.517C159.451 162.16 159.944 162.453 159.944 163.166V166.649C159.924 167.039 159.814 167.418 159.625 167.756C159.435 168.095 159.17 168.383 158.852 168.597L155.91 170.338C155.304 170.695 154.818 170.402 154.818 169.689V166.206C154.834 165.814 154.942 165.431 155.132 165.089C155.322 164.748 155.589 164.458 155.91 164.244Z" fill="#FFB700"/>
<path d="M163.875 161.039L181.656 150.506C182.407 150.064 183.047 150.378 183.047 151.22C183.01 151.693 182.865 152.15 182.623 152.554C182.381 152.958 182.05 153.298 181.656 153.546L163.875 164.079C163.117 164.529 162.484 164.208 162.484 163.366C162.52 162.893 162.666 162.436 162.907 162.032C163.149 161.627 163.481 161.287 163.875 161.039Z" fill="#E0E0E0"/>
<path d="M155.91 176.425L158.852 174.648C159.451 174.291 159.944 174.584 159.944 175.298V178.787C159.923 179.176 159.813 179.554 159.623 179.891C159.434 180.228 159.17 180.515 158.852 180.728L155.91 182.498C155.304 182.855 154.818 182.562 154.818 181.849V178.366C154.837 177.977 154.947 177.599 155.137 177.261C155.326 176.924 155.591 176.637 155.91 176.425Z" fill="#FFB700"/>
<path d="M163.875 173.221L181.656 162.696C182.407 162.246 183.047 162.56 183.047 163.409C183.01 163.882 182.865 164.339 182.623 164.743C182.381 165.148 182.05 165.488 181.656 165.736L163.875 176.269C163.117 176.718 162.484 176.397 162.484 175.555C162.519 175.081 162.664 174.622 162.906 174.217C163.148 173.811 163.48 173.47 163.875 173.221Z" fill="#E0E0E0"/>
<path d="M156.181 201.823L168.835 194.33C169.586 193.888 170.226 194.202 170.226 195.044C170.189 195.516 170.043 195.973 169.801 196.377C169.56 196.782 169.228 197.122 168.835 197.37L156.181 204.863C155.43 205.313 154.79 204.992 154.79 204.15C154.827 203.677 154.973 203.22 155.214 202.816C155.456 202.412 155.787 202.072 156.181 201.823Z" fill="#E0E0E0"/>
<path d="M156.181 207.903L181.655 192.81C182.407 192.368 183.047 192.682 183.047 193.524C183.009 193.996 182.864 194.453 182.622 194.857C182.38 195.262 182.049 195.602 181.655 195.85L156.181 210.936C155.43 211.386 154.79 211.065 154.79 210.222C154.826 209.751 154.972 209.294 155.214 208.891C155.455 208.488 155.787 208.15 156.181 207.903Z" fill="#FAFAFA"/>
<path d="M156.181 207.902L173.962 197.369C174.72 196.92 175.353 197.241 175.353 198.083C175.317 198.557 175.172 199.016 174.93 199.421C174.689 199.827 174.357 200.168 173.962 200.417L156.181 210.942C155.43 211.392 154.79 211.071 154.79 210.229C154.825 209.756 154.97 209.298 155.212 208.894C155.454 208.489 155.786 208.15 156.181 207.902Z" fill="#FFB700"/>
<path d="M156.181 213.969L168.835 206.476C169.586 206.026 170.226 206.347 170.226 207.189C170.19 207.663 170.045 208.122 169.803 208.527C169.561 208.933 169.229 209.274 168.835 209.523L156.181 217.016C155.43 217.458 154.79 217.144 154.79 216.302C154.826 215.829 154.971 215.37 155.213 214.965C155.455 214.559 155.786 214.218 156.181 213.969Z" fill="#E0E0E0"/>
<path d="M156.181 189.684L168.835 182.191C169.586 181.742 170.226 182.063 170.226 182.905C170.19 183.378 170.045 183.835 169.803 184.24C169.562 184.644 169.23 184.984 168.835 185.231L156.181 192.724C155.43 193.174 154.79 192.86 154.79 192.011C154.825 191.538 154.97 191.08 155.212 190.675C155.454 190.271 155.786 189.931 156.181 189.684Z" fill="#E0E0E0"/>
<path d="M156.181 195.757L181.655 180.671C182.407 180.222 183.047 180.543 183.047 181.385C183.011 181.858 182.866 182.315 182.624 182.72C182.382 183.124 182.05 183.464 181.655 183.711L156.181 198.804C155.43 199.247 154.79 198.933 154.79 198.091C154.826 197.617 154.971 197.158 155.213 196.753C155.455 196.347 155.786 196.006 156.181 195.757Z" fill="#FAFAFA"/>
<path d="M156.181 195.757L165.224 190.405C165.976 189.962 166.616 190.276 166.616 191.118C166.578 191.591 166.433 192.048 166.191 192.452C165.949 192.856 165.618 193.196 165.224 193.445L156.181 198.797C155.43 199.239 154.79 198.925 154.79 198.083C154.827 197.611 154.973 197.154 155.214 196.75C155.456 196.345 155.787 196.005 156.181 195.757Z" fill="#FFB700"/>
<path d="M156.181 220.042L181.655 204.956C182.407 204.506 183.047 204.827 183.047 205.669C183.009 206.142 182.864 206.599 182.622 207.003C182.38 207.407 182.049 207.747 181.655 207.996L156.181 223.082C155.43 223.531 154.79 223.21 154.79 222.368C154.827 221.896 154.973 221.439 155.214 221.034C155.456 220.63 155.787 220.29 156.181 220.042Z" fill="#FAFAFA"/>
<path d="M156.181 220.041L179.089 206.483C179.847 206.033 180.48 206.354 180.48 207.196C180.444 207.67 180.299 208.129 180.057 208.534C179.816 208.94 179.484 209.281 179.089 209.53L156.181 223.089C155.43 223.538 154.79 223.217 154.79 222.375C154.826 221.901 154.971 221.443 155.213 221.037C155.455 220.632 155.786 220.291 156.181 220.041Z" fill="#FFB700"/>
<path d="M245.739 21.0553L188.132 55.1806V213.133L245.739 179.008C246.141 178.745 246.477 178.388 246.719 177.966C246.96 177.545 247.101 177.07 247.13 176.582V21.8688C247.13 20.9696 246.518 20.6128 245.739 21.0553Z" fill="#FAFAFA"/>
<path d="M188.153 61.2535V73.4065L183.019 79.4794H188.146L188.153 91.6324L242.003 59.7335V29.3618L188.153 61.2535Z" fill="#FFB700"/>
<path d="M195.193 61.6748L217.008 48.7582C218.066 48.1303 218.921 48.6369 218.921 49.8929C218.893 50.5811 218.704 51.2523 218.371 51.8506C218.038 52.4489 217.571 52.957 217.008 53.3326L195.193 66.2562C194.135 66.8842 193.28 66.3776 193.28 65.1216C193.309 64.4324 193.497 63.7602 193.83 63.1608C194.163 62.5614 194.63 62.0519 195.193 61.6748Z" fill="#FAFAFA"/>
<path d="M193.962 71.4801L236.187 46.5034C236.57 46.275 236.883 46.4391 236.883 46.853C236.866 47.0907 236.793 47.3207 236.673 47.5241C236.552 47.7276 236.385 47.8987 236.187 48.0234L193.962 73.0001C193.586 73.2213 193.266 73.0643 193.266 72.6433C193.285 72.4072 193.359 72.1791 193.479 71.9771C193.6 71.7752 193.765 71.605 193.962 71.4801Z" fill="#FAFAFA"/>
<path d="M193.962 76.0402L236.187 51.0635C236.57 50.8423 236.883 50.9993 236.883 51.4203C236.867 51.6573 236.795 51.8868 236.674 52.0892C236.553 52.2917 236.386 52.4613 236.187 52.5835L193.962 77.5602C193.586 77.7815 193.266 77.6245 193.266 77.2034C193.284 76.9669 193.356 76.7381 193.477 76.5359C193.598 76.3337 193.764 76.1638 193.962 76.0402Z" fill="#FAFAFA"/>
<path d="M193.962 80.5929L236.187 55.6162C236.57 55.3878 236.883 55.5519 236.883 55.9658C236.867 56.2028 236.795 56.4323 236.674 56.6348C236.553 56.8373 236.386 57.0068 236.187 57.129L193.962 82.1415C193.586 82.3627 193.266 82.2057 193.266 81.7846C193.281 81.5436 193.352 81.3097 193.473 81.1025C193.594 80.8952 193.762 80.7205 193.962 80.5929Z" fill="#FAFAFA"/>
<path d="M195.555 93.3385L198.497 91.5901C199.096 91.2333 199.589 91.5259 199.589 92.2395V95.722C199.569 96.1118 199.459 96.4912 199.27 96.8297C199.08 97.1681 198.815 97.456 198.497 97.6702L195.555 99.4114C194.949 99.7682 194.463 99.4757 194.463 98.762V95.2796C194.482 94.8906 194.592 94.512 194.782 94.1746C194.971 93.8372 195.236 93.5507 195.555 93.3385Z" fill="#FFB700"/>
<path d="M203.52 90.1341L221.301 79.6011C222.059 79.1587 222.692 79.4726 222.692 80.3147C222.656 80.7878 222.511 81.2454 222.269 81.6498C222.027 82.0543 221.695 82.394 221.301 82.6411L203.52 93.1742C202.762 93.6166 202.129 93.3026 202.129 92.4605C202.165 91.9878 202.311 91.5306 202.553 91.1264C202.794 90.7221 203.126 90.3821 203.52 90.1341Z" fill="#455A64"/>
<path d="M195.144 104.214L239.937 77.6812C240.313 77.4599 240.633 77.6169 240.633 78.038C240.615 78.2745 240.542 78.5033 240.421 78.7055C240.3 78.9077 240.134 79.0776 239.937 79.2012L195.144 105.734C194.769 105.955 194.449 105.798 194.449 105.377C194.468 105.141 194.541 104.913 194.662 104.711C194.783 104.509 194.948 104.338 195.144 104.214Z" fill="#455A64"/>
<path d="M195.144 108.774L239.937 82.2416C240.313 82.0133 240.633 82.1703 240.633 82.5913C240.615 82.8278 240.542 83.0566 240.421 83.2588C240.3 83.461 240.134 83.6309 239.937 83.7545L195.144 110.287C194.769 110.515 194.449 110.358 194.449 109.937C194.467 109.701 194.539 109.472 194.66 109.27C194.781 109.067 194.947 108.898 195.144 108.774Z" fill="#455A64"/>
<path d="M195.144 113.327L239.937 86.7944C240.313 86.5732 240.633 86.7302 240.633 87.1513C240.613 87.3873 240.54 87.6155 240.419 87.8174C240.299 88.0194 240.133 88.1896 239.937 88.3145L195.144 114.847C194.769 115.068 194.449 114.911 194.449 114.49C194.467 114.254 194.539 114.025 194.66 113.823C194.781 113.62 194.947 113.45 195.144 113.327Z" fill="#455A64"/>
<path d="M195.144 117.894L239.937 91.3618C240.313 91.1406 240.633 91.2976 240.633 91.7186C240.615 91.9552 240.542 92.184 240.421 92.3862C240.3 92.5884 240.134 92.7583 239.937 92.8818L195.144 119.414C194.769 119.643 194.449 119.478 194.449 119.065C194.467 118.827 194.54 118.598 194.661 118.394C194.781 118.191 194.947 118.02 195.144 117.894Z" fill="#455A64"/>
<path d="M195.555 126.75L198.497 125.009C199.096 124.652 199.589 124.938 199.589 125.651V129.141C199.568 129.53 199.458 129.908 199.268 130.245C199.079 130.582 198.815 130.868 198.497 131.082L195.555 132.823C194.949 133.18 194.463 132.895 194.463 132.174V128.691C194.482 128.302 194.592 127.924 194.782 127.586C194.971 127.249 195.236 126.963 195.555 126.75Z" fill="#FFB700"/>
<path d="M203.52 123.546L221.301 113.02C222.059 112.57 222.692 112.891 222.692 113.733C222.658 114.207 222.514 114.665 222.272 115.07C222.03 115.475 221.697 115.814 221.301 116.06L203.52 126.593C202.762 127.042 202.129 126.721 202.129 125.879C202.164 125.405 202.309 124.947 202.551 124.541C202.793 124.135 203.125 123.794 203.52 123.546Z" fill="#455A64"/>
<path d="M195.144 137.626L239.937 111.094C240.313 110.873 240.633 111.03 240.633 111.451C240.615 111.687 240.542 111.916 240.421 112.118C240.3 112.32 240.134 112.49 239.937 112.614L195.144 139.146C194.769 139.375 194.449 139.21 194.449 138.797C194.467 138.559 194.54 138.33 194.661 138.126C194.781 137.923 194.947 137.752 195.144 137.626Z" fill="#455A64"/>
<path d="M195.144 142.186L239.937 115.653C240.313 115.425 240.633 115.589 240.633 116.003C240.614 116.24 240.542 116.47 240.421 116.673C240.3 116.876 240.134 117.048 239.937 117.173L195.144 143.706C194.769 143.927 194.449 143.77 194.449 143.349C194.467 143.112 194.539 142.884 194.66 142.681C194.781 142.479 194.947 142.309 195.144 142.186Z" fill="#455A64"/>
<path d="M195.144 146.738L239.937 120.206C240.313 119.985 240.633 120.142 240.633 120.563C240.615 120.799 240.542 121.028 240.421 121.23C240.3 121.433 240.134 121.603 239.937 121.726L195.144 148.244C194.769 148.473 194.449 148.308 194.449 147.887C194.47 147.654 194.544 147.429 194.665 147.229C194.786 147.03 194.95 146.862 195.144 146.738Z" fill="#455A64"/>
<path d="M195.144 151.313L239.937 124.78C240.313 124.552 240.633 124.709 240.633 125.13C240.615 125.366 240.542 125.595 240.421 125.797C240.3 126 240.134 126.17 239.937 126.293L195.144 152.826C194.769 153.054 194.449 152.897 194.449 152.476C194.467 152.239 194.539 152.01 194.66 151.808C194.781 151.606 194.947 151.436 195.144 151.313Z" fill="#455A64"/>
<path d="M199.742 157.971L202.685 156.229C203.29 155.872 203.777 156.165 203.777 156.879V160.375C203.757 160.764 203.648 161.143 203.458 161.48C203.268 161.818 203.003 162.104 202.685 162.316L199.742 164.065C199.137 164.422 198.65 164.129 198.65 163.415V159.926C198.668 159.534 198.776 159.153 198.966 158.813C199.156 158.473 199.422 158.184 199.742 157.971Z" fill="#FFB700"/>
<path d="M195.144 169.81L207.283 162.623C207.659 162.395 207.979 162.559 207.979 162.973C207.961 163.21 207.889 163.438 207.768 163.641C207.647 163.843 207.481 164.013 207.283 164.136L195.144 171.33C194.769 171.551 194.449 171.394 194.449 170.973C194.467 170.736 194.539 170.508 194.66 170.305C194.781 170.103 194.947 169.933 195.144 169.81Z" fill="#455A64"/>
<path d="M216.069 148.295L219.012 146.553C219.617 146.197 220.104 146.482 220.104 147.203V150.685C220.084 151.074 219.975 151.453 219.785 151.79C219.595 152.128 219.33 152.414 219.012 152.626L216.069 154.367C215.464 154.731 214.977 154.439 214.977 153.725V150.236C214.997 149.847 215.106 149.468 215.296 149.131C215.486 148.793 215.751 148.507 216.069 148.295Z" fill="#FFB700"/>
<path d="M211.471 160.133L223.61 152.947C223.986 152.718 224.306 152.883 224.306 153.296C224.288 153.533 224.215 153.762 224.094 153.964C223.974 154.166 223.808 154.336 223.61 154.46L211.471 161.653C211.095 161.874 210.775 161.717 210.775 161.296C210.793 161.06 210.866 160.831 210.987 160.629C211.108 160.426 211.274 160.256 211.471 160.133Z" fill="#455A64"/>
<path d="M232.396 138.617L235.339 136.876C235.944 136.519 236.431 136.805 236.431 137.525V141.008C236.411 141.397 236.302 141.776 236.112 142.113C235.922 142.45 235.657 142.737 235.339 142.949L232.396 144.676C231.791 145.033 231.304 144.747 231.304 144.034V140.544C231.326 140.158 231.436 139.782 231.626 139.447C231.816 139.112 232.08 138.828 232.396 138.617Z" fill="#FFB700"/>
<path d="M227.798 150.456L239.937 143.248C240.313 143.02 240.633 143.177 240.633 143.598C240.615 143.835 240.542 144.063 240.421 144.266C240.3 144.468 240.134 144.638 239.937 144.761L227.798 151.955C227.422 152.176 227.102 152.019 227.102 151.598C227.123 151.365 227.197 151.141 227.318 150.942C227.439 150.744 227.603 150.577 227.798 150.456Z" fill="#455A64"/>
<path d="M195.144 172.778L207.283 165.584C207.659 165.363 207.979 165.52 207.979 165.941C207.961 166.178 207.889 166.407 207.768 166.609C207.647 166.811 207.481 166.981 207.283 167.105L195.144 174.291C194.769 174.519 194.449 174.362 194.449 173.941C194.467 173.704 194.539 173.476 194.66 173.273C194.781 173.071 194.947 172.901 195.144 172.778Z" fill="#455A64"/>
<path d="M211.471 163.102L223.61 155.908C223.986 155.687 224.306 155.844 224.306 156.265C224.288 156.502 224.215 156.73 224.094 156.933C223.974 157.135 223.808 157.305 223.61 157.428L211.471 164.614C211.095 164.843 210.775 164.679 210.775 164.265C210.793 164.028 210.866 163.799 210.987 163.597C211.108 163.395 211.274 163.225 211.471 163.102Z" fill="#455A64"/>
<path d="M227.798 153.418L239.937 146.232C240.313 146.011 240.633 146.168 240.633 146.589C240.615 146.825 240.542 147.054 240.421 147.256C240.3 147.459 240.134 147.628 239.937 147.752L227.798 154.938C227.422 155.166 227.102 155.002 227.102 154.588C227.121 154.351 227.193 154.122 227.314 153.918C227.435 153.715 227.601 153.544 227.798 153.418Z" fill="#455A64"/>
<path d="M195.144 175.74L207.283 168.554C207.659 168.333 207.979 168.489 207.979 168.911C207.959 169.147 207.886 169.375 207.766 169.577C207.645 169.779 207.48 169.949 207.283 170.074L195.144 177.26C194.769 177.481 194.449 177.324 194.449 176.903C194.468 176.667 194.541 176.439 194.662 176.237C194.783 176.035 194.948 175.865 195.144 175.74Z" fill="#455A64"/>
<path d="M211.471 166.085L223.61 158.899C223.986 158.678 224.306 158.835 224.306 159.256C224.286 159.492 224.213 159.72 224.092 159.922C223.972 160.124 223.806 160.294 223.61 160.419L211.471 167.584C211.095 167.805 210.775 167.648 210.775 167.227C210.798 166.994 210.872 166.77 210.993 166.572C211.113 166.374 211.277 166.207 211.471 166.085Z" fill="#455A64"/>
<path d="M227.798 156.386L239.937 149.2C240.313 148.972 240.633 149.136 240.633 149.55C240.614 149.787 240.542 150.017 240.421 150.22C240.3 150.423 240.134 150.595 239.937 150.72L227.798 157.906C227.422 158.128 227.102 157.971 227.102 157.55C227.12 157.313 227.193 157.084 227.314 156.882C227.435 156.68 227.601 156.51 227.798 156.386Z" fill="#455A64"/>
<path d="M199.742 182.919L202.685 181.17C203.29 180.813 203.777 181.106 203.777 181.82V185.309C203.757 185.698 203.648 186.077 203.458 186.414C203.268 186.752 203.003 187.038 202.685 187.25L199.742 188.992C199.137 189.348 198.65 189.056 198.65 188.342V184.86C198.67 184.471 198.779 184.092 198.969 183.755C199.159 183.417 199.424 183.131 199.742 182.919Z" fill="#FFB700"/>
<path d="M195.144 194.75L207.283 187.564C207.659 187.343 207.979 187.5 207.979 187.921C207.961 188.157 207.889 188.386 207.768 188.588C207.647 188.791 207.481 188.96 207.283 189.084L195.144 196.27C194.769 196.498 194.449 196.334 194.449 195.92C194.467 195.683 194.54 195.454 194.661 195.25C194.781 195.047 194.947 194.876 195.144 194.75Z" fill="#455A64"/>
<path d="M216.069 173.221L219.012 171.473C219.617 171.116 220.104 171.409 220.104 172.122V175.605C220.085 175.995 219.976 176.375 219.786 176.713C219.596 177.052 219.331 177.34 219.012 177.553L216.069 179.294C215.464 179.651 214.977 179.358 214.977 178.645V175.162C214.997 174.773 215.106 174.395 215.296 174.057C215.486 173.72 215.751 173.434 216.069 173.221Z" fill="#FFB700"/>
<path d="M211.471 185.074L223.61 177.888C223.986 177.666 224.306 177.823 224.306 178.245C224.287 178.481 224.214 178.709 224.093 178.911C223.972 179.113 223.807 179.283 223.61 179.408L211.471 186.594C211.095 186.815 210.775 186.658 210.775 186.237C210.795 186.001 210.868 185.773 210.989 185.571C211.11 185.369 211.275 185.199 211.471 185.074Z" fill="#455A64"/>
<path d="M232.396 163.558L235.339 161.817C235.944 161.46 236.431 161.753 236.431 162.467V165.949C236.411 166.339 236.302 166.719 236.112 167.057C235.922 167.396 235.657 167.683 235.339 167.897L232.396 169.653C231.791 170.01 231.304 169.717 231.304 169.003V165.521C231.322 165.128 231.43 164.746 231.62 164.405C231.81 164.064 232.076 163.774 232.396 163.558Z" fill="#FFB700"/>
<path d="M227.798 175.398L239.937 168.226C240.313 168.005 240.633 168.162 240.633 168.583C240.613 168.819 240.54 169.047 240.419 169.249C240.298 169.451 240.133 169.621 239.937 169.746L227.798 176.932C227.422 177.153 227.102 176.996 227.102 176.575C227.12 176.337 227.192 176.106 227.313 175.901C227.434 175.697 227.6 175.524 227.798 175.398Z" fill="#455A64"/>
<path d="M195.144 197.719L207.283 190.533C207.659 190.305 207.979 190.469 207.979 190.883C207.96 191.12 207.888 191.35 207.767 191.553C207.646 191.756 207.481 191.928 207.283 192.053L195.144 199.239C194.769 199.461 194.449 199.304 194.449 198.883C194.467 198.646 194.539 198.417 194.66 198.215C194.781 198.013 194.947 197.843 195.144 197.719Z" fill="#455A64"/>
<path d="M211.471 188.043L223.61 180.857C223.986 180.629 224.306 180.793 224.306 181.207C224.288 181.443 224.215 181.672 224.094 181.874C223.974 182.076 223.808 182.246 223.61 182.37L211.471 189.563C211.095 189.784 210.775 189.627 210.775 189.206C210.793 188.97 210.866 188.741 210.987 188.539C211.108 188.336 211.274 188.167 211.471 188.043Z" fill="#455A64"/>
<path d="M227.798 178.366L239.937 171.18C240.313 170.951 240.633 171.115 240.633 171.529C240.615 171.766 240.542 171.995 240.421 172.197C240.3 172.399 240.134 172.569 239.937 172.693L227.798 179.886C227.422 180.107 227.102 179.95 227.102 179.529C227.12 179.292 227.193 179.064 227.314 178.861C227.435 178.659 227.601 178.489 227.798 178.366Z" fill="#455A64"/>
<path d="M195.144 200.688L207.283 193.495C207.659 193.273 207.979 193.43 207.979 193.851C207.961 194.088 207.889 194.317 207.768 194.519C207.647 194.721 207.481 194.891 207.283 195.015L195.144 202.208C194.769 202.429 194.449 202.272 194.449 201.851C194.467 201.615 194.539 201.386 194.66 201.184C194.781 200.981 194.947 200.811 195.144 200.688Z" fill="#455A64"/>
<path d="M211.471 191.012L223.61 183.818C223.986 183.597 224.306 183.754 224.306 184.175C224.288 184.412 224.215 184.64 224.094 184.843C223.974 185.045 223.808 185.215 223.61 185.338L211.471 192.525C211.095 192.753 210.775 192.596 210.775 192.175C210.793 191.938 210.866 191.71 210.987 191.507C211.108 191.305 211.274 191.135 211.471 191.012Z" fill="#455A64"/>
<path d="M227.798 181.335L239.937 174.142C240.313 173.92 240.633 174.077 240.633 174.498C240.615 174.735 240.542 174.964 240.421 175.166C240.3 175.368 240.134 175.538 239.937 175.662L227.798 182.848C227.422 183.076 227.102 182.912 227.102 182.498C227.12 182.262 227.193 182.033 227.314 181.831C227.435 181.628 227.601 181.458 227.798 181.335Z" fill="#455A64"/>
<path d="M167.638 73.4431C174.734 69.2399 180.487 72.651 180.487 81.0575C180.487 89.4639 174.734 99.6901 167.638 103.893C160.543 108.097 154.783 104.685 154.783 96.279C154.783 87.8726 160.536 77.6464 167.638 73.4431Z" fill="#E0E0E0"/>
<path d="M167.638 80.0646C169.941 78.6944 171.812 79.8005 171.812 82.5337C171.734 84.0182 171.315 85.4627 170.589 86.7498C169.864 88.0369 168.853 89.1303 167.638 89.9411C165.336 91.3041 163.464 90.198 163.464 87.4719C163.543 85.9874 163.962 84.5429 164.687 83.2558C165.413 81.9687 166.424 80.8753 167.638 80.0646Z" fill="#FAFAFA"/>
<path d="M175.763 94.6085C175.763 90.127 172.696 88.3072 168.911 90.548L166.546 91.9752C162.762 94.216 159.701 99.6681 159.701 104.15V105.356C161.885 106.069 164.64 105.698 167.638 103.928C170.925 101.851 173.705 99.0291 175.763 95.6789V94.6085Z" fill="#FAFAFA"/>
<path d="M160.028 125.544L177.809 115.011C178.56 114.568 179.2 114.882 179.2 115.724C179.162 116.197 179.017 116.654 178.775 117.058C178.534 117.462 178.202 117.802 177.809 118.051L160.028 128.584C159.27 129.026 158.637 128.712 158.637 127.87C158.674 127.397 158.819 126.94 159.061 126.536C159.302 126.132 159.634 125.792 160.028 125.544Z" fill="#E0E0E0"/>
</svg>
