<svg width="512" height="491" viewBox="0 0 512 491" fill="none" xmlns="http://www.w3.org/2000/svg">
<path d="M91.9347 329.539C101.151 315.949 102.021 299.225 90.9107 286.93C87.4701 283.12 80.4966 277.111 75.2537 277.543C70.0109 277.975 65.577 282.394 63.9898 287.313C62.4026 292.233 62.9658 297.556 63.8771 302.633C65.2186 309.742 67.4714 317.019 72.6118 322.273C77.7523 327.526 85.3094 332.986 91.9245 329.52" fill="#4D7B4C"/>
<path d="M86.8044 394.951C88.469 390.998 88.7941 386.642 87.7336 382.502C86.6732 378.362 84.2809 374.647 80.8959 371.884C78.766 370.224 75.9807 368.938 73.3183 369.605C70.6559 370.273 68.7922 372.944 68.4134 375.625C68.2011 378.329 68.6791 381.043 69.806 383.53C71.1679 387.075 73.0111 390.62 76.165 392.898C79.319 395.177 83.7222 397.307 86.7942 394.951" fill="#4D7B4C"/>
<path d="M109.148 390.286C108.003 384.215 108.879 377.953 111.653 372.387C114.426 366.821 118.956 362.233 124.6 359.274C128.123 357.507 132.475 356.466 136.028 358.174C139.581 359.883 141.425 364.184 141.148 368.083C140.872 371.981 138.906 375.575 136.745 378.885C133.724 383.52 130.017 388.037 124.856 390.374C119.695 392.711 112.804 394.489 109.158 390.276" fill="#4D7B4C"/>
<path d="M107.52 357.703C103.086 343.955 110.592 327.33 123.146 319.454C127.037 317.009 131.963 315.31 136.315 316.901C140.667 318.492 143.319 323.284 143.483 327.85C143.647 332.417 141.783 336.816 139.684 340.921C136.735 346.656 132.976 352.322 127.263 355.651C121.549 358.98 112.292 362.24 107.54 357.742" fill="#4D7B4C"/>
<path d="M98.6318 424.803C98.7073 424.59 98.7588 424.369 98.7854 424.145C98.8571 423.645 98.9595 423.006 99.0823 422.23C99.1438 421.798 99.2052 421.337 99.2769 420.846C99.3486 420.355 99.4919 419.795 99.6046 419.206C99.8401 418.037 100.086 416.702 100.485 415.278C100.67 414.551 100.854 413.785 101.059 412.99C101.263 412.194 101.55 411.389 101.806 410.545C102.287 408.836 102.994 407.078 103.649 405.193C106.777 397.117 111.046 389.491 116.337 382.528C117.607 380.967 118.743 379.425 119.962 378.099L121.672 376.135L123.341 374.407C124.365 373.278 125.389 372.355 126.3 371.52L127.539 370.351L128.635 369.428L130.13 368.132C130.31 367.985 130.478 367.824 130.632 367.651C130.423 367.757 130.23 367.889 130.058 368.044L128.481 369.232L127.345 370.126L126.075 371.265C125.153 372.08 124.099 372.993 123.003 374.103L121.293 375.811L119.542 377.775C118.303 379.091 117.146 380.623 115.855 382.194C110.478 389.165 106.181 396.845 103.096 404.996C102.441 406.882 101.755 408.669 101.294 410.388C101.048 411.242 100.803 412.067 100.577 412.852C100.352 413.638 100.209 414.433 100.035 415.17C99.6558 416.633 99.4407 417.978 99.2462 419.167C99.1438 419.746 99.0516 420.296 98.9595 420.807C98.8673 421.317 98.8571 421.789 98.8161 422.211C98.7342 422.996 98.6727 423.635 98.6318 424.175C98.6084 424.384 98.6084 424.594 98.6318 424.803Z" fill="#263238"/>
<path d="M98.9591 427.268C98.9727 427.18 98.9727 427.091 98.9591 427.003C98.9591 426.787 98.9386 426.522 98.8977 426.208C98.826 425.461 98.7338 424.44 98.6109 423.154C98.5393 422.486 98.4676 421.749 98.3857 420.954C98.3037 420.159 98.3037 419.314 98.2423 418.332C98.1706 416.447 97.9863 414.306 98.0477 411.929C98.0477 410.741 98.0477 409.494 98.0477 408.198C98.0477 406.902 98.1911 405.556 98.2628 404.162C98.3549 401.373 98.7543 398.407 99.1025 395.324C100.059 388.579 101.527 381.91 103.495 375.37C105.559 368.85 108.122 362.485 111.165 356.329C112.64 353.53 113.991 350.839 115.497 348.473C116.234 347.274 116.889 346.076 117.616 344.986L119.726 341.844C121.016 339.821 122.388 338.122 123.525 336.581C124.109 335.815 124.621 335.088 125.133 334.45L126.576 332.721C127.406 331.739 128.071 330.905 128.553 330.315L129.054 329.677C129.117 329.608 129.172 329.532 129.218 329.451C129.218 329.451 129.136 329.51 129.013 329.638L128.461 330.237L126.413 332.574L124.928 334.194C124.395 334.833 123.904 335.549 123.269 336.306C122.112 337.837 120.709 339.517 119.388 341.54L117.237 344.672C116.5 345.762 115.835 346.95 115.087 348.158C113.551 350.545 112.179 353.245 110.684 356.014C104.418 368.337 100.325 381.57 98.57 395.176C98.2321 398.319 97.8532 401.294 97.7815 404.093C97.7201 405.497 97.6074 406.852 97.6074 408.149C97.6074 409.445 97.6074 410.702 97.6074 411.89C97.6074 414.276 97.7815 416.427 97.8839 418.312C97.9556 419.294 97.9965 420.139 98.0682 420.944C98.1399 421.749 98.273 422.476 98.3549 423.144L98.7645 426.188C98.7645 426.502 98.8465 426.767 98.8772 426.974C98.8858 427.076 98.9136 427.176 98.9591 427.268Z" fill="#263238"/>
<path d="M74.8442 293.952C74.869 294.041 74.9069 294.127 74.9569 294.207L75.3562 294.924C75.7454 295.582 76.2778 296.485 76.9434 297.634C77.2814 298.223 77.691 298.862 78.0903 299.598C78.4897 300.335 78.8788 301.14 79.3294 301.994L80.7527 304.734C81.234 305.716 81.6948 306.777 82.2068 307.876C82.7188 308.976 83.2308 310.135 83.7735 311.353L85.3095 315.173L86.1185 317.186L86.866 319.297C87.3678 320.731 87.89 322.243 88.4122 323.706C90.3783 329.804 92.242 336.58 93.8087 343.788C95.3754 350.996 96.3994 357.939 97.1879 364.273C97.9764 370.607 98.3655 376.341 98.4986 381.163C98.6318 383.569 98.6522 385.759 98.6625 387.674C98.6727 389.589 98.6625 391.238 98.6625 392.584C98.6625 393.929 98.6625 394.941 98.6625 395.697V396.502C98.6532 396.593 98.6532 396.685 98.6625 396.777C98.6799 396.689 98.6799 396.599 98.6625 396.512C98.6625 396.296 98.6625 396.021 98.7239 395.697C98.7239 394.941 98.8161 393.909 98.8775 392.594C98.939 391.278 98.9902 389.589 98.9902 387.684C98.9902 385.778 98.9902 383.579 98.9185 381.163C98.8366 376.322 98.386 370.587 97.7409 364.224C97.0958 357.86 95.9284 350.898 94.4026 343.7C92.8769 336.502 90.9518 329.677 88.955 323.579L87.3678 319.15L86.61 317.038C86.3233 316.351 86.057 315.674 85.7806 315.016C85.2378 313.69 84.7566 312.413 84.2036 311.186C83.6506 309.958 83.1079 308.829 82.5959 307.719C82.0839 306.61 81.5719 305.559 81.1009 304.587L79.6263 301.857L78.3361 299.51C77.9265 298.783 77.5066 298.155 77.1482 297.546L75.4689 294.885L75.0183 294.207C74.9703 294.116 74.9119 294.03 74.8442 293.952Z" fill="#263238"/>
<path d="M77.9878 377.343C78.2817 377.922 78.6241 378.477 79.0118 379.003C79.6876 380.044 80.6195 381.576 81.7049 383.5C82.7903 385.425 83.9987 387.752 85.2172 390.374C86.4358 392.996 87.5827 396.011 88.6169 399.212C89.5724 402.212 90.3653 405.257 90.9926 408.335C91.5455 411.183 91.9449 413.756 92.1599 415.936C92.375 418.116 92.5286 419.864 92.5798 421.111C92.5804 421.746 92.6318 422.379 92.7334 423.006C92.8215 422.375 92.8489 421.737 92.8153 421.101C92.8153 419.874 92.8153 418.096 92.59 415.897C92.3647 413.697 92.078 411.104 91.566 408.237C90.9589 405.131 90.1761 402.06 89.2211 399.036C88.2333 396.031 87.0745 393.081 85.7497 390.198C84.5004 387.546 83.2511 385.209 82.1043 383.324C80.9574 381.438 79.9641 379.916 79.2268 378.914C78.8621 378.357 78.4475 377.832 77.9878 377.343Z" fill="#263238"/>
<path d="M116.828 418.686H76.1343L81.0597 458.555H111.759L116.828 418.686Z" fill="#455A64"/>
<path d="M115.343 454.253L111.892 458.555H81.0596L77.5063 454.391L115.343 454.253Z" fill="#263238"/>
<path d="M77.7217 430.411C77.7217 430.578 86.1697 430.705 96.5838 430.705C106.998 430.705 115.446 430.578 115.446 430.411C115.446 430.244 106.998 430.126 96.5838 430.126C86.1697 430.126 77.7217 430.254 77.7217 430.411Z" fill="#FAFAFA"/>
<path d="M77.7217 433.062C77.7217 433.219 86.1697 433.347 96.5838 433.347C106.998 433.347 115.446 433.219 115.446 433.062C115.446 432.905 106.998 432.768 96.5838 432.768C86.1697 432.768 77.7217 432.905 77.7217 433.062Z" fill="#FAFAFA"/>
<path d="M78.2231 435.635C78.2231 435.802 86.4151 435.93 96.4299 435.93C106.445 435.93 114.637 435.802 114.637 435.635C114.637 435.468 106.445 435.35 96.4299 435.35C86.4151 435.35 78.2231 435.478 78.2231 435.635Z" fill="#FAFAFA"/>
<path d="M253.973 103.365H140.524V171.477H253.973V103.365Z" fill="white"/>
<path d="M253.952 171.477C253.952 171.477 253.952 171.045 253.952 170.239C253.952 169.434 253.952 168.216 253.952 166.655C253.952 163.503 253.952 158.887 253.901 152.986C253.901 141.202 253.839 124.164 253.788 103.365L254.003 103.562L140.554 103.621L140.821 103.365C140.821 127.513 140.821 150.501 140.821 171.477L140.575 171.241L222.208 171.349L245.617 171.418H251.853H253.461H254.024H253.491H251.904H245.76L222.413 171.487L140.616 171.604H140.288V171.369C140.288 150.423 140.288 127.405 140.288 103.257V103.11H140.554L254.003 103.169H254.208V103.365C254.208 124.213 254.126 141.261 254.095 153.103C254.095 158.995 254.095 163.591 254.044 166.734C254.044 168.275 254.044 169.464 254.044 170.279C254.044 171.094 253.952 171.477 253.952 171.477Z" fill="#FFC100"/>
<path d="M241.07 111.997H208.568V143.166H241.07V111.997Z" fill="#FFC100"/>
<path d="M236.626 147.555C236.626 147.624 231.332 147.683 224.809 147.683C218.286 147.683 213.002 147.624 213.002 147.555C213.002 147.487 218.286 147.418 224.809 147.418C231.332 147.418 236.626 147.477 236.626 147.555Z" fill="#FFC100"/>
<path d="M243.712 150.128C243.712 150.207 235.254 150.266 224.84 150.266C214.426 150.266 205.958 150.207 205.958 150.128C205.958 150.05 214.406 150 224.84 150C235.275 150 243.712 150.059 243.712 150.128Z" fill="#FFC100"/>
<path d="M243.712 153.29C243.712 153.369 235.254 153.428 224.84 153.428C214.426 153.428 205.958 153.369 205.958 153.29C205.958 153.212 214.406 153.163 224.84 153.163C235.275 153.163 243.712 153.192 243.712 153.29Z" fill="#FFC100"/>
<path d="M243.712 156.462C243.712 156.531 235.254 156.59 224.84 156.59C214.426 156.59 205.958 156.531 205.958 156.462C205.958 156.393 214.406 156.325 224.84 156.325C235.275 156.325 243.712 156.384 243.712 156.462Z" fill="#FFC100"/>
<path d="M243.712 159.624C243.712 159.693 235.254 159.751 224.84 159.751C214.426 159.751 205.958 159.693 205.958 159.624C205.958 159.555 214.406 159.486 224.84 159.486C235.275 159.486 243.712 159.545 243.712 159.624Z" fill="#FFC100"/>
<path d="M243.712 162.786C243.712 162.855 235.254 162.914 224.84 162.914C214.426 162.914 205.958 162.855 205.958 162.786C205.958 162.717 214.406 162.658 224.84 162.658C235.275 162.658 243.712 162.717 243.712 162.786Z" fill="#FFC100"/>
<path d="M186.501 111.997H154V143.166H186.501V111.997Z" fill="#FFC100"/>
<g opacity="0.8">
<path d="M186.501 111.997H154V143.166H186.501V111.997Z" fill="white"/>
</g>
<path d="M182.057 147.555C182.057 147.624 176.773 147.683 170.251 147.683C163.728 147.683 158.444 147.624 158.444 147.555C158.444 147.487 163.728 147.418 170.251 147.418C176.773 147.418 182.057 147.477 182.057 147.555Z" fill="#FFC100"/>
<path d="M189.123 150.128C189.123 150.207 180.675 150.266 170.25 150.266C159.826 150.266 151.368 150.207 151.368 150.128C151.368 150.05 159.826 150 170.25 150C180.675 150 189.123 150.059 189.123 150.128Z" fill="#FFC100"/>
<path d="M189.123 153.29C189.123 153.369 180.675 153.428 170.25 153.428C159.826 153.428 151.368 153.369 151.368 153.29C151.368 153.212 159.826 153.163 170.25 153.163C180.675 153.163 189.123 153.192 189.123 153.29Z" fill="#FFC100"/>
<path d="M189.123 156.462C189.123 156.531 180.675 156.59 170.25 156.59C159.826 156.59 151.368 156.531 151.368 156.462C151.368 156.393 159.826 156.325 170.25 156.325C180.675 156.325 189.123 156.384 189.123 156.462Z" fill="#FFC100"/>
<path d="M189.123 159.624C189.123 159.693 180.675 159.751 170.25 159.751C159.826 159.751 151.368 159.693 151.368 159.624C151.368 159.555 159.826 159.486 170.25 159.486C180.675 159.486 189.123 159.545 189.123 159.624Z" fill="#FFC100"/>
<path d="M189.123 162.786C189.123 162.855 180.675 162.914 170.25 162.914C159.826 162.914 151.368 162.855 151.368 162.786C151.368 162.717 159.826 162.658 170.25 162.658C180.675 162.658 189.123 162.717 189.123 162.786Z" fill="#FFC100"/>
<g opacity="0.8">
<path d="M241.07 111.997H208.568V143.166H241.07V111.997Z" fill="white"/>
</g>
<path d="M240.313 132.344L240.149 132.216L239.678 131.804L237.947 130.223L231.875 124.606H232.049L225.813 131.411L225.567 131.676L225.475 131.775L225.373 131.696L221.522 128.642H221.696L213.279 135.85L210.811 137.932L210.135 138.482L209.9 138.658C209.9 138.658 209.961 138.58 210.105 138.442L210.75 137.863L213.166 135.732L221.522 128.455L221.604 128.377L221.696 128.446C222.915 129.428 224.205 130.41 225.547 131.49H225.352L225.608 131.215L231.865 124.429L231.947 124.341L232.039 124.429L238.05 130.115L239.739 131.745L240.169 132.177C240.272 132.285 240.323 132.344 240.313 132.344Z" fill="#FFC100"/>
<path d="M219.781 122.004C219.781 122.004 219.607 121.748 219.228 121.385C218.673 120.865 217.952 120.54 217.18 120.462C216.738 120.41 216.289 120.443 215.861 120.559C215.432 120.675 215.031 120.872 214.682 121.138C214.333 121.404 214.043 121.734 213.829 122.108C213.614 122.483 213.48 122.895 213.433 123.32C213.352 124.002 213.503 124.69 213.863 125.284C214.222 125.871 214.762 126.338 215.409 126.619C216.013 126.876 216.683 126.955 217.334 126.845C217.887 126.754 218.409 126.532 218.85 126.199C219.292 125.867 219.64 125.434 219.863 124.94C220.169 124.262 220.231 123.505 220.037 122.789C219.904 122.288 219.73 122.033 219.761 122.023C219.792 122.013 219.812 122.082 219.884 122.2C219.996 122.374 220.082 122.563 220.14 122.76C220.383 123.497 220.35 124.292 220.048 125.009C219.793 125.603 219.37 126.117 218.826 126.493C218.283 126.868 217.64 127.09 216.971 127.133C216.303 127.176 215.635 127.039 215.044 126.736C214.453 126.433 213.962 125.978 213.627 125.421C213.288 124.866 213.119 124.23 213.139 123.587C213.159 122.944 213.368 122.32 213.741 121.785C214.113 121.25 214.636 120.827 215.248 120.563C215.859 120.3 216.536 120.207 217.201 120.295C217.988 120.406 218.711 120.774 219.249 121.336C219.398 121.485 219.529 121.649 219.638 121.827C219.761 121.935 219.792 121.994 219.781 122.004Z" fill="#FFC100"/>
<path d="M240.968 274.96C240.968 274.96 240.968 274.793 240.968 274.488C240.968 274.184 240.968 273.722 240.968 273.172C240.968 271.984 240.968 270.325 240.907 268.262C240.907 263.981 240.835 257.932 240.784 250.645L241.019 250.871L209.326 250.92L209.613 250.645V263.411C209.613 267.496 209.613 271.385 209.613 275.009L209.357 274.763L232.192 274.891L238.695 274.95H240.435H241.05C240.866 274.964 240.681 274.964 240.497 274.95H238.807L232.356 275.019L209.357 275.136H209.101V274.96C209.101 271.336 209.101 267.447 209.101 263.362V250.596L209.388 250.321H241.081H241.326V250.557C241.275 257.902 241.234 264.001 241.203 268.312C241.203 270.393 241.152 272.043 241.142 273.222C241.142 273.745 241.142 274.168 241.142 274.488C241.104 274.651 241.045 274.81 240.968 274.96Z" fill="#FFC100"/>
<path d="M236.923 266.063C236.215 265.566 235.551 265.014 234.937 264.413C233.718 263.333 232.008 261.772 229.98 259.906H230.4L225.28 265.405L225.075 265.631L224.891 265.827L224.676 265.66L221.604 263.186H221.973C219.228 265.533 216.853 267.546 215.112 268.97L213.064 270.619C212.833 270.834 212.57 271.016 212.286 271.159C212.474 270.909 212.695 270.681 212.941 270.482L214.856 268.714C216.515 267.231 218.86 265.159 221.584 262.822L221.758 262.675L221.942 262.822L225.065 265.277H224.666L224.871 265.051L229.939 259.582L230.124 259.385L230.318 259.562C232.305 261.467 233.974 263.078 235.131 264.217C235.776 264.788 236.375 265.405 236.923 266.063Z" fill="#FFC100"/>
<path d="M220.304 257.696C220.304 257.696 220.129 257.519 219.802 257.245C219.361 256.857 218.8 256.619 218.204 256.567C217.776 256.528 217.344 256.59 216.946 256.747C216.548 256.904 216.196 257.153 215.921 257.47C215.689 257.744 215.52 258.061 215.427 258.402C215.333 258.743 215.317 259.099 215.379 259.447C215.442 259.794 215.581 260.124 215.788 260.416C215.995 260.707 216.265 260.952 216.579 261.135C216.893 261.318 217.244 261.434 217.609 261.476C217.974 261.518 218.344 261.484 218.694 261.376C219.045 261.269 219.367 261.091 219.639 260.854C219.911 260.618 220.127 260.328 220.273 260.004C220.522 259.482 220.59 258.897 220.467 258.335C220.375 257.932 220.263 257.716 220.304 257.696C220.345 257.677 220.519 257.863 220.682 258.276C220.92 258.884 220.92 259.553 220.682 260.161C220.499 260.618 220.196 261.022 219.804 261.335C219.411 261.647 218.942 261.859 218.44 261.948C217.815 262.06 217.169 261.984 216.591 261.729C216.013 261.474 215.532 261.053 215.214 260.524C214.901 259.997 214.765 259.389 214.825 258.784C214.886 258.179 215.14 257.607 215.552 257.146C215.884 256.774 216.309 256.488 216.787 256.316C217.265 256.144 217.781 256.092 218.286 256.164C218.954 256.264 219.561 256.592 219.996 257.087C220.263 257.441 220.334 257.686 220.304 257.696Z" fill="#FFC100"/>
<path d="M205.589 268.312C205.589 268.312 205.404 268.135 205.087 267.86C204.641 267.475 204.077 267.237 203.479 267.182C203.052 267.144 202.622 267.206 202.226 267.364C201.83 267.521 201.48 267.769 201.206 268.086C200.877 268.472 200.678 268.945 200.636 269.442C200.594 269.939 200.711 270.437 200.971 270.869C201.231 271.3 201.622 271.646 202.092 271.859C202.562 272.073 203.089 272.144 203.602 272.063C204.025 271.993 204.423 271.827 204.764 271.577C205.105 271.327 205.377 271.002 205.558 270.629C205.802 270.102 205.87 269.516 205.753 268.95C205.66 268.547 205.548 268.331 205.589 268.312C205.63 268.292 205.794 268.479 205.968 268.891C206.199 269.5 206.199 270.168 205.968 270.776C205.785 271.232 205.484 271.635 205.093 271.948C204.703 272.261 204.235 272.473 203.735 272.564C203.112 272.673 202.469 272.595 201.894 272.341C201.319 272.086 200.84 271.667 200.523 271.142C200.205 270.616 200.065 270.009 200.122 269.404C200.178 268.799 200.428 268.225 200.837 267.762C201.168 267.388 201.593 267.102 202.072 266.93C202.55 266.758 203.066 266.707 203.572 266.78C204.243 266.87 204.856 267.195 205.292 267.693C205.548 268.086 205.62 268.302 205.589 268.312Z" fill="#FFC100"/>
<path d="M225.126 276.021C225.144 276.194 225.144 276.368 225.126 276.541C225.126 276.934 225.126 277.435 225.178 278.043C225.178 279.428 225.229 281.333 225.26 283.71V283.886H225.085C218.532 283.945 208.22 283.985 196.659 283.985H194.918V283.71C194.918 275.058 194.97 267.232 194.99 261.32V261.114H195.205L203.704 261.202L206.019 261.261C206.29 261.255 206.561 261.275 206.828 261.32C206.561 261.365 206.29 261.385 206.019 261.379L203.704 261.428L195.205 261.516L195.41 261.32C195.41 267.212 195.41 275.068 195.492 283.71L195.205 283.435H196.659C208.22 283.435 218.532 283.435 225.085 283.543L224.901 283.71C224.901 281.333 224.963 279.428 224.983 278.043C224.983 277.435 224.983 276.934 225.034 276.541C225.036 276.364 225.067 276.188 225.126 276.021Z" fill="#FFC100"/>
<path d="M207.575 273.448C206.151 274.941 204.618 276.336 202.988 277.621C201.486 279.038 199.881 280.351 198.185 281.549C199.489 279.948 200.973 278.49 202.609 277.199C204.12 275.783 205.785 274.525 207.575 273.448Z" fill="#FFC100"/>
<path d="M214.016 279.565C213.924 279.683 213.054 279.153 212.234 278.259C211.415 277.366 210.965 276.482 211.098 276.403C211.231 276.325 211.866 277.042 212.665 277.896C213.463 278.75 214.078 279.448 214.016 279.565Z" fill="#FFC100"/>
<path d="M251.197 297.133C251.197 297.133 251.197 296.741 251.197 296.004C251.197 295.268 251.197 294.168 251.197 292.754C251.197 289.886 251.197 285.703 251.197 280.331C251.197 269.588 251.126 254.132 251.075 235.159L251.3 235.366L143.002 235.434L143.288 235.159C143.288 257.097 143.288 278.043 143.288 297.114L143.022 296.858L220.918 296.976L243.282 297.055H249.252H250.798H251.331H250.829H249.313H243.405L221.092 297.124L143.022 297.251H142.756V296.996C142.756 277.925 142.756 256.979 142.756 235.042V234.767H143.053L251.351 234.826H251.576V235.042C251.525 254.053 251.484 269.559 251.453 280.331C251.453 285.673 251.453 289.847 251.453 292.695C251.453 294.099 251.453 295.169 251.453 295.916C251.453 296.662 251.197 297.133 251.197 297.133Z" fill="#FFC100"/>
<path d="M184.648 249.683H151.655V251.991H184.648V249.683Z" fill="#FFC100"/>
<path d="M183.296 261.114C183.296 261.271 176.128 261.389 167.219 261.389C158.311 261.389 151.143 261.271 151.143 261.114C151.143 260.957 158.311 260.839 167.219 260.839C176.128 260.839 183.296 260.967 183.296 261.114Z" fill="#FFC100"/>
<path d="M183.296 266.24C183.296 266.397 176.128 266.515 167.219 266.515C158.311 266.515 151.143 266.397 151.143 266.24C151.143 266.083 158.311 265.965 167.219 265.965C176.128 265.965 183.296 266.122 183.296 266.24Z" fill="#FFC100"/>
<path d="M183.296 271.366C183.296 271.523 176.128 271.641 167.219 271.641C158.311 271.641 151.143 271.523 151.143 271.366C151.143 271.209 158.311 271.091 167.219 271.091C176.128 271.091 183.296 271.218 183.296 271.366Z" fill="#FFC100"/>
<path d="M183.296 276.492C183.296 276.639 176.128 276.767 167.219 276.767C158.311 276.767 151.143 276.639 151.143 276.492C151.143 276.344 158.311 276.217 167.219 276.217C176.128 276.217 183.296 276.344 183.296 276.492Z" fill="#FFC100"/>
<path d="M165.632 281.52C163.233 281.791 160.816 281.883 158.403 281.795C155.986 281.883 153.565 281.791 151.163 281.52C153.565 281.243 155.986 281.151 158.403 281.245C160.816 281.15 163.234 281.242 165.632 281.52Z" fill="#FFC100"/>
<path d="M245.443 285.467C245.392 285.467 245.392 285.084 245.197 284.485C244.915 283.59 244.337 282.807 243.548 282.256C242.921 281.81 242.176 281.539 241.397 281.475C240.619 281.411 239.837 281.556 239.139 281.893C238.441 282.23 237.854 282.746 237.444 283.384C237.034 284.022 236.817 284.757 236.817 285.506C236.817 286.256 237.034 286.99 237.444 287.629C237.854 288.267 238.441 288.783 239.139 289.12C239.837 289.457 240.619 289.601 241.397 289.537C242.176 289.473 242.921 289.203 243.548 288.757C244.339 288.208 244.918 287.424 245.197 286.528C245.392 285.889 245.392 285.546 245.443 285.546C245.53 285.898 245.53 286.264 245.443 286.616C245.23 287.603 244.66 288.486 243.835 289.11C243.216 289.576 242.483 289.885 241.706 290.007C240.929 290.129 240.133 290.06 239.391 289.808C238.47 289.497 237.673 288.921 237.109 288.157C236.545 287.394 236.242 286.481 236.242 285.546C236.242 284.61 236.545 283.697 237.109 282.934C237.673 282.171 238.47 281.594 239.391 281.284C240.131 281.033 240.926 280.965 241.701 281.087C242.476 281.209 243.207 281.517 243.825 281.981C244.656 282.602 245.23 283.486 245.443 284.475C245.517 284.802 245.517 285.14 245.443 285.467Z" fill="#FFC100"/>
<path d="M133.991 302.554C134.26 304.507 134.35 306.479 134.257 308.446L133.991 308.191H135.23H136.387L138.332 308.24C138.94 308.211 139.548 308.274 140.135 308.427C139.546 308.566 138.939 308.625 138.332 308.603L136.387 308.662H133.991L133.724 308.407C133.64 306.452 133.73 304.494 133.991 302.554Z" fill="#FFC100"/>
<path d="M133.99 278.682C134.26 280.657 134.349 282.652 134.257 284.642C134.349 286.636 134.26 288.634 133.99 290.613C133.727 288.633 133.638 286.636 133.724 284.642C133.638 282.652 133.727 280.658 133.99 278.682Z" fill="#FFC100"/>
<path d="M133.99 254.809C134.26 256.785 134.349 258.779 134.257 260.77C134.349 262.764 134.26 264.761 133.99 266.74C133.727 264.761 133.638 262.764 133.724 260.77C133.638 258.779 133.727 256.785 133.99 254.809Z" fill="#FFC100"/>
<path d="M133.99 230.927C134.259 232.906 134.348 234.903 134.257 236.897C134.349 238.891 134.26 240.889 133.99 242.868C133.727 240.888 133.638 238.891 133.724 236.897C133.638 234.903 133.728 232.906 133.99 230.927Z" fill="#FFC100"/>
<path d="M133.99 207.055C134.259 209.034 134.348 211.031 134.257 213.025C134.349 215.019 134.26 217.017 133.99 218.996C133.727 217.016 133.638 215.019 133.724 213.025C133.638 211.031 133.728 209.034 133.99 207.055Z" fill="#FFC100"/>
<path d="M133.99 183.182C134.26 185.161 134.349 187.159 134.257 189.153C134.349 191.147 134.26 193.144 133.99 195.123C133.727 193.144 133.638 191.147 133.724 189.153C133.638 187.159 133.727 185.162 133.99 183.182Z" fill="#FFC100"/>
<path d="M133.99 159.31C134.26 161.289 134.349 163.286 134.257 165.28C134.349 167.274 134.26 169.272 133.99 171.251C133.727 169.271 133.638 167.274 133.724 165.28C133.638 163.286 133.727 161.289 133.99 159.31Z" fill="#FFC100"/>
<path d="M133.99 135.438C134.26 137.416 134.349 139.414 134.257 141.408C134.349 143.402 134.26 145.4 133.99 147.379C133.727 145.399 133.638 143.402 133.724 141.408C133.638 139.414 133.727 137.417 133.99 135.438Z" fill="#FFC100"/>
<path d="M133.99 111.565C134.26 113.544 134.349 115.542 134.257 117.536C134.349 119.529 134.26 121.527 133.99 123.506C133.727 121.527 133.638 119.529 133.724 117.536C133.638 115.542 133.727 113.544 133.99 111.565Z" fill="#FFC100"/>
<path d="M140.134 93.7418C138.098 93.994 136.042 94.0794 133.99 93.9971L134.257 93.7418V94.9103C134.257 95.2933 134.257 95.6567 134.257 96.02C134.257 96.6681 134.257 97.2868 134.205 97.8956C134.228 98.4777 134.162 99.0599 134.011 99.6239C133.861 99.0597 133.799 98.4773 133.827 97.8956C133.827 97.2868 133.827 96.6681 133.765 96.02C133.765 95.6567 133.765 95.2933 133.765 94.9103C133.765 94.7238 133.765 94.5274 133.765 94.331V93.7418L134.031 93.4864C136.07 93.4005 138.112 93.4859 140.134 93.7418Z" fill="#FFC100"/>
<path d="M165.489 93.7418C163.387 93.9943 161.267 94.0797 159.15 93.9971C157.034 94.0797 154.913 93.9943 152.812 93.7418C154.913 93.4833 157.034 93.3979 159.15 93.4864C161.267 93.3979 163.387 93.4833 165.489 93.7418Z" fill="#FFC100"/>
<path d="M190.843 93.7418C188.741 93.9943 186.621 94.0797 184.505 93.9971C182.388 94.0797 180.268 93.9943 178.166 93.7418C180.267 93.4833 182.388 93.3979 184.505 93.4864C186.621 93.3979 188.742 93.4833 190.843 93.7418Z" fill="#FFC100"/>
<path d="M216.197 93.7418C214.095 93.9938 211.975 94.0792 209.859 93.9971C207.742 94.0797 205.622 93.9943 203.52 93.7418C205.621 93.4833 207.742 93.3979 209.859 93.4864C211.975 93.3984 214.096 93.4838 216.197 93.7418Z" fill="#FFC100"/>
<path d="M241.541 93.7418C239.439 93.9943 237.319 94.0797 235.203 93.9971C233.086 94.0792 230.966 93.9938 228.864 93.7418C230.966 93.4838 233.086 93.3984 235.203 93.4864C237.319 93.3979 239.44 93.4833 241.541 93.7418Z" fill="#FFC100"/>
<path d="M260.362 99.6337C260.099 97.6805 260.01 95.7093 260.096 93.7417L260.362 93.997H257.976L256 93.9184C255.394 93.9406 254.787 93.8811 254.198 93.7417C254.785 93.5894 255.393 93.5264 256 93.5551H257.956H259.103H260.342L260.608 93.8104C260.703 95.7546 260.62 97.7031 260.362 99.6337Z" fill="#FFC100"/>
<path d="M260.362 123.506C260.099 121.527 260.01 119.529 260.096 117.536C260.01 115.542 260.099 113.544 260.362 111.565C260.632 113.544 260.721 115.542 260.629 117.536C260.721 119.529 260.632 121.527 260.362 123.506Z" fill="#FFC100"/>
<path d="M260.362 147.379C260.099 145.399 260.01 143.402 260.096 141.408C260.01 139.414 260.099 137.417 260.362 135.438C260.632 137.416 260.721 139.414 260.629 141.408C260.721 143.402 260.632 145.4 260.362 147.379Z" fill="#FFC100"/>
<path d="M260.362 171.251C260.099 169.271 260.01 167.274 260.096 165.28C260.01 163.286 260.099 161.289 260.362 159.31C260.632 161.289 260.721 163.286 260.629 165.28C260.721 167.274 260.632 169.272 260.362 171.251Z" fill="#FFC100"/>
<path d="M260.362 195.123C260.099 193.144 260.01 191.147 260.096 189.153C260.01 187.159 260.099 185.162 260.362 183.182C260.632 185.161 260.721 187.159 260.629 189.153C260.721 191.147 260.632 193.144 260.362 195.123Z" fill="#FFC100"/>
<path d="M260.362 218.986C260.099 217.007 260.01 215.009 260.096 213.015C260.01 211.022 260.099 209.024 260.362 207.045C260.632 209.024 260.721 211.022 260.629 213.015C260.721 215.009 260.632 217.007 260.362 218.986Z" fill="#FFC100"/>
<path d="M260.362 242.868C260.099 240.888 260.01 238.891 260.096 236.897C260.011 234.903 260.1 232.906 260.362 230.927C260.631 232.906 260.721 234.903 260.629 236.897C260.721 238.891 260.632 240.889 260.362 242.868Z" fill="#FFC100"/>
<path d="M260.362 266.74C260.099 264.761 260.01 262.764 260.096 260.77C260.01 258.779 260.099 256.785 260.362 254.809C260.632 256.785 260.721 258.779 260.629 260.77C260.721 262.764 260.632 264.761 260.362 266.74Z" fill="#FFC100"/>
<path d="M260.362 290.613C260.099 288.633 260.01 286.636 260.096 284.642C260.01 282.652 260.099 280.658 260.362 278.682C260.632 280.657 260.721 282.652 260.629 284.642C260.721 286.636 260.632 288.634 260.362 290.613Z" fill="#FFC100"/>
<path d="M254.218 308.446C256.254 308.188 258.31 308.103 260.362 308.191C259.83 308.701 260.219 308.328 260.096 308.436V307.268C260.096 306.885 260.096 306.521 260.096 306.158C260.096 305.51 260.096 304.891 260.157 304.282C260.135 303.704 260.197 303.126 260.342 302.564C260.494 303.125 260.56 303.704 260.536 304.282C260.536 304.891 260.536 305.51 260.588 306.158C260.588 306.521 260.588 306.885 260.588 307.268V308.436C260.475 308.554 260.854 308.191 260.321 308.701C258.283 308.782 256.241 308.696 254.218 308.446Z" fill="#FFC100"/>
<path d="M228.864 308.446C230.966 308.188 233.086 308.103 235.203 308.191C237.319 308.102 239.44 308.187 241.541 308.446C239.439 308.698 237.319 308.784 235.203 308.701C233.086 308.783 230.966 308.698 228.864 308.446Z" fill="#FFC100"/>
<path d="M203.52 308.446C205.621 308.187 207.742 308.102 209.859 308.191C211.975 308.103 214.096 308.188 216.197 308.446C214.095 308.698 211.975 308.783 209.859 308.701C207.742 308.784 205.622 308.698 203.52 308.446Z" fill="#FFC100"/>
<path d="M178.176 308.446C180.278 308.187 182.398 308.102 184.515 308.191C186.631 308.102 188.752 308.187 190.853 308.446C188.751 308.698 186.631 308.784 184.515 308.701C182.398 308.784 180.278 308.698 178.176 308.446Z" fill="#FFC100"/>
<path d="M152.812 308.446C154.913 308.187 157.034 308.102 159.15 308.191C161.267 308.102 163.387 308.187 165.489 308.446C163.387 308.698 161.267 308.784 159.15 308.701C157.034 308.784 154.913 308.698 152.812 308.446Z" fill="#FFC100"/>
<path d="M202.373 306.668H198.667V310.223H202.373V306.668Z" fill="#FFC100"/>
<path d="M261.98 306.668H258.273V310.223H261.98V306.668Z" fill="#FFC100"/>
<path d="M199.097 91.7285H195.39V95.2834H199.097V91.7285Z" fill="#FFC100"/>
<path d="M262.216 91.7285H258.509V95.2834H262.216V91.7285Z" fill="#FFC100"/>
<path d="M136.192 306.668H132.485V310.223H136.192V306.668Z" fill="#FFC100"/>
<path d="M136.438 91.7285H132.731V95.2834H136.438V91.7285Z" fill="#FFC100"/>
<path d="M461.547 458.506C461.547 458.653 371.804 458.761 261.13 458.761C150.456 458.761 60.6924 458.653 60.6924 458.506C60.6924 458.359 150.415 458.25 261.13 458.25C371.845 458.25 461.547 458.368 461.547 458.506Z" fill="#263238"/>
<path d="M390.922 444.384L391.148 432.414L412.867 431.176V445.818L405.064 450.561L390.922 444.384Z" fill="#FFCEB0"/>
<path d="M413.276 443.088V444.463C413.276 444.463 437.627 453.507 437.934 457.916L389.806 458.24L390.349 442.882C397.568 446.005 405.053 446.319 413.276 443.088Z" fill="#FFC100"/>
<g opacity="0.6">
<path d="M395.264 447.792C394.803 447.931 394.411 448.228 394.163 448.626C393.916 449.025 393.83 449.497 393.923 449.952C394.048 450.401 394.349 450.786 394.763 451.027C395.177 451.268 395.672 451.348 396.145 451.249C396.637 451.105 397.054 450.788 397.314 450.362C397.574 449.937 397.658 449.433 397.548 448.951C397.366 448.498 397.008 448.131 396.55 447.926C396.092 447.721 395.568 447.694 395.09 447.851" fill="white"/>
</g>
<g opacity="0.6">
<path d="M389.847 458.24L389.97 454.538L436.05 455.589C436.05 455.589 438.2 456.473 437.965 457.916L389.847 458.24Z" fill="white"/>
</g>
<path d="M413.471 444.591C413.471 444.817 412.283 444.925 411.136 445.651C409.989 446.378 409.375 447.34 409.16 447.252C408.945 447.164 409.283 445.857 410.696 444.993C412.109 444.129 413.522 444.384 413.471 444.591Z" fill="#263238"/>
<path d="M418.529 446.554C418.529 446.77 417.567 447.163 416.778 448.126C415.99 449.088 415.754 450.09 415.529 450.09C415.304 450.09 415.14 448.813 416.143 447.635C417.147 446.456 418.519 446.338 418.529 446.554Z" fill="#263238"/>
<path d="M421.438 452.329C421.222 452.378 420.885 451.258 421.438 450.021C421.99 448.784 423.127 448.283 423.23 448.47C423.332 448.656 422.656 449.314 422.206 450.345C421.755 451.376 421.673 452.309 421.438 452.329Z" fill="#263238"/>
<path d="M331.817 414.021L327.178 449.314L344.289 450.335L352.85 416.476L331.817 414.021Z" fill="#FFCEB0"/>
<path d="M345.846 443.491C345.846 443.491 332.8 449.883 327.987 442.292L326.021 445.425L315.955 468.198C315.622 468.915 315.579 469.725 315.835 470.471C316.09 471.217 316.626 471.846 317.338 472.234C317.888 472.525 318.513 472.663 319.141 472.632C319.769 472.601 320.375 472.401 320.891 472.057C326.41 468.325 346.614 454.489 346.747 452.279L347.484 446.466C347.554 445.874 347.435 445.275 347.142 444.749C346.85 444.223 346.398 443.794 345.846 443.52V443.491Z" fill="#FFC100"/>
<g opacity="0.6">
<path d="M317.901 472.47L347.034 450.267L346.849 451.533C346.788 452.918 346.071 453.38 345.252 454.175C342.815 456.522 336.271 461.619 320.993 472.077C320.551 472.372 320.041 472.561 319.507 472.63C318.973 472.698 318.429 472.643 317.921 472.47H317.901Z" fill="white"/>
</g>
<g opacity="0.6">
<path d="M343.808 446.004C343.377 446.218 343.046 446.579 342.881 447.016C342.716 447.452 342.729 447.933 342.917 448.361C343.145 448.776 343.527 449.094 343.988 449.252C344.449 449.411 344.954 449.397 345.405 449.216C345.855 448.987 346.199 448.605 346.372 448.146C346.544 447.687 346.532 447.182 346.337 446.731C346.052 446.322 345.617 446.03 345.118 445.914C344.62 445.797 344.093 445.865 343.644 446.103" fill="white"/>
</g>
<path d="M327.086 460.362C326.892 460.42 326.4 458.761 324.618 457.671C322.837 456.581 321.034 456.689 321.024 456.522C321.014 456.355 321.444 456.267 322.202 456.267C323.202 456.292 324.175 456.588 325.007 457.121C325.84 457.637 326.498 458.374 326.902 459.242C327.189 459.9 327.168 460.352 327.086 460.362Z" fill="#263238"/>
<path d="M324.229 464.073C324.065 464.181 323.205 463.091 321.577 462.414C319.949 461.736 318.505 461.815 318.505 461.628C318.505 461.442 320.072 461.029 321.874 461.805C323.676 462.581 324.413 464.014 324.229 464.073Z" fill="#263238"/>
<path d="M332.073 455.795C331.899 455.913 330.537 454.204 328.161 452.977C325.786 451.749 323.533 451.513 323.553 451.317C323.574 451.121 325.97 451.042 328.51 452.397C331.049 453.752 332.237 455.726 332.073 455.795Z" fill="#263238"/>
<path d="M333.64 448.666C333.527 448.833 331.858 447.91 329.544 447.527C327.229 447.144 325.356 447.428 325.315 447.232C325.274 447.036 327.209 446.446 329.667 446.878C332.124 447.31 333.763 448.538 333.64 448.666Z" fill="#263238"/>
<path d="M328.264 447.301C328.283 446.913 328.399 446.536 328.602 446.201C329.052 445.236 329.7 444.368 330.506 443.648C331.062 443.067 331.798 442.675 332.606 442.528C332.876 442.504 333.147 442.559 333.385 442.685C333.622 442.811 333.815 443.003 333.937 443.235C334.128 443.699 334.128 444.215 333.937 444.679C333.516 445.63 332.765 446.412 331.811 446.892C330.857 447.372 329.759 447.52 328.704 447.311C327.661 447.101 326.707 446.6 325.96 445.871C325.213 445.143 324.707 444.219 324.506 443.216C324.464 442.966 324.478 442.711 324.546 442.467C324.615 442.223 324.738 441.996 324.905 441.802C325.106 441.623 325.358 441.508 325.629 441.471C325.9 441.434 326.176 441.477 326.421 441.595C327.117 441.982 327.697 442.537 328.1 443.206C328.72 444.079 329.168 445.055 329.421 446.083C329.555 446.448 329.601 446.838 329.554 447.222C329.129 445.889 328.497 444.624 327.68 443.471C327.303 442.901 326.787 442.429 326.175 442.096C326.044 442.028 325.894 442.001 325.747 442.021C325.599 442.04 325.462 442.105 325.356 442.204C325.246 442.342 325.171 442.503 325.136 442.673C325.1 442.843 325.105 443.018 325.151 443.186C325.352 444.046 325.805 444.832 326.456 445.453C327.107 446.074 327.93 446.504 328.827 446.692C329.72 446.859 330.645 446.737 331.457 446.344C332.269 445.951 332.922 445.31 333.312 444.522C333.428 444.204 333.428 443.858 333.312 443.54C333.249 443.407 333.143 443.297 333.011 443.225C332.879 443.152 332.726 443.122 332.575 443.137C331.899 443.262 331.278 443.581 330.793 444.05C329.757 444.983 328.901 446.083 328.264 447.301Z" fill="#263238"/>
<path d="M424.96 276.521C421.991 265.13 417.792 250.744 415.304 249.399L411.208 242.063L347.515 249.428L346.112 252.786C346.112 252.786 342.405 257.539 342.405 261.565C342.405 265.592 342.272 272.446 341.074 276.237C338.657 283.847 337.511 295.189 335.473 325.229L336.958 359.206L331.408 400.656C330.169 411.34 328.417 430.352 328.417 430.352C328.417 430.352 338.657 442.381 349.338 435.497L366.275 379.396C367.528 375.247 368.553 371.038 369.347 366.787C372.572 349.346 382.71 300.993 382.71 300.993C382.71 300.993 388.977 368.319 388.854 371.942L388.711 378.482C388.711 378.482 388.577 427.857 388.649 431.677L388.731 436.587C388.731 436.587 413.256 440.79 413.891 435.478C414.137 433.396 417.055 386.152 417.055 386.152L424.96 307.13C424.96 307.13 427.971 287.913 424.96 276.521Z" fill="#263238"/>
<path d="M388.608 295.189C388.548 294.608 388.528 294.025 388.547 293.441C388.547 292.233 388.547 290.633 388.547 288.688C388.547 284.672 388.393 279.124 388.014 272.976C387.635 266.829 387.062 261.34 386.591 257.343C386.355 255.379 386.161 253.818 386.007 252.619C385.907 252.045 385.856 251.464 385.854 250.881C386.025 251.44 386.148 252.012 386.222 252.59C386.417 253.7 386.683 255.31 386.959 257.304C387.533 261.281 388.158 266.809 388.547 272.947C388.936 279.084 388.987 284.633 388.926 288.659C388.926 290.623 388.833 292.292 388.772 293.422C388.77 294.014 388.715 294.606 388.608 295.189Z" fill="#455A64"/>
<path d="M413.522 249.428C413.314 249.534 413.098 249.625 412.877 249.703L411.024 250.42C410.215 250.724 409.211 251.087 408.034 251.402C406.856 251.716 405.535 252.236 404.03 252.619C402.524 253.002 400.896 253.493 399.104 253.876C397.312 254.259 395.408 254.662 393.39 255.045C388.987 255.785 384.542 256.28 380.078 256.528C375.611 256.73 371.135 256.677 366.674 256.37C364.626 256.194 362.67 256.046 360.858 255.781C359.045 255.516 357.356 255.29 355.83 255.025C354.304 254.76 352.922 254.456 351.734 254.21C350.546 253.965 349.491 253.699 348.662 253.474L346.737 252.953C346.51 252.896 346.288 252.824 346.071 252.737C346.304 252.748 346.534 252.784 346.757 252.845L348.713 253.277C349.553 253.474 350.587 253.709 351.785 253.925C352.983 254.141 354.366 254.456 355.881 254.662C357.397 254.868 359.086 255.172 360.909 255.359C362.732 255.546 364.657 255.732 366.705 255.899C371.136 256.176 375.581 256.216 380.017 256.017C384.458 255.77 388.881 255.292 393.267 254.583C395.315 254.21 397.21 253.886 398.981 253.464C400.753 253.041 402.402 252.668 403.897 252.276C405.392 251.883 406.733 251.47 407.911 251.127C409.088 250.783 410.102 250.459 410.921 250.145L412.816 249.516C413.047 249.463 413.284 249.433 413.522 249.428Z" fill="#455A64"/>
<path d="M419.062 281.706C418.902 281.778 418.734 281.831 418.56 281.864L417.086 282.197C415.806 282.482 413.962 282.895 411.689 283.435C407.132 284.515 400.886 286.165 394.107 288.345C387.328 290.525 381.338 292.911 377.047 294.728C374.897 295.631 373.166 296.378 371.978 296.908L370.596 297.507C370.439 297.581 370.274 297.64 370.104 297.684C370.104 297.684 370.248 297.576 370.555 297.409L371.886 296.731C373.054 296.142 374.764 295.346 376.894 294.394C382.457 291.936 388.147 289.754 393.943 287.854C399.754 285.972 405.664 284.382 411.648 283.091C413.942 282.59 415.806 282.227 417.096 282.001L418.591 281.756C418.745 281.72 418.903 281.703 419.062 281.706Z" fill="#455A64"/>
<path d="M412.979 290.869C412.509 290.947 412.032 290.977 411.556 290.957C410.634 290.957 409.303 291.035 407.665 291.173C403.402 291.538 399.203 292.405 395.162 293.756C392.944 294.509 390.775 295.391 388.669 296.397C386.956 297.234 385.292 298.158 383.683 299.166C382.31 300.031 381.225 300.767 380.498 301.307C380.129 301.6 379.735 301.863 379.32 302.093C379.623 301.73 379.966 301.401 380.344 301.111C381.326 300.297 382.351 299.533 383.416 298.823C385.011 297.768 386.67 296.804 388.383 295.936C390.5 294.896 392.685 293.99 394.926 293.225C397.176 292.49 399.475 291.903 401.807 291.468C403.712 291.122 405.638 290.893 407.572 290.78C408.878 290.691 410.187 290.671 411.494 290.721C411.993 290.727 412.49 290.776 412.979 290.869Z" fill="#455A64"/>
<path d="M360.049 379.543C359.068 379.414 358.108 379.167 357.192 378.807C352.695 377.273 348.575 374.87 345.088 371.746C344.315 371.136 343.627 370.433 343.04 369.654C343.825 370.223 344.577 370.833 345.293 371.481C347.097 372.929 349.014 374.242 351.027 375.409C353.044 376.577 355.153 377.591 357.335 378.443C358.263 378.754 359.17 379.121 360.049 379.543Z" fill="#455A64"/>
<path d="M407.245 372.904C405.888 373.651 404.449 374.25 402.954 374.692C401.521 375.296 400.019 375.737 398.479 376.007C399.835 375.259 401.274 374.659 402.77 374.22C404.203 373.615 405.705 373.173 407.245 372.904Z" fill="#455A64"/>
<path d="M399.852 159.251C399.141 158.273 398.554 157.218 398.101 156.109C397.742 154.724 398.295 153.29 398.551 151.876C398.812 150.353 398.727 148.794 398.301 147.306C397.875 145.818 397.119 144.436 396.083 143.254C392.95 139.797 387.892 138.698 385.219 142.498L382.823 146.318C381.512 147.811 381.471 149.971 381.799 151.906C382.126 153.84 382.659 155.784 382.3 157.709C381.973 159.467 380.898 161.028 380.457 162.766C379.781 165.438 380.672 168.256 381.881 170.75C383.089 173.244 384.635 175.66 385.362 178.282C386.417 177.988 387.355 177.398 388.056 176.588C388.757 175.777 389.188 174.784 389.294 173.735C390.383 174.909 391.901 175.635 393.534 175.763C395.166 175.891 396.787 175.411 398.06 174.423C399.323 173.282 400.177 171.787 400.497 170.151C400.815 168.533 400.945 166.887 400.886 165.241C401.053 163.194 400.698 161.138 399.852 159.251Z" fill="#E0E0E0"/>
<path d="M332.657 238.174C335.228 234.749 336.656 230.658 336.753 226.439L342.794 199.925C342.794 199.925 338.535 167.46 325.909 165.408C325.909 165.408 320.42 167.981 319.15 177.909C318.434 183.496 313.569 212.279 313.313 215.814L295.486 207.958L286.73 221.146C286.73 221.146 300.042 234.315 310.467 241.513C312.151 242.695 314.062 243.546 316.09 244.018C318.118 244.49 320.223 244.573 322.285 244.263C324.347 243.953 326.324 243.255 328.104 242.21C329.884 241.165 331.431 239.794 332.657 238.174Z" fill="#FF725E"/>
<path d="M441.723 215.588C438.456 207.084 420.219 170.416 417.464 165.437C415.525 162.219 412.775 159.518 409.467 157.581C406.506 155.738 403.192 154.476 399.718 153.869L386.877 151.591L380.037 145.788L353.71 148.439L347.136 154.802C347.136 154.802 327.506 162.599 325.478 166.046C323.451 169.493 343.583 209.549 344.074 212.348C344.566 215.146 346.593 227.853 346.808 231.988C347.023 236.122 341.688 245.736 345.016 248.564C348.344 251.392 387.686 251.578 389.929 250.714C392.172 249.85 409.467 245.981 411.259 242.102L411.648 228.148L415.375 229.719C415.375 229.719 432.865 236.878 439.869 233.303C446.874 229.729 444.989 224.092 441.723 215.588Z" fill="#FF725E"/>
<path d="M402.801 193.012L419.523 169.542L456.325 177.555L432.538 214.086L421.448 213.977L412.795 209.912L401.828 197.598L402.801 193.012Z" fill="#455A64"/>
<g opacity="0.3">
<path d="M408.494 234.443C404.972 231.84 400.466 230.799 396.052 230.308C389.997 229.634 383.868 229.893 377.897 231.074L378.44 231.909C382.015 235.675 386.52 238.517 391.542 240.175C396.563 241.833 401.938 242.252 407.173 241.395C407.832 241.348 408.474 241.174 409.06 240.882C409.646 240.59 410.164 240.186 410.583 239.696C411.709 237.939 410.194 235.68 408.494 234.443Z" fill="black"/>
</g>
<path d="M392.684 211.081L377.528 232.027L415.293 238.292L423.895 226.527L392.684 211.081Z" fill="#455A64"/>
<path d="M413.491 208.97L423.127 213.929L425.707 227.186L420.29 231.448L404.449 221.313L413.491 208.97Z" fill="#FF725E"/>
<path d="M353.761 147.565V158.583L371.968 174.796C371.968 174.796 381.297 162.03 381.297 161.284C381.297 160.537 380.273 144.982 380.273 144.982L353.761 147.565Z" fill="#FFCEB0"/>
<path d="M343.409 211.13C343.317 211.002 343.241 210.863 343.184 210.718C343.03 210.384 342.846 209.991 342.631 209.51C342.16 208.449 341.525 206.907 340.777 204.983C339.262 201.143 337.306 195.791 334.961 189.958C333.032 184.951 330.714 180.09 328.028 175.415C327.197 174.016 326.281 172.665 325.284 171.369L324.444 170.318C324.25 170.082 324.158 169.945 324.178 169.935C324.199 169.925 324.311 170.033 324.526 170.249C324.741 170.465 325.079 170.848 325.448 171.231C326.52 172.492 327.493 173.828 328.356 175.228C331.153 179.869 333.531 184.731 335.463 189.762C337.808 195.654 339.702 200.986 341.125 204.845L342.825 209.421L343.286 210.669C343.388 210.924 343.429 211.071 343.409 211.13Z" fill="#263238"/>
<path d="M368.333 174.275C367.85 173.935 367.392 173.565 366.961 173.166C366.08 172.449 364.81 171.428 363.151 170.22C362.322 169.64 361.39 169.032 360.376 168.413C359.311 167.736 358.196 167.135 357.038 166.616C356.427 166.369 355.766 166.255 355.103 166.282C354.427 166.334 353.786 166.588 353.27 167.009C352.166 167.958 351.49 169.282 351.386 170.701C351.289 171.562 351.248 172.428 351.263 173.293V174.649L350.761 173.382C349.071 169.097 347.959 164.622 347.454 160.066C347.279 158.338 347.218 156.953 347.208 155.991C347.177 155.496 347.194 154.999 347.259 154.508C347.346 154.995 347.394 155.487 347.402 155.981C347.464 156.963 347.587 158.318 347.812 160.027C348.404 164.547 349.552 168.983 351.232 173.244L350.72 173.333C350.7 172.444 350.744 171.555 350.853 170.672C350.959 169.127 351.695 167.684 352.901 166.655C353.504 166.174 354.249 165.885 355.031 165.83C355.77 165.802 356.506 165.936 357.182 166.223C358.363 166.759 359.496 167.386 360.571 168.099C361.595 168.737 362.506 169.375 363.336 169.974C364.632 170.923 365.873 171.939 367.053 173.019C367.473 173.411 367.79 173.716 367.995 173.932C368.2 174.148 368.343 174.256 368.333 174.275Z" fill="#263238"/>
<path d="M371.968 174.796C372.247 174.454 372.544 174.126 372.859 173.814C373.443 173.185 374.252 172.223 375.214 170.995C377.15 168.531 379.597 164.897 382.485 160.734L382.628 160.527L382.843 160.665L387.574 163.748L392.54 167.009L392.141 167.254C391.468 163.246 390.148 159.364 388.229 155.745C387.523 154.4 386.878 153.359 386.427 152.642C386.172 152.291 385.949 151.92 385.762 151.532C386.061 151.838 386.335 152.167 386.581 152.514C387.286 153.495 387.936 154.511 388.526 155.558C390.545 159.176 391.928 163.088 392.622 167.136L392.725 167.706L392.223 167.382L387.246 164.131L382.546 161.048L382.905 160.979C380.017 165.113 377.498 168.737 375.47 171.153C374.697 172.115 373.866 173.033 372.982 173.902C372.685 174.207 372.419 174.423 372.255 174.57C372.091 174.717 371.979 174.796 371.968 174.796Z" fill="#263238"/>
<path d="M382.187 225.595C382.132 225.433 382.101 225.264 382.095 225.094C382.095 224.711 382.013 224.24 381.962 223.67C381.839 222.364 381.675 220.596 381.481 218.446C381.061 214.027 380.385 207.938 379.228 201.271C378.276 195.571 376.932 189.939 375.204 184.41C374.876 183.349 374.548 182.446 374.241 181.572C373.934 180.698 373.688 180.02 373.453 179.451C373.217 178.881 373.074 178.469 372.93 178.105C372.856 177.953 372.807 177.791 372.787 177.624C372.884 177.763 372.967 177.911 373.033 178.066C373.197 178.419 373.402 178.852 373.637 179.372C373.873 179.892 374.2 180.649 374.518 181.473C374.835 182.298 375.204 183.241 375.542 184.302C377.381 189.819 378.781 195.462 379.73 201.182C380.897 207.87 381.512 213.948 381.839 218.416C382.003 220.626 382.106 222.423 382.146 223.66C382.146 224.23 382.146 224.701 382.146 225.094C382.175 225.259 382.189 225.427 382.187 225.595Z" fill="#263238"/>
<path d="M413.287 209.244L416.236 198.943L417.465 195.015L417.383 187.562C417.383 187.562 414.311 185.883 413.082 190.94L412.13 194.799C412.13 194.799 408.034 199.621 407.522 199.395L404.747 198.177L403.651 191.863C403.651 191.863 400.886 190.351 399.678 190.999C399.133 191.261 398.667 191.652 398.323 192.135C397.979 192.617 397.768 193.176 397.712 193.758C397.712 193.758 394.865 193.984 395.664 198.118C395.664 198.118 392.704 198.001 392.878 202.184C392.288 202.56 391.836 203.105 391.586 203.741C391.336 204.377 391.301 205.073 391.486 205.729C391.977 208.282 392.643 211.13 392.643 211.13C392.643 211.13 395.121 214.616 397.425 215.598C399.729 216.58 405.842 219.408 405.842 219.408L413.287 209.244Z" fill="#FFCEB0"/>
<path d="M399.677 198.953C399.106 198.181 398.686 197.316 398.438 196.4C398.024 195.547 397.778 194.628 397.711 193.689C398.691 195.31 399.357 197.086 399.677 198.933V198.953Z" fill="#263238"/>
<path d="M396.913 202.292C396.41 201.605 396.061 200.826 395.889 200.004C395.561 199.235 395.404 198.409 395.428 197.578C395.906 198.272 396.237 199.05 396.401 199.866C396.743 200.633 396.917 201.458 396.913 202.292Z" fill="#263238"/>
<path d="M394.076 205.788C393.933 205.788 393.595 205.002 393.329 203.971C393.077 203.347 392.996 202.671 393.093 202.007C393.226 202.007 393.564 202.783 393.841 203.834C394.117 204.885 394.24 205.768 394.076 205.788Z" fill="#263238"/>
<path d="M439.019 213.565C438.271 213.787 437.498 213.923 436.715 213.968C434.846 214.183 432.966 214.304 431.083 214.331C428.882 214.331 426.885 214.331 425.441 214.194C424.661 214.197 423.884 214.108 423.127 213.928C423.127 213.771 426.69 213.928 431.073 213.82C433.265 213.82 435.251 213.693 436.685 213.614C437.459 213.518 438.242 213.501 439.019 213.565Z" fill="#263238"/>
<path d="M323.39 223.307C322.018 221.542 320.43 219.943 318.659 218.544C316.782 217.284 314.749 216.251 312.607 215.47C313.312 215.483 314.007 215.626 314.655 215.892C317.815 216.948 320.546 218.935 322.458 221.568C322.872 222.091 323.188 222.679 323.39 223.307Z" fill="#263238"/>
<path d="M321.997 217.896C320.667 216.992 319.217 216.262 317.686 215.726C316.103 215.345 314.473 215.174 312.842 215.215C313.282 214.987 313.775 214.868 314.276 214.871C316.698 214.671 319.108 215.374 321.004 216.835C321.71 217.405 322.038 217.857 321.997 217.896Z" fill="#263238"/>
<g opacity="0.3">
<path d="M313.508 215.922C316.032 216.431 318.324 217.688 320.061 219.516C321.779 221.339 323.22 223.386 324.342 225.595C324.823 226.488 325.683 227.559 326.656 227.185C327.629 226.812 327.588 225.811 327.455 224.976C327.205 223.405 326.619 221.901 325.732 220.558C324.846 219.216 323.679 218.064 322.304 217.176C320.93 216.289 319.379 215.684 317.748 215.4C316.118 215.117 314.444 215.161 312.832 215.529" fill="black"/>
</g>
<g opacity="0.3">
<path d="M371.968 174.796C376.064 172.665 379.812 170.475 382.72 166.94C383.114 166.329 383.719 165.87 384.43 165.644C385.074 165.606 385.713 165.768 386.253 166.105L394.896 170.357C394.52 166.012 392.729 161.889 389.776 158.573C390.871 160.753 392.356 167.136 392.356 167.136C389.962 165.381 387.477 163.743 384.912 162.226C384.19 161.714 383.434 161.248 382.649 160.832C382.165 161.323 381.78 161.896 381.512 162.521C381.184 163.876 375.102 171.162 371.927 174.766" fill="black"/>
</g>
<path d="M355.031 249.605C355.016 249.527 355.016 249.447 355.031 249.369C355.031 249.182 355.031 248.957 355.031 248.682C355.031 248.033 355.031 247.159 355.103 246.04C355.103 245.47 355.103 244.832 355.164 244.145C355.226 243.457 355.164 242.691 355.164 241.876C355.164 240.246 355.164 238.4 355.011 236.357C354.949 235.336 354.888 234.266 354.827 233.146C354.755 232.037 354.591 230.878 354.478 229.69C354.274 227.284 353.833 224.78 353.454 222.079C352.419 216.298 350.993 210.587 349.184 204.983C347.316 199.396 345.065 193.934 342.446 188.632C341.187 186.217 340.03 183.899 338.76 181.817C338.135 180.776 337.572 179.745 336.968 178.793L335.207 176.063C334.121 174.305 332.974 172.802 332.032 171.457C331.551 170.789 331.121 170.151 330.691 169.591L329.503 168.069L327.865 165.948L327.445 165.388C327.349 165.264 327.308 165.195 327.322 165.182L327.486 165.359L327.947 165.879L329.667 167.951L330.896 169.444C331.336 170.004 331.776 170.632 332.278 171.29C333.241 172.626 334.408 174.118 335.524 175.866L337.316 178.586C337.941 179.568 338.514 180.55 339.139 181.611C340.429 183.693 341.607 186.01 342.897 188.426C345.543 193.741 347.815 199.219 349.696 204.825C351.504 210.454 352.92 216.192 353.936 222.001C354.335 224.691 354.755 227.235 354.96 229.641C355.062 230.848 355.216 232.007 355.277 233.127C355.339 234.246 355.38 235.317 355.431 236.338C355.564 238.39 355.502 240.266 355.502 241.876C355.502 242.691 355.502 243.448 355.502 244.145C355.502 244.842 355.328 245.5 355.328 246.05C355.257 247.159 355.195 248.014 355.154 248.691C355.154 248.966 355.154 249.192 355.103 249.369C355.09 249.45 355.066 249.53 355.031 249.605Z" fill="white"/>
<path d="M369.828 250.243C369.796 250.165 369.778 250.082 369.777 249.997C369.777 249.801 369.705 249.565 369.664 249.271C369.572 248.593 369.449 247.65 369.285 246.462C369.122 245.274 368.947 243.762 368.661 242.033C368.374 240.305 368.118 238.351 367.688 236.191C367.493 235.11 367.278 233.981 367.063 232.803C366.848 231.624 366.551 230.407 366.285 229.15C365.773 226.616 365.077 223.945 364.38 221.127C362.885 215.51 361.032 209.343 358.748 203.058C356.465 196.773 353.895 190.852 351.417 185.568C350.126 182.937 348.939 180.433 347.689 178.145C347.075 177.005 346.512 175.876 345.918 174.825C345.324 173.775 344.761 172.763 344.208 171.801C343.184 169.837 342.067 168.158 341.136 166.645C340.204 165.133 339.426 163.847 338.75 162.806L337.224 160.39L336.835 159.762C336.787 159.691 336.75 159.615 336.722 159.536C336.722 159.536 336.784 159.595 336.886 159.732L337.316 160.341L338.934 162.708C339.63 163.69 340.48 164.996 341.402 166.498C342.323 168 343.45 169.69 344.474 171.624C345.037 172.606 345.621 173.588 346.225 174.639C346.829 175.69 347.402 176.809 348.027 177.958C349.287 180.236 350.495 182.74 351.795 185.372C354.314 190.655 356.864 196.567 359.189 202.891C361.513 209.215 363.285 215.372 364.8 221.009C365.486 223.837 366.162 226.518 366.654 229.061C366.92 230.328 367.196 231.546 367.401 232.734C367.606 233.922 367.811 235.051 368.005 236.132C368.405 238.292 368.64 240.266 368.896 242.024C369.152 243.781 369.316 245.245 369.439 246.472C369.562 247.7 369.644 248.603 369.705 249.29L369.767 250.027C369.798 250.096 369.818 250.169 369.828 250.243Z" fill="white"/>
<path d="M379.474 250.567C379.462 250.492 379.462 250.416 379.474 250.341C379.474 250.164 379.423 249.948 379.392 249.683C379.331 249.065 379.239 248.21 379.136 247.14C379.034 246.069 378.901 244.685 378.696 243.123C378.491 241.562 378.317 239.775 378 237.821C377.682 235.866 377.395 233.706 376.976 231.418C376.556 229.13 376.064 226.675 375.532 224.112C374.385 218.986 372.941 213.398 371.128 207.605C369.316 201.811 367.207 196.4 365.2 191.49C364.176 189.074 363.152 186.757 362.179 184.616C361.206 182.475 360.233 180.521 359.342 178.724C358.451 176.927 357.591 175.346 356.854 173.932C356.117 172.518 355.451 171.329 354.888 170.357L353.639 168.108L353.321 167.519C353.249 167.382 353.219 167.313 353.229 167.303C353.287 167.357 353.336 167.42 353.372 167.49C353.464 167.647 353.587 167.834 353.731 168.059L355.072 170.269C355.656 171.251 356.352 172.4 357.12 173.804C357.888 175.208 358.8 176.75 359.69 178.567C360.581 180.383 361.605 182.289 362.588 184.459C363.571 186.629 364.636 188.888 365.66 191.333C367.708 196.243 369.756 201.644 371.6 207.438C373.443 213.231 374.846 218.858 375.972 223.994C376.484 226.577 376.996 229.022 377.365 231.33C377.733 233.637 378.081 235.788 378.337 237.752C378.593 239.716 378.788 241.513 378.962 243.074C379.136 244.636 379.239 246.02 379.31 247.11C379.382 248.2 379.433 249.074 379.464 249.664C379.464 249.929 379.464 250.145 379.464 250.322C379.48 250.402 379.484 250.485 379.474 250.567Z" fill="white"/>
<path d="M387.769 233.441C388.174 234.152 388.481 234.912 388.68 235.7C389.895 239.43 390.539 243.31 390.595 247.218C390.655 248.029 390.61 248.844 390.462 249.644C390.305 248.851 390.226 248.045 390.226 247.238C390.114 245.755 389.909 243.713 389.54 241.474C389.171 239.235 388.7 237.241 388.322 235.798C388.073 235.027 387.888 234.239 387.769 233.441Z" fill="white"/>
<path d="M399.237 235.591C400.236 237.334 400.843 239.257 401.019 241.238C401.364 243.196 401.283 245.202 400.783 247.13C400.609 247.13 400.927 244.488 400.486 241.238C400.046 237.987 399.084 235.68 399.237 235.591Z" fill="white"/>
<path d="M377.129 168.354C377.129 168.354 377.221 168.501 377.354 168.816C377.487 169.13 377.682 169.621 377.897 170.171C378.358 171.349 378.982 173.117 379.699 175.218C381.576 180.808 383.158 186.484 384.44 192.226C385.946 198.963 386.888 205.13 387.4 209.618C387.656 211.857 387.83 213.673 387.912 214.93C387.912 215.51 387.973 215.991 388.004 216.384C388.028 216.55 388.028 216.718 388.004 216.884C387.946 216.723 387.912 216.554 387.901 216.384C387.85 216.001 387.789 215.529 387.717 214.95C387.574 213.703 387.338 211.886 387.031 209.657C386.427 205.199 385.434 199.051 383.959 192.334C382.484 185.618 380.733 179.627 379.382 175.326C378.706 173.166 378.143 171.398 377.743 170.23C377.559 169.68 377.416 169.248 377.293 168.845C377.223 168.686 377.168 168.522 377.129 168.354Z" fill="white"/>
<path d="M394.291 195.418C394.085 194.996 393.924 194.555 393.81 194.102C393.503 193.12 393.124 191.922 392.663 190.449C391.69 187.366 390.339 183.114 388.741 178.449C387.144 173.785 385.598 169.611 384.471 166.567L383.14 162.973C382.95 162.543 382.806 162.095 382.71 161.637C382.962 162.038 383.172 162.463 383.335 162.904C383.703 163.729 384.215 164.937 384.819 166.439C386.048 169.444 387.646 173.618 389.243 178.292C390.841 182.966 392.151 187.238 393.022 190.351C393.462 191.902 393.79 193.169 394.046 194.043C394.167 194.494 394.249 194.954 394.291 195.418Z" fill="white"/>
<path d="M389.581 152.298C389.869 152.75 390.112 153.227 390.308 153.722C390.748 154.704 391.332 156.02 392.069 157.719C393.503 161.107 395.336 165.84 397.097 171.163C398.858 176.485 400.169 181.375 401.06 184.911C401.5 186.688 401.818 188.141 402.023 189.143C402.154 189.659 402.243 190.185 402.289 190.714C402.083 190.219 401.925 189.706 401.818 189.182C401.531 188.112 401.152 186.698 400.702 184.999C399.739 181.464 398.346 176.603 396.606 171.251C394.865 165.899 393.063 161.195 391.731 157.778C391.076 156.128 390.544 154.773 390.134 153.732C389.913 153.268 389.728 152.789 389.581 152.298Z" fill="white"/>
<path d="M409.498 183.82C409.349 183.426 409.242 183.018 409.18 182.603C409.027 181.817 408.781 180.639 408.453 179.284C407.599 175.647 406.529 172.06 405.248 168.541C403.953 165.023 402.438 161.583 400.712 158.239C400.057 156.953 399.504 155.922 399.114 155.215C398.893 154.853 398.708 154.471 398.562 154.076C398.844 154.398 399.091 154.746 399.299 155.117C399.739 155.794 400.323 156.806 401.05 158.063C402.877 161.378 404.447 164.818 405.75 168.354C407.041 171.88 408.067 175.49 408.822 179.156C409.098 180.57 409.293 181.719 409.385 182.524C409.465 182.952 409.503 183.386 409.498 183.82Z" fill="white"/>
<path d="M388.147 157.336C386.199 155.905 383.745 155.257 381.307 155.529C381.307 155.47 381.676 155.274 382.331 155.156C383.235 155.015 384.161 155.062 385.044 155.294C385.927 155.526 386.748 155.938 387.451 156.501C387.963 156.933 388.188 157.287 388.147 157.336Z" fill="white"/>
<path d="M384.215 149.195C384.215 149.333 383.478 149.657 382.495 149.912C381.512 150.168 380.672 150.276 380.642 150.138C380.611 150.001 381.369 149.686 382.352 149.421C383.335 149.156 384.174 149.068 384.215 149.195Z" fill="white"/>
<path d="M353.966 159.781C352.955 160.423 352.003 161.145 351.119 161.942C350.354 162.848 349.669 163.813 349.071 164.829C349.273 163.62 349.843 162.495 350.711 161.597C351.578 160.698 352.704 160.067 353.946 159.781H353.966Z" fill="white"/>
<path d="M352.85 151.513C352.942 151.64 351.304 152.77 349.86 154.655C348.416 156.541 347.741 158.367 347.587 158.318C347.808 156.87 348.446 155.509 349.43 154.39C350.273 153.148 351.456 152.152 352.85 151.513Z" fill="white"/>
<path d="M317.021 214.439C317.12 213.889 317.274 213.35 317.481 212.829C317.819 211.847 318.28 210.305 318.823 208.459C320.218 203.638 321.316 198.742 322.11 193.797C322.882 188.85 323.34 183.862 323.482 178.861C323.533 176.897 323.554 175.385 323.543 174.305C323.511 173.748 323.532 173.189 323.605 172.635C323.693 173.188 323.741 173.746 323.748 174.305C323.82 175.375 323.861 176.936 323.861 178.861C323.805 188.925 322.229 198.927 319.181 208.557C318.587 210.403 318.075 211.886 317.676 212.887C317.499 213.42 317.279 213.938 317.021 214.439Z" fill="white"/>
<path d="M317.205 218.269C316.882 218.319 316.554 218.319 316.232 218.269C315.597 218.269 314.696 218.161 313.58 218.014C310.681 217.608 307.834 216.921 305.08 215.961C302.323 214.996 299.677 213.759 297.185 212.269C296.429 211.828 295.698 211.35 294.994 210.835C294.716 210.668 294.464 210.463 294.247 210.227C294.247 210.158 295.445 210.904 297.38 211.965C302.419 214.743 307.92 216.666 313.641 217.65C315.833 218.053 317.215 218.191 317.205 218.269Z" fill="white"/>
<path d="M334.623 190.714C334.691 190.978 334.735 191.248 334.756 191.519C334.828 192.059 334.94 192.835 335.012 193.856C335.253 196.728 335.294 199.611 335.135 202.488C334.918 206.759 334.28 211 333.23 215.156C332.621 217.615 331.872 220.041 330.988 222.423C330.13 225.031 328.837 227.488 327.158 229.699C326.253 230.82 325.08 231.716 323.738 232.311C322.399 232.863 320.917 233.01 319.488 232.734C316.703 232.203 314.481 230.652 312.412 229.316L301.445 222.059L294.062 217.149L292.076 215.784C291.838 215.633 291.613 215.465 291.4 215.283C291.659 215.402 291.906 215.543 292.137 215.706L294.185 216.982L301.65 221.784C304.814 223.827 308.552 226.252 312.689 228.953C314.737 230.279 316.959 231.771 319.58 232.262C320.905 232.504 322.274 232.36 323.513 231.85C324.774 231.282 325.877 230.434 326.728 229.375C328.37 227.208 329.635 224.8 330.476 222.246C331.382 219.891 332.158 217.491 332.8 215.058C333.879 210.933 334.564 206.722 334.848 202.478C335.026 199.613 335.026 196.741 334.848 193.876C334.848 192.894 334.725 192.079 334.695 191.539C334.643 191.267 334.619 190.99 334.623 190.714Z" fill="white"/>
<path d="M442.563 224.799C442.563 224.799 442.471 224.888 442.266 225.015C441.974 225.207 441.669 225.381 441.355 225.536C440.191 226.132 438.947 226.571 437.658 226.842C433.379 227.668 428.942 227.268 424.899 225.693C420.914 224.094 417.189 221.955 413.84 219.339C412.539 218.357 411.515 217.552 410.768 216.973C410.394 216.678 410.051 216.349 409.744 215.991C410.166 216.21 410.564 216.47 410.931 216.767L414.055 218.996C417.436 221.502 421.143 223.575 425.083 225.163C429.042 226.697 433.369 227.139 437.576 226.439C439.301 226.087 440.976 225.537 442.563 224.799Z" fill="white"/>
<path d="M440.443 214.361C440.155 214.631 439.828 214.86 439.47 215.038C438.54 215.584 437.564 216.054 436.552 216.443C433.181 217.746 429.522 218.212 425.914 217.798C422.305 217.385 418.864 216.104 415.908 214.076C415.017 213.468 414.181 212.788 413.41 212.043C413.111 211.786 412.85 211.492 412.631 211.169C412.703 211.101 413.85 212.318 416.123 213.772C419.07 215.679 422.448 216.884 425.978 217.288C429.508 217.691 433.088 217.28 436.419 216.089C438.979 215.205 440.392 214.272 440.443 214.361Z" fill="white"/>
<path d="M279.552 203.941C279.249 203.965 278.944 203.965 278.641 203.941L279.665 203.382L261.56 199.346C261.616 200.06 261.916 200.736 262.414 201.269C262.913 201.802 263.581 202.161 264.315 202.292C265.523 202.577 266.702 202.964 267.837 203.45C262.072 203.156 256.358 202.832 256.358 202.832C256.358 202.832 255.611 204.158 257.669 205.208C259.963 206.189 262.323 207.019 264.735 207.693L256.358 208.675C258.063 209.712 260.043 210.258 262.062 210.246C265.738 210.354 267.858 210.246 267.858 210.246L259.717 213.428C261.529 214.344 263.608 214.655 265.626 214.311C268.759 213.673 283.402 213.624 283.402 213.624L279.552 203.941Z" fill="#FFCEB0"/>
<path d="M270.715 181.591H159.222V225.015H270.715V181.591Z" fill="white"/>
<path d="M270.715 225.016C270.715 225.016 270.715 224.75 270.715 224.24C270.715 223.729 270.715 222.963 270.715 221.981C270.715 220.017 270.715 217.071 270.664 213.33C270.664 205.827 270.602 194.996 270.561 181.591L270.746 181.768L159.263 181.847L159.529 181.591C159.529 196.793 159.529 211.474 159.529 225.016L159.273 224.77L239.145 224.888L262.349 224.957H268.565H270.172H270.735H270.203H268.626H262.482L239.34 225.016L159.263 225.133H159.007V224.888C159.007 211.346 159.007 196.665 159.007 181.464V181.208H159.273L270.756 181.277H270.951V181.464C270.951 194.917 270.869 205.788 270.848 213.31C270.848 217.042 270.848 219.939 270.797 221.922C270.797 222.904 270.797 223.631 270.797 224.142C270.797 224.652 270.715 225.016 270.715 225.016Z" fill="#FFC100"/>
<path d="M195.625 191.539H168.694V217.366H195.625V191.539Z" fill="#FFC100"/>
<path d="M262.994 201.428C262.994 201.516 249.139 201.595 232.049 201.595C214.958 201.595 201.093 201.516 201.093 201.428C201.093 201.339 214.948 201.261 232.049 201.261C249.15 201.261 262.994 201.31 262.994 201.428Z" fill="#FFC100"/>
<path d="M262.994 206.691C262.994 206.78 249.139 206.858 232.049 206.858C214.958 206.858 201.093 206.78 201.093 206.691C201.093 206.603 214.948 206.515 232.049 206.515C249.15 206.515 262.994 206.593 262.994 206.691Z" fill="#FFC100"/>
<path d="M240.947 211.945C240.811 211.961 240.674 211.961 240.538 211.945H239.381H235.111L221.02 211.994L206.93 212.112H202.66H201.503C201.367 212.128 201.229 212.128 201.093 212.112C201.229 212.099 201.367 212.099 201.503 212.112H202.66L206.93 212.053L221.02 212.004L235.111 212.053L239.381 212.112H240.538C240.668 212.043 240.805 211.987 240.947 211.945Z" fill="#FFC100"/>
<path d="M295.045 208.714L282.624 199.984L265.216 195.33C265.216 195.33 264.376 196.145 266.434 198.541C268.493 200.937 275.241 203.569 275.241 203.569C274.79 204.8 274.592 206.104 274.657 207.408C275.09 209.472 276.255 211.329 277.954 212.662C279.652 213.996 281.78 214.725 283.976 214.724H285.092L287.539 220.047L295.045 208.714Z" fill="#FFCEB0"/>
<path d="M267.264 199.346C267.264 199.287 268.073 199.798 269.394 200.485C270.715 201.172 272.579 202.017 274.627 203.009C274.862 203.127 275.098 203.235 275.313 203.352L275.497 203.441L275.446 203.637C275.029 205.275 274.984 206.98 275.313 208.636C275.569 209.893 275.886 210.6 275.815 210.659C275.383 210.072 275.093 209.401 274.965 208.695C274.517 206.99 274.517 205.205 274.965 203.5L275.098 203.785L274.422 203.451C272.374 202.469 270.51 201.565 269.23 200.78C268.492 200.417 267.826 199.932 267.264 199.346Z" fill="#EB996E"/>
<path d="M393.288 141.928C393.553 141.418 393.653 140.843 393.575 140.278C393.531 139.996 393.397 139.735 393.192 139.529C392.986 139.323 392.719 139.183 392.428 139.129C391.934 139.138 391.454 139.292 391.056 139.571C388.418 141.01 385.52 141.956 382.515 142.36L382.413 142.478C382.297 142.674 382.236 142.896 382.236 143.121C382.236 143.347 382.297 143.568 382.413 143.764C382.661 144.171 383.013 144.509 383.437 144.746C384.254 145.274 385.183 145.622 386.157 145.766C387.13 145.91 388.125 145.847 389.071 145.581C390.016 145.315 390.888 144.852 391.626 144.226C392.364 143.599 392.949 142.825 393.339 141.958L393.288 141.928Z" fill="#FFC100"/>
<path d="M361.196 123.3C360.305 118.841 359.148 114.216 356.168 110.74C353.72 107.924 350.227 106.132 346.426 105.741C342.625 105.351 338.815 106.394 335.801 108.648L333.579 110.229C332.107 115.925 331.555 121.804 331.94 127.66C332.155 131.067 334.101 134.485 336.446 137.058C337.572 138.295 339.108 139.189 340.03 140.583C340.849 141.81 341.054 143.313 341.73 144.629C343.778 148.832 349.922 150.226 354.263 148.233C358.605 146.239 361.308 141.722 362.107 137.136C362.906 132.55 362.107 127.866 361.196 123.3Z" fill="#E0E0E0"/>
<path d="M357.55 95.9904C348.887 96.5011 342.743 93.339 338.094 96.5207C336.108 97.8661 327.475 103.139 327.608 105.103C327.742 107.067 331.049 108.658 336.343 109.66L380.457 107.038C385.577 105.418 388.588 103.463 388.465 101.509C388.209 97.4733 374.364 94.9986 357.55 95.9904Z" fill="#FFC100"/>
<g opacity="0.4">
<path d="M339.2 109.356C334.5 108.462 331.448 107.048 331.448 105.31C331.448 100.469 343.122 98.1117 358.072 97.2279C373.023 96.3441 385.249 98.5536 385.474 102.138C385.587 103.866 382.874 105.595 378.378 107.048" fill="black"/>
</g>
<path d="M377.918 105.624C377.692 102.982 376.916 100.41 375.635 98.0615C374.354 95.7126 372.594 93.6345 370.459 91.9502C368.325 90.266 365.859 89.01 363.209 88.2567C360.559 87.5034 357.778 87.2681 355.031 87.5649C344.054 88.7433 336.159 98.3669 336.773 108.933C337.326 118.203 338.084 127.522 338.821 130.812C341.125 140.73 348.037 143.382 350.741 144.059C351.694 144.186 352.658 144.218 353.618 144.158C353.637 144.158 353.655 144.165 353.669 144.178C353.682 144.191 353.69 144.208 353.69 144.226L353.895 156.138L380.775 153.987L377.918 105.624Z" fill="#FFCEB0"/>
<path d="M340.746 115.562C340.767 115.982 340.959 116.378 341.281 116.664C341.602 116.95 342.028 117.105 342.467 117.094C342.681 117.099 342.895 117.063 343.095 116.987C343.295 116.911 343.477 116.797 343.63 116.652C343.783 116.508 343.904 116.335 343.986 116.144C344.067 115.953 344.108 115.748 344.105 115.542C344.084 115.122 343.892 114.726 343.57 114.44C343.249 114.154 342.823 114 342.385 114.01C342.17 114.005 341.956 114.041 341.756 114.117C341.556 114.193 341.374 114.307 341.221 114.452C341.068 114.597 340.947 114.77 340.866 114.96C340.784 115.151 340.743 115.356 340.746 115.562Z" fill="#263238"/>
<path d="M339.753 111.142C339.978 111.349 341.197 110.367 342.999 110.268C344.801 110.17 346.194 110.956 346.378 110.73C346.563 110.504 346.225 110.259 345.621 109.895C344.807 109.417 343.859 109.194 342.907 109.257C341.964 109.316 341.064 109.66 340.337 110.239C339.814 110.671 339.651 111.054 339.753 111.142Z" fill="#263238"/>
<path d="M357.192 114.393C357.226 114.805 357.423 115.188 357.743 115.464C358.063 115.74 358.482 115.887 358.912 115.876C359.127 115.881 359.342 115.845 359.542 115.769C359.743 115.693 359.925 115.58 360.079 115.435C360.233 115.29 360.355 115.118 360.438 114.927C360.52 114.736 360.562 114.531 360.561 114.324C360.537 113.903 360.343 113.508 360.02 113.222C359.696 112.936 359.27 112.782 358.83 112.793C358.612 112.79 358.395 112.83 358.193 112.909C357.99 112.989 357.807 113.107 357.654 113.257C357.501 113.407 357.381 113.584 357.302 113.78C357.222 113.975 357.185 114.184 357.192 114.393Z" fill="#263238"/>
<path d="M357.55 110.426C357.776 110.622 358.994 109.64 360.796 109.542C362.599 109.444 363.991 110.229 364.176 110.003C364.36 109.778 364.022 109.542 363.418 109.169C362.601 108.699 361.655 108.479 360.704 108.54C359.76 108.595 358.859 108.939 358.134 109.522C357.612 109.984 357.448 110.337 357.55 110.426Z" fill="#263238"/>
<path d="M351.816 123.673C350.844 123.446 349.846 123.334 348.846 123.339C348.375 123.339 347.935 123.261 347.822 122.956C347.751 122.504 347.826 122.041 348.037 121.631C348.406 120.531 348.795 119.382 349.194 118.174C350.781 113.264 351.898 109.238 351.693 109.179C351.488 109.12 350.034 113.048 348.447 117.958C348.058 119.176 347.699 120.325 347.351 121.434C347.094 121.984 347.047 122.603 347.218 123.182C347.297 123.334 347.41 123.467 347.55 123.571C347.691 123.675 347.853 123.747 348.027 123.781C348.286 123.832 348.551 123.852 348.815 123.84C349.819 123.907 350.827 123.851 351.816 123.673Z" fill="#263238"/>
<path d="M353.71 144.157C353.71 144.157 360.725 144.295 369.142 138.747C369.142 138.747 366.951 147.761 353.782 147.359L353.71 144.157Z" fill="#EB996E"/>
<path d="M352.84 127.807C353.158 127.372 353.586 127.021 354.084 126.787C354.582 126.554 355.133 126.445 355.687 126.472C356.093 126.489 356.491 126.584 356.857 126.753C357.223 126.922 357.549 127.16 357.817 127.454C358.075 127.728 358.24 128.072 358.289 128.438C358.339 128.805 358.27 129.178 358.093 129.506C357.823 129.835 357.456 130.079 357.04 130.207C356.624 130.335 356.178 130.34 355.758 130.223C354.886 129.983 354.071 129.579 353.362 129.035C353.149 128.908 352.961 128.745 352.809 128.554C352.744 128.457 352.71 128.344 352.71 128.229C352.71 128.115 352.744 128.002 352.809 127.905" fill="#EB996E"/>
<path d="M357.212 124.557C356.915 124.557 357.028 126.442 355.441 127.876C353.854 129.31 351.744 129.231 351.744 129.496C351.744 129.614 352.236 129.83 353.116 129.801C354.26 129.746 355.347 129.308 356.188 128.563C356.998 127.84 357.486 126.844 357.55 125.784C357.591 124.989 357.376 124.537 357.212 124.557Z" fill="#263238"/>
<path d="M356.526 105.005C356.731 105.467 358.523 105.133 360.622 105.251C362.721 105.369 364.513 105.83 364.769 105.388C364.882 105.182 364.554 104.75 363.827 104.337C362.887 103.828 361.834 103.538 360.755 103.493C359.66 103.433 358.565 103.621 357.56 104.043C356.803 104.387 356.434 104.779 356.526 105.005Z" fill="#E0E0E0"/>
<path d="M340.132 106.645C340.48 107.018 341.699 106.537 343.204 106.429C344.709 106.321 345.989 106.527 346.276 106.095C346.389 105.889 346.163 105.506 345.59 105.172C344.816 104.769 343.936 104.595 343.059 104.672C342.182 104.749 341.349 105.073 340.665 105.604C340.132 106.056 339.968 106.458 340.132 106.645Z" fill="#E0E0E0"/>
<path d="M380.14 101.872C380.148 100.806 379.95 99.7469 379.556 98.7496C378.532 96.5696 375.818 95.6661 373.412 95.1751C366.469 93.8003 359.311 94.0065 352.236 94.1931L349.46 95.9902C350.514 97.2731 351.849 98.3175 353.371 99.049C354.893 99.7806 356.565 100.181 358.267 100.223C360.499 100.223 362.998 99.7414 364.759 101.038C366.049 102.02 366.5 103.63 367.135 105.064C368.108 107.244 368.22 109.974 370.452 111.054C372.193 111.869 373.524 111.496 374.825 112.871C376.125 114.246 376.576 116.524 376.74 118.478C376.904 120.432 377.272 123.516 379.156 124.262C378.726 117.172 380.529 109.002 380.14 101.872Z" fill="#E0E0E0"/>
<path d="M331.633 102.953C331.633 102.953 334.848 85.5319 335.207 84.6776C335.565 83.8232 340.142 75.9967 352.205 73.1391L362.281 72.54C362.281 72.54 376.873 76.1145 379.689 79.306C382.505 82.4975 384.676 98.6514 384.676 98.6514L356.004 94.419L337.07 100.046L331.633 102.953Z" fill="#FFC100"/>
<path d="M355.379 70.969L352.594 71.136C352.037 71.1657 351.501 71.3518 351.053 71.6714C350.605 71.9909 350.265 72.4296 350.075 72.933C349.761 73.8217 349.602 74.7541 349.604 75.6924C349.604 78.7072 350.208 99.3586 350.208 99.3586L362.803 98.0722L360.755 72.6286L365.107 73.2964L364.984 72.55C364.912 72.0999 364.698 71.6818 364.37 71.352C364.145 71.1271 363.872 70.9511 363.57 70.8359C363.268 70.7207 362.944 70.669 362.619 70.6842L355.379 70.969Z" fill="#FFC100"/>
<path d="M335.289 104.465L336.231 98.4157L355.615 91.3257L379.792 96.6383L380.222 103.345C380.222 103.345 359.742 96.8936 335.289 104.465Z" fill="#455A64"/>
<path d="M338.053 96.5209L337.265 97.3457L330.906 102.511C339.341 99.4044 348.209 97.5115 357.223 96.894C370.832 96.2262 386.683 99.7222 386.683 99.7222L377.334 95.0479C375.824 93.6777 374.043 92.612 372.096 91.9137C370.149 91.2154 368.075 90.8987 365.998 90.9824L348.897 91.6698C346.845 91.748 344.829 92.2172 342.967 93.0501C341.105 93.8829 339.435 95.0628 338.053 96.5209Z" fill="#FFC100"/>
<path d="M332.861 102.638C332.861 102.638 332.984 102.481 333.261 102.255C333.667 101.908 334.11 101.602 334.582 101.342C336.316 100.417 338.158 99.6914 340.07 99.1817C346.361 97.471 352.888 96.6993 359.424 96.8936C363.223 96.8936 366.868 96.8936 370.186 97.1489C373.112 97.41 376.021 97.8231 378.9 98.3862C380.129 98.6317 381.225 98.9165 382.177 99.2013C383.032 99.3954 383.829 99.7788 384.502 100.321C384.921 100.693 385.183 101.2 385.239 101.745C385.266 101.931 385.23 102.12 385.137 102.285C385.144 101.951 385.074 101.62 384.93 101.315C384.787 101.011 384.574 100.742 384.307 100.527C383.645 100.043 382.879 99.7079 382.065 99.545C381.112 99.2995 380.017 99.0638 378.798 98.8478C376.361 98.4354 373.391 98.0229 370.135 97.7774C366.879 97.5319 363.233 97.6105 359.414 97.5712C352.933 97.3749 346.455 98.0559 340.173 99.5941C338.277 100.065 336.438 100.723 334.684 101.558C333.486 102.187 332.923 102.707 332.861 102.638Z" fill="#263238"/>
<path d="M335.319 104.269C334.377 109.797 328.284 118.881 337.879 123.751C337.879 123.751 337.224 111.967 337.931 107.303C338.056 105.918 338.5 104.576 339.231 103.375" fill="#E0E0E0"/>
<path d="M391.608 120.088C390.912 118.91 389.826 117.948 389.335 116.681C388.986 115.333 388.838 113.944 388.895 112.557C388.575 109.915 387.205 107.494 385.071 105.797C382.936 104.099 380.202 103.256 377.436 103.444L380.252 145.159C387.615 144.727 393.564 135.565 394.035 129.201C394.016 126.019 393.182 122.89 391.608 120.088Z" fill="#E0E0E0"/>
<path d="M381.952 139.65C381.264 139.972 380.504 140.128 379.738 140.104C378.972 140.08 378.224 139.877 377.559 139.512C376.236 138.766 375.144 137.695 374.395 136.409C373.134 134.384 372.398 132.097 372.251 129.743C372.103 127.388 372.547 125.033 373.545 122.877C370.979 120.309 369.113 117.172 368.115 113.746C367.116 110.32 367.015 106.71 367.821 103.237L378.389 103.522L381.952 139.65Z" fill="#E0E0E0"/>
<path d="M330.752 101.45C330.943 101.373 331.122 101.27 331.284 101.146L332.759 100.164C334.07 99.2897 335.892 98.0818 338.135 96.6088L339.302 94.91C339.68 94.2815 340.134 93.6981 340.654 93.1718C341.243 92.6406 341.94 92.2326 342.702 91.9738C343.52 91.736 344.367 91.5974 345.221 91.5613C348.774 91.2471 352.707 91.0605 356.823 90.9329C360.663 90.815 364.329 90.7659 367.698 90.7365C368.5 90.6821 369.306 90.7551 370.084 90.9525C370.806 91.1524 371.481 91.486 372.07 91.9345C373.156 92.9165 374.118 93.8985 375.142 94.7528L382.044 97.3748L383.939 98.0622C384.154 98.1591 384.381 98.2316 384.614 98.2782C384.407 98.1644 384.192 98.0659 383.969 97.9836L382.147 97.2177L375.306 94.4582H375.357C374.415 93.5646 373.463 92.5924 372.285 91.581C371.667 91.0835 370.949 90.7126 370.176 90.491C369.371 90.3142 368.54 90.2645 367.718 90.3437C364.349 90.3437 360.673 90.4026 356.833 90.5106C352.737 90.6383 348.774 90.8347 345.201 91.1784C344.313 91.2197 343.436 91.3715 342.589 91.6301C341.789 91.9129 341.06 92.3546 340.449 92.9263C339.911 93.4725 339.443 94.0792 339.057 94.7332C338.667 95.3322 338.278 95.9018 337.92 96.4517L332.626 100.124L331.203 101.106C331.042 101.208 330.891 101.323 330.752 101.45Z" fill="#263238"/>
<path d="M362.219 90.5695C362.261 90.2862 362.261 89.9985 362.219 89.7152C362.219 89.1751 362.168 88.3797 362.107 87.4075C361.994 85.4435 361.8 82.7823 361.554 79.8166C361.431 78.3338 361.318 76.9295 361.206 75.6333C361.144 74.995 361.093 74.3862 361.032 73.8068C361.02 73.6985 361.033 73.5891 361.068 73.4857C361.104 73.3823 361.161 73.2873 361.238 73.2067C361.314 73.1261 361.407 73.0618 361.511 73.018C361.615 72.9742 361.727 72.9519 361.841 72.9524L364.216 73.247C364.512 73.284 364.811 73.284 365.107 73.247C364.832 73.1392 364.542 73.0666 364.247 73.031C363.684 72.923 362.895 72.7659 361.861 72.5989C361.698 72.5914 361.535 72.6173 361.384 72.6749C361.232 72.7325 361.095 72.8205 360.982 72.933C360.868 73.0454 360.781 73.1798 360.726 73.3271C360.671 73.4744 360.65 73.6312 360.663 73.7871C360.663 74.3665 360.745 74.9754 360.796 75.6137C360.888 76.9099 361.001 78.324 361.114 79.797C361.349 82.743 361.595 85.4435 361.789 87.3878C361.892 88.3698 361.974 89.1358 362.045 89.6857C362.062 89.9865 362.121 90.2837 362.219 90.5695Z" fill="#263238"/>
<path d="M349.983 91.0508C350.146 90.2156 350.221 89.3669 350.208 88.5173C350.259 86.9559 350.208 84.7857 350.157 82.3994C350.106 80.0132 350.003 77.8528 349.922 76.2816C349.921 75.4357 349.846 74.5914 349.696 73.7578C349.591 74.5983 349.56 75.4459 349.604 76.2914C349.604 77.8626 349.604 80.023 349.717 82.4092C349.829 84.7955 349.84 86.8184 349.891 88.5173C349.859 89.3628 349.89 90.2094 349.983 91.0508Z" fill="#263238"/>
<path d="M399.36 124.292C399.141 123.217 398.594 122.228 397.788 121.452C396.982 120.676 395.954 120.147 394.834 119.932C395.234 119.199 395.32 118.345 395.073 117.553C394.826 116.76 394.266 116.092 393.513 115.689C392.489 115.169 391.158 115.247 390.103 114.707C389.525 114.349 389.029 113.882 388.644 113.336C388.259 112.789 387.992 112.173 387.86 111.526C387.615 110.225 387.241 108.949 386.744 107.716C386.487 107.102 386.05 106.573 385.487 106.192C384.924 105.81 384.259 105.593 383.57 105.565L376.402 133.493C376.842 135.453 377.85 137.254 379.31 138.689C380.77 140.124 382.622 141.135 384.654 141.605C386.686 142.076 388.815 141.988 390.797 141.35C392.779 140.712 394.533 139.551 395.858 138C397.814 135.722 398.623 132.108 396.657 129.86C397.631 129.292 398.408 128.46 398.889 127.469C399.37 126.478 399.534 125.372 399.36 124.292Z" fill="#E0E0E0"/>
<path d="M391.547 115.424C391.486 115.424 391.434 115.012 391.127 114.334C390.664 113.401 389.884 112.646 388.915 112.193C387.44 111.569 385.857 111.213 384.246 111.142C382.413 110.976 380.365 110.985 378.215 110.632C377.143 110.463 376.106 110.131 375.143 109.65C374.281 109.192 373.474 108.645 372.736 108.02C371.506 106.956 370.363 105.804 369.316 104.573C368.415 103.542 367.708 102.687 367.268 102.088C366.99 101.791 366.752 101.461 366.562 101.106C367.68 102.088 368.724 103.144 369.685 104.268C370.766 105.439 371.922 106.545 373.146 107.578C373.863 108.17 374.642 108.69 375.47 109.129C376.378 109.557 377.348 109.849 378.348 109.994C380.396 110.347 382.444 110.357 384.318 110.553C385.994 110.654 387.633 111.071 389.141 111.781C390.167 112.3 390.958 113.163 391.363 114.206C391.532 114.59 391.596 115.01 391.547 115.424Z" fill="white"/>
<path d="M398.715 126.874C398.653 126.874 398.561 126.325 398.121 125.392C397.479 124.098 396.537 122.963 395.366 122.072C393.625 120.734 391.628 119.734 389.489 119.126C387.092 118.39 384.369 117.909 381.532 117.015C378.882 116.169 376.442 114.808 374.364 113.018C372.683 111.56 371.154 109.948 369.797 108.207C368.63 106.734 367.749 105.487 367.176 104.622C366.848 104.19 366.564 103.73 366.326 103.248C366.709 103.63 367.052 104.048 367.35 104.495C367.995 105.32 368.906 106.518 370.114 107.942C371.491 109.628 373.027 111.19 374.702 112.606C376.753 114.324 379.141 115.633 381.727 116.455C384.471 117.339 387.236 117.83 389.663 118.616C391.856 119.243 393.891 120.296 395.643 121.709C396.836 122.675 397.762 123.91 398.336 125.303C398.489 125.677 398.599 126.065 398.664 126.462C398.725 126.737 398.735 126.874 398.715 126.874Z" fill="white"/>
<path d="M332.339 119.509C332.328 118.712 332.439 117.919 332.667 117.152C333.078 115.287 333.619 113.45 334.285 111.653C334.935 109.851 335.712 108.092 336.609 106.39C336.93 105.656 337.361 104.971 337.889 104.357C338.053 104.435 336.384 107.666 334.817 111.85C333.25 116.033 332.523 119.539 332.339 119.509Z" fill="white"/>
<path d="M365.496 111.948C365.63 111.948 365.394 112.616 364.667 112.93C363.94 113.244 363.326 112.93 363.387 112.783C363.448 112.635 363.93 112.665 364.472 112.459C365.015 112.252 365.363 111.84 365.496 111.948Z" fill="#EB996E"/>
<path d="M365.568 113.971C365.486 114.099 364.964 113.971 364.309 113.814C363.653 113.657 363.1 113.696 363.069 113.559C363.039 113.421 363.643 113.185 364.401 113.313C365.158 113.441 365.64 113.912 365.568 113.971Z" fill="#EB996E"/>
<path d="M360.561 124.183C360.427 124.262 360.018 123.83 359.352 123.565C358.687 123.3 358.093 123.28 358.062 123.133C358.031 122.985 358.748 122.75 359.567 123.133C360.386 123.516 360.694 124.124 360.561 124.183Z" fill="#EB996E"/>
<path d="M339.968 115.238C339.968 115.365 339.528 115.355 339.077 115.238C338.626 115.12 338.299 114.864 338.35 114.727C338.401 114.589 338.79 114.599 339.241 114.727C339.691 114.855 339.968 115.1 339.968 115.238Z" fill="#EB996E"/>
<path d="M339.272 116.161C339.354 116.279 339.139 116.544 338.739 116.613C338.34 116.681 338.043 116.505 338.084 116.367C338.125 116.23 338.371 116.161 338.647 116.112C338.924 116.063 339.19 116.043 339.272 116.161Z" fill="#EB996E"/>
<path d="M372.879 152.21C372.76 150.628 372.815 149.038 373.043 147.467C373.128 146.899 373.068 146.319 372.869 145.778C372.601 145.339 372.365 144.883 372.163 144.413C372.102 144.233 372.083 144.042 372.106 143.854C372.129 143.666 372.194 143.485 372.296 143.323C372.47 143.097 372.644 143.077 372.654 143.097C372.664 143.117 372.562 143.225 372.48 143.421C372.369 143.706 372.369 144.02 372.48 144.305C372.623 144.668 372.982 145.032 373.269 145.582C373.54 146.201 373.632 146.88 373.535 147.546C373.494 149.119 373.274 150.683 372.879 152.21Z" fill="#EB996E"/>
</svg>
