<?xml version="1.0" encoding="UTF-8"?><svg xmlns="http://www.w3.org/2000/svg" xmlns:xlink="http://www.w3.org/1999/xlink" width="1440" zoomAndPan="magnify" viewBox="0 0 1440 809.999993" height="809.999993" preserveAspectRatio="xMidYMid meet" version="1.0"><defs><clipPath id="clip-0"><path d="M 1422 0 L 1440 0 L 1440 57 L 1422 57 Z M 1422 0 " clip-rule="nonzero"/></clipPath><clipPath id="clip-1"><path d="M -7.984375 -501.375 L 1677.300781 -182.152344 L 1360.449219 1490.605469 L -324.835938 1171.378906 Z M -7.984375 -501.375 " clip-rule="nonzero"/></clipPath><clipPath id="clip-2"><path d="M -7.984375 -501.375 L 1677.300781 -182.152344 L 1360.449219 1490.605469 L -324.835938 1171.378906 Z M -7.984375 -501.375 " clip-rule="nonzero"/></clipPath><clipPath id="clip-3"><path d="M 1060 206 L 1317 206 L 1317 465 L 1060 465 Z M 1060 206 " clip-rule="nonzero"/></clipPath><clipPath id="clip-4"><path d="M -7.984375 -501.375 L 1677.300781 -182.152344 L 1360.449219 1490.605469 L -324.835938 1171.378906 Z M -7.984375 -501.375 " clip-rule="nonzero"/></clipPath><clipPath id="clip-5"><path d="M -7.984375 -501.375 L 1677.300781 -182.152344 L 1360.449219 1490.605469 L -324.835938 1171.378906 Z M -7.984375 -501.375 " clip-rule="nonzero"/></clipPath><clipPath id="clip-6"><path d="M 468 146 L 714 146 L 714 429 L 468 429 Z M 468 146 " clip-rule="nonzero"/></clipPath><clipPath id="clip-7"><path d="M -7.984375 -501.375 L 1677.300781 -182.152344 L 1360.449219 1490.605469 L -324.835938 1171.378906 Z M -7.984375 -501.375 " clip-rule="nonzero"/></clipPath><clipPath id="clip-8"><path d="M -7.984375 -501.375 L 1677.300781 -182.152344 L 1360.449219 1490.605469 L -324.835938 1171.378906 Z M -7.984375 -501.375 " clip-rule="nonzero"/></clipPath><clipPath id="clip-9"><path d="M 0 47 L 111 47 L 111 309 L 0 309 Z M 0 47 " clip-rule="nonzero"/></clipPath><clipPath id="clip-10"><path d="M -7.984375 -501.375 L 1677.300781 -182.152344 L 1360.449219 1490.605469 L -324.835938 1171.378906 Z M -7.984375 -501.375 " clip-rule="nonzero"/></clipPath><clipPath id="clip-11"><path d="M -7.984375 -501.375 L 1677.300781 -182.152344 L 1360.449219 1490.605469 L -324.835938 1171.378906 Z M -7.984375 -501.375 " clip-rule="nonzero"/></clipPath><clipPath id="clip-12"><path d="M 1181 744 L 1440 744 L 1440 810 L 1181 810 Z M 1181 744 " clip-rule="nonzero"/></clipPath><clipPath id="clip-13"><path d="M -7.984375 -501.375 L 1677.300781 -182.152344 L 1360.449219 1490.605469 L -324.835938 1171.378906 Z M -7.984375 -501.375 " clip-rule="nonzero"/></clipPath><clipPath id="clip-14"><path d="M -7.984375 -501.375 L 1677.300781 -182.152344 L 1360.449219 1490.605469 L -324.835938 1171.378906 Z M -7.984375 -501.375 " clip-rule="nonzero"/></clipPath><clipPath id="clip-15"><path d="M 631 604 L 886 604 L 886 810 L 631 810 Z M 631 604 " clip-rule="nonzero"/></clipPath><clipPath id="clip-16"><path d="M -7.984375 -501.375 L 1677.300781 -182.152344 L 1360.449219 1490.605469 L -324.835938 1171.378906 Z M -7.984375 -501.375 " clip-rule="nonzero"/></clipPath><clipPath id="clip-17"><path d="M -7.984375 -501.375 L 1677.300781 -182.152344 L 1360.449219 1490.605469 L -324.835938 1171.378906 Z M -7.984375 -501.375 " clip-rule="nonzero"/></clipPath><clipPath id="clip-18"><path d="M 62 535 L 360 535 L 360 721 L 62 721 Z M 62 535 " clip-rule="nonzero"/></clipPath><clipPath id="clip-19"><path d="M -7.984375 -501.375 L 1677.300781 -182.152344 L 1360.449219 1490.605469 L -324.835938 1171.378906 Z M -7.984375 -501.375 " clip-rule="nonzero"/></clipPath><clipPath id="clip-20"><path d="M -7.984375 -501.375 L 1677.300781 -182.152344 L 1360.449219 1490.605469 L -324.835938 1171.378906 Z M -7.984375 -501.375 " clip-rule="nonzero"/></clipPath></defs><g clip-path="url(#clip-0)"><g clip-path="url(#clip-1)"><g clip-path="url(#clip-2)"><path fill="rgb(92.939758%, 94.509888%, 94.898987%)" d="M 1452.785156 -201.722656 C 1442.894531 -129.164062 1433.054688 -56.589844 1423.167969 15.96875 C 1420.90625 32.996094 1422.503906 34.210938 1439.273438 36.476562 C 1477.855469 41.703125 1539.402344 50.519531 1577.988281 55.75 C 1595.453125 58.09375 1597.507812 56.351562 1600 37.847656 C 1601.300781 28.300781 1602.609375 18.703125 1603.910156 9.160156 C 1606.339844 -8.75 1604.726562 -11.746094 1586.023438 -14.269531 C 1571.289062 -16.300781 1533.574219 -21.820312 1518.828125 -23.804688 C 1501.570312 -26.160156 1500.195312 -27.484375 1502.433594 -43.855469 C 1509.121094 -93.074219 1515.804688 -142.292969 1522.488281 -191.515625 C 1524.988281 -210.066406 1524.046875 -211.261719 1505.800781 -213.753906 C 1496.839844 -214.941406 1487.941406 -216.171875 1478.984375 -217.363281 C 1456.925781 -220.371094 1455.066406 -218.59375 1452.785156 -201.722656 " fill-opacity="1" fill-rule="evenodd"/></g></g></g><g clip-path="url(#clip-3)"><g clip-path="url(#clip-4)"><g clip-path="url(#clip-5)"><path fill="rgb(96.469116%, 97.24884%, 97.648621%)" d="M 1063.722656 248.363281 C 1092.011719 315.980469 1120.257812 383.539062 1148.507812 451.09375 C 1155.140625 466.964844 1157.136719 467.140625 1172.78125 460.613281 C 1208.65625 445.59375 1266.199219 421.988281 1302.121094 406.976562 C 1318.378906 400.160156 1319.265625 397.636719 1312.027344 380.386719 C 1308.339844 371.46875 1304.59375 362.589844 1300.894531 353.71875 C 1293.910156 337.023438 1291 335.253906 1273.59375 342.511719 C 1259.867188 348.28125 1224.53125 362.59375 1210.753906 368.359375 C 1194.78125 375.023438 1192.878906 374.613281 1186.523438 359.40625 C 1167.355469 313.558594 1148.183594 267.710938 1129.015625 221.867188 C 1121.828125 204.621094 1120.367188 204.042969 1103.390625 211.175781 C 1095.066406 214.671875 1086.75 218.121094 1078.378906 221.609375 C 1057.875 230.207031 1057.199219 232.71875 1063.722656 248.363281 " fill-opacity="1" fill-rule="evenodd"/></g></g></g><g clip-path="url(#clip-6)"><g clip-path="url(#clip-7)"><g clip-path="url(#clip-8)"><path fill="rgb(92.939758%, 94.509888%, 94.898987%)" d="M 662.589844 152.542969 C 601.625 193.15625 540.707031 233.777344 479.78125 274.445312 C 465.496094 283.96875 465.671875 285.980469 475.074219 300.09375 C 496.640625 332.488281 530.839844 384.429688 552.40625 416.828125 C 562.214844 431.472656 564.886719 431.828125 580.394531 421.46875 C 588.40625 416.136719 596.476562 410.765625 604.488281 405.433594 C 619.53125 395.394531 620.691406 392.214844 610.21875 376.53125 C 601.964844 364.109375 581.128906 332.15625 572.867188 319.785156 C 563.226562 305.324219 563.335938 303.414062 577.046875 294.242188 C 618.386719 266.707031 659.734375 239.121094 701.027344 211.578125 C 716.59375 201.183594 716.882812 199.664062 706.695312 184.339844 C 701.671875 176.84375 696.648438 169.34375 691.632812 161.800781 C 679.261719 143.269531 676.707031 143.089844 662.589844 152.542969 " fill-opacity="1" fill-rule="evenodd"/></g></g></g><g clip-path="url(#clip-9)"><g clip-path="url(#clip-10)"><g clip-path="url(#clip-11)"><path fill="rgb(96.469116%, 97.24884%, 97.648621%)" d="M 110.074219 282.453125 C 101.578125 209.710938 93.183594 136.980469 84.699219 64.1875 C 82.753906 47.125 80.871094 46.363281 64.007812 48.34375 C 25.355469 52.84375 -36.445312 59.558594 -75.09375 64.058594 C -92.632812 66.113281 -94.164062 68.3125 -92 86.886719 C -90.867188 96.4375 -89.792969 106.027344 -88.667969 115.625 C -86.589844 133.578125 -84.265625 136.046875 -65.535156 133.859375 C -50.75 132.144531 -12.808594 128.167969 1.976562 126.453125 C 19.242188 124.5 20.894531 125.421875 22.808594 141.816406 C 28.535156 191.152344 34.257812 240.492188 39.980469 289.828125 C 42.144531 308.402344 43.386719 309.347656 61.644531 307.226562 C 70.621094 306.1875 79.59375 305.144531 88.570312 304.105469 C 110.667969 301.542969 112.003906 299.3125 110.074219 282.453125 " fill-opacity="1" fill-rule="evenodd"/></g></g></g><g clip-path="url(#clip-12)"><g clip-path="url(#clip-13)"><g clip-path="url(#clip-14)"><path fill="rgb(92.939758%, 94.509888%, 94.898987%)" d="M 1446.914062 951.03125 C 1412.359375 886.488281 1377.816406 821.902344 1343.273438 757.3125 C 1335.128906 742.171875 1333.15625 742.152344 1318.191406 750.175781 C 1283.863281 768.535156 1228.863281 797.492188 1194.527344 815.902344 C 1179.007812 824.175781 1178.398438 826.851562 1187.210938 843.285156 C 1191.734375 851.804688 1196.269531 860.273438 1200.84375 868.800781 C 1209.34375 884.71875 1212.410156 886.214844 1229.066406 877.292969 C 1242.164062 870.285156 1276 852.644531 1289.148438 845.644531 C 1304.453125 837.433594 1306.332031 837.6875 1314.125 852.253906 C 1337.546875 896.015625 1361.007812 939.832031 1384.46875 983.648438 C 1393.269531 1000.132812 1394.761719 1000.566406 1410.96875 991.867188 C 1418.933594 987.589844 1426.945312 983.324219 1434.898438 979.097656 C 1454.503906 968.550781 1454.925781 966.046875 1446.914062 951.03125 " fill-opacity="1" fill-rule="evenodd"/></g></g></g><g clip-path="url(#clip-15)"><g clip-path="url(#clip-16)"><g clip-path="url(#clip-17)"><path fill="rgb(96.469116%, 97.24884%, 97.648621%)" d="M 677.066406 867.617188 C 742.3125 834.410156 807.652344 801.222656 872.898438 768.019531 C 888.21875 760.265625 888.296875 758.25 880.605469 743.144531 C 862.976562 708.449219 835.160156 652.796875 817.53125 618.097656 C 809.550781 602.378906 806.933594 601.730469 790.308594 610.203125 C 781.671875 614.554688 773.085938 618.914062 764.496094 623.273438 C 748.378906 631.488281 746.84375 634.492188 755.425781 651.339844 C 762.148438 664.589844 779.058594 698.792969 785.785156 712.042969 C 793.65625 727.539062 793.34375 729.457031 778.636719 736.921875 C 734.390625 759.441406 690.097656 781.949219 645.800781 804.460938 C 629.128906 812.921875 628.695312 814.414062 637.007812 830.804688 C 641.117188 838.835938 645.167969 846.910156 649.277344 854.945312 C 659.363281 874.816406 661.910156 875.300781 677.066406 867.617188 " fill-opacity="1" fill-rule="evenodd"/></g></g></g><g clip-path="url(#clip-18)"><g clip-path="url(#clip-19)"><g clip-path="url(#clip-20)"><path fill="rgb(92.939758%, 94.509888%, 94.898987%)" d="M 345.613281 620.089844 C 277.496094 593.183594 209.390625 566.230469 141.324219 539.332031 C 125.324219 533.003906 123.761719 534.28125 117.53125 550.046875 C 103.214844 586.25 79.964844 643.902344 65.648438 680.109375 C 59.195312 696.492188 60.414062 698.90625 77.777344 705.796875 C 86.75 709.324219 95.714844 712.898438 104.6875 716.421875 C 121.492188 723.058594 124.796875 722.210938 131.726562 704.648438 C 137.1875 690.816406 151.589844 655.492188 157.101562 641.667969 C 163.457031 625.519531 165.078125 624.457031 180.414062 630.558594 C 226.628906 648.800781 272.832031 667.089844 319.050781 685.332031 C 336.414062 692.226562 337.804688 691.574219 344.59375 674.492188 C 347.910156 666.089844 351.226562 657.6875 354.542969 649.285156 C 362.730469 628.558594 361.425781 626.332031 345.613281 620.089844 " fill-opacity="1" fill-rule="evenodd"/></g></g></g></svg>