<svg width="20" height="17" viewBox="0 0 20 17" fill="none" xmlns="http://www.w3.org/2000/svg">
<path d="M8 7.5C6.9 7.5 6 7.15 5.3 6.45C4.6 5.75 4.25 4.85 4.25 3.75C4.25 2.65 4.6 1.75 5.3 1.05C6 0.35 6.9 0 8 0C9.1 0 10 0.35 10.7 1.05C11.4 1.75 11.75 2.65 11.75 3.75C11.75 4.85 11.4 5.75 10.7 6.45C10 7.15 9.1 7.5 8 7.5ZM0 15.525V13.175C0 12.5917 0.145833 12.0667 0.4375 11.6C0.729167 11.1333 1.15 10.775 1.7 10.525C2.9 9.99167 4.0125 9.60833 5.0375 9.375C6.0625 9.14167 7.05 9.025 8 9.025H8.575C8.475 9.25833 8.4 9.4875 8.35 9.7125C8.3 9.9375 8.25833 10.2083 8.225 10.525H8C7.03333 10.525 6.0875 10.6292 5.1625 10.8375C4.2375 11.0458 3.28333 11.3917 2.3 11.875C2.03333 12.0083 1.83333 12.1958 1.7 12.4375C1.56667 12.6792 1.5 12.925 1.5 13.175V14.025H8.225C8.30833 14.325 8.40833 14.5958 8.525 14.8375C8.64167 15.0792 8.78333 15.3083 8.95 15.525H0ZM14.675 16.625L14.425 14.975C14.1417 14.8917 13.8542 14.7708 13.5625 14.6125C13.2708 14.4542 13.025 14.275 12.825 14.075L11.45 14.375L10.825 13.325L12 12.225C11.9667 12.075 11.95 11.8667 11.95 11.6C11.95 11.3333 11.9667 11.125 12 10.975L10.825 9.875L11.45 8.825L12.825 9.125C13.025 8.925 13.2708 8.74583 13.5625 8.5875C13.8542 8.42917 14.1417 8.30833 14.425 8.225L14.675 6.575H16.025L16.275 8.225C16.5583 8.30833 16.8458 8.42917 17.1375 8.5875C17.4292 8.74583 17.675 8.925 17.875 9.125L19.25 8.825L19.875 9.875L18.7 10.975C18.7333 11.125 18.75 11.3333 18.75 11.6C18.75 11.8667 18.7333 12.075 18.7 12.225L19.875 13.325L19.25 14.375L17.875 14.075C17.675 14.275 17.4292 14.4542 17.1375 14.6125C16.8458 14.7708 16.5583 14.8917 16.275 14.975L16.025 16.625H14.675ZM15.35 13.6C15.95 13.6 16.4333 13.4167 16.8 13.05C17.1667 12.6833 17.35 12.2 17.35 11.6C17.35 11 17.1667 10.5167 16.8 10.15C16.4333 9.78333 15.95 9.6 15.35 9.6C14.75 9.6 14.2667 9.78333 13.9 10.15C13.5333 10.5167 13.35 11 13.35 11.6C13.35 12.2 13.5333 12.6833 13.9 13.05C14.2667 13.4167 14.75 13.6 15.35 13.6ZM8 6C8.65 6 9.1875 5.7875 9.6125 5.3625C10.0375 4.9375 10.25 4.4 10.25 3.75C10.25 3.1 10.0375 2.5625 9.6125 2.1375C9.1875 1.7125 8.65 1.5 8 1.5C7.35 1.5 6.8125 1.7125 6.3875 2.1375C5.9625 2.5625 5.75 3.1 5.75 3.75C5.75 4.4 5.9625 4.9375 6.3875 5.3625C6.8125 5.7875 7.35 6 8 6Z" fill="#222B37"/>
</svg>
