<svg width="35" height="35" viewBox="0 0 35 35" fill="none" xmlns="http://www.w3.org/2000/svg">
<circle cx="17.5" cy="17.5" r="16.5" fill="#C4C4C4" stroke="#424242" stroke-width="2"/>
<circle cx="17.7647" cy="9.35294" r="4.35294" fill="#C4C4C4" stroke="#424242" stroke-width="2"/>
<path d="M25.5833 24.7971C25.5833 25.895 25.3511 26.5308 25.056 26.9204C24.7662 27.303 24.3186 27.5767 23.617 27.7539C22.8998 27.935 21.9998 27.9943 20.9036 27.9996C20.3614 28.0022 19.7897 27.9919 19.1829 27.9806L19.1398 27.9798C18.5495 27.9688 17.9285 27.9572 17.2917 27.9572C16.6548 27.9572 16.0339 27.9688 15.4436 27.9798L15.4005 27.9806C14.7936 27.9919 14.2219 28.0022 13.6798 27.9996C12.5835 27.9943 11.6836 27.935 10.9663 27.7539C10.2648 27.5767 9.81715 27.303 9.52735 26.9204C9.23225 26.5308 9 25.895 9 24.7971C9 20.4645 12.6729 16.8824 17.2917 16.8824C21.9105 16.8824 25.5833 20.4645 25.5833 24.7971Z" fill="#C4C4C4" stroke="#424242" stroke-width="2"/>
</svg>
