<svg xmlns="http://www.w3.org/2000/svg" viewBox="0 0 750 500"><g id="freepik--background-complete--inject-89"><rect x="60.37" y="332.99" width="30.2" height="127.69" transform="translate(150.93 793.68) rotate(180)" style="fill:#ebebeb"></rect><rect x="75.76" y="341.94" width="9.18" height="17.69" transform="translate(160.7 701.57) rotate(180)" style="fill:#fff"></rect><path d="M80.09,359.63c.07,0,.12-4,.12-8.84s0-8.85-.12-8.85-.12,4-.12,8.85S80,359.63,80.09,359.63Z" style="fill:#e0e0e0"></path><path d="M75.76,348.09c0,.06,2,.12,4.59.12s4.59-.06,4.59-.12a41.22,41.22,0,0,0-4.59-.13A41.07,41.07,0,0,0,75.76,348.09Z" style="fill:#e0e0e0"></path><path d="M75.71,354.41a43.5,43.5,0,0,0,4.63.12,43.38,43.38,0,0,0,4.62-.12,43.38,43.38,0,0,0-4.62-.12A43.5,43.5,0,0,0,75.71,354.41Z" style="fill:#e0e0e0"></path><rect x="75.76" y="365.04" width="9.18" height="17.69" transform="translate(160.7 747.77) rotate(180)" style="fill:#fff"></rect><path d="M80.09,382.73c.07,0,.12-4,.12-8.84s0-8.85-.12-8.85-.12,4-.12,8.85S80,382.73,80.09,382.73Z" style="fill:#e0e0e0"></path><path d="M75.76,371.19a42.72,42.72,0,0,0,4.59.12,42.87,42.87,0,0,0,4.59-.12,41.22,41.22,0,0,0-4.59-.13A41.07,41.07,0,0,0,75.76,371.19Z" style="fill:#e0e0e0"></path><path d="M75.71,377.51a41.82,41.82,0,0,0,4.63.13,41.7,41.7,0,0,0,4.62-.13,43.38,43.38,0,0,0-4.62-.12A43.5,43.5,0,0,0,75.71,377.51Z" style="fill:#e0e0e0"></path><rect x="75.76" y="388.14" width="9.18" height="17.69" transform="translate(160.7 793.97) rotate(180)" style="fill:#fff"></rect><path d="M80.09,405.83c.07,0,.12-4,.12-8.84s0-8.85-.12-8.85S80,392.1,80,397,80,405.83,80.09,405.83Z" style="fill:#e0e0e0"></path><path d="M75.76,394.29a42.72,42.72,0,0,0,4.59.12,42.87,42.87,0,0,0,4.59-.12,42.87,42.87,0,0,0-4.59-.12A42.72,42.72,0,0,0,75.76,394.29Z" style="fill:#e0e0e0"></path><path d="M75.71,400.61a41.82,41.82,0,0,0,4.63.13,41.7,41.7,0,0,0,4.62-.13c0-.06-2.07-.12-4.62-.12S75.71,400.55,75.71,400.61Z" style="fill:#e0e0e0"></path><rect x="75.76" y="411.25" width="9.18" height="17.69" transform="translate(160.7 840.18) rotate(180)" style="fill:#fff"></rect><path d="M80.09,428.93c.07,0,.12-4,.12-8.84s0-8.84-.12-8.84S80,415.2,80,420.09,80,428.93,80.09,428.93Z" style="fill:#e0e0e0"></path><path d="M75.76,417.39a42.72,42.72,0,0,0,4.59.12,42.87,42.87,0,0,0,4.59-.12,42.87,42.87,0,0,0-4.59-.12A42.72,42.72,0,0,0,75.76,417.39Z" style="fill:#e0e0e0"></path><path d="M75.71,423.71a41.82,41.82,0,0,0,4.63.13,41.7,41.7,0,0,0,4.62-.13c0-.06-2.07-.12-4.62-.12S75.71,423.65,75.71,423.71Z" style="fill:#e0e0e0"></path><rect x="47.53" y="332.99" width="22" height="127.69" transform="translate(117.06 793.68) rotate(180)" style="fill:#e0e0e0"></rect><rect x="53.52" y="341.94" width="9.18" height="17.69" transform="translate(116.21 701.57) rotate(180)" style="fill:#fff"></rect><path d="M57.85,359.63c.07,0,.12-4,.12-8.84s0-8.85-.12-8.85-.12,4-.12,8.85S57.78,359.63,57.85,359.63Z" style="fill:#e0e0e0"></path><path d="M53.52,348.09c0,.06,2,.12,4.59.12s4.59-.06,4.59-.12a41.22,41.22,0,0,0-4.59-.13A41.07,41.07,0,0,0,53.52,348.09Z" style="fill:#e0e0e0"></path><path d="M53.47,354.41a43.5,43.5,0,0,0,4.63.12,43.38,43.38,0,0,0,4.62-.12,43.38,43.38,0,0,0-4.62-.12A43.5,43.5,0,0,0,53.47,354.41Z" style="fill:#e0e0e0"></path><rect x="53.52" y="365.23" width="9.18" height="17.69" transform="translate(116.21 748.15) rotate(180)" style="fill:#fff"></rect><path d="M57.85,382.92c.07,0,.12-4,.12-8.84s0-8.85-.12-8.85-.12,4-.12,8.85S57.78,382.92,57.85,382.92Z" style="fill:#e0e0e0"></path><path d="M53.52,371.38c0,.06,2,.12,4.59.12s4.59-.06,4.59-.12a41.22,41.22,0,0,0-4.59-.13A41.07,41.07,0,0,0,53.52,371.38Z" style="fill:#e0e0e0"></path><path d="M53.47,377.7a43.5,43.5,0,0,0,4.63.12,43.38,43.38,0,0,0,4.62-.12,43.38,43.38,0,0,0-4.62-.12A43.5,43.5,0,0,0,53.47,377.7Z" style="fill:#e0e0e0"></path><rect x="53.52" y="388.52" width="9.18" height="17.69" transform="translate(116.21 794.73) rotate(180)" style="fill:#fff"></rect><path d="M57.85,406.21c.07,0,.12-4,.12-8.84s0-8.85-.12-8.85-.12,4-.12,8.85S57.78,406.21,57.85,406.21Z" style="fill:#e0e0e0"></path><path d="M53.52,394.67a42.72,42.72,0,0,0,4.59.12,42.87,42.87,0,0,0,4.59-.12,42.87,42.87,0,0,0-4.59-.12A42.72,42.72,0,0,0,53.52,394.67Z" style="fill:#e0e0e0"></path><path d="M53.47,401a41.82,41.82,0,0,0,4.63.13,41.7,41.7,0,0,0,4.62-.13,43.38,43.38,0,0,0-4.62-.12A43.5,43.5,0,0,0,53.47,401Z" style="fill:#e0e0e0"></path><rect x="53.52" y="411.81" width="9.18" height="17.69" transform="translate(116.21 841.31) rotate(180)" style="fill:#fff"></rect><path d="M57.85,429.5c.07,0,.12-4,.12-8.84s0-8.85-.12-8.85-.12,4-.12,8.85S57.78,429.5,57.85,429.5Z" style="fill:#e0e0e0"></path><path d="M53.52,418a42.72,42.72,0,0,0,4.59.12A42.87,42.87,0,0,0,62.7,418a42.87,42.87,0,0,0-4.59-.12A42.72,42.72,0,0,0,53.52,418Z" style="fill:#e0e0e0"></path><path d="M53.47,424.28a41.82,41.82,0,0,0,4.63.13,41.7,41.7,0,0,0,4.62-.13c0-.06-2.07-.12-4.62-.12S53.47,424.22,53.47,424.28Z" style="fill:#e0e0e0"></path><rect x="75.76" y="434.35" width="9.18" height="17.69" transform="translate(160.7 886.38) rotate(180)" style="fill:#fff"></rect><path d="M80.09,452c.07,0,.12-4,.12-8.84s0-8.84-.12-8.84-.12,4-.12,8.84S80,452,80.09,452Z" style="fill:#e0e0e0"></path><path d="M75.76,440.49a42.72,42.72,0,0,0,4.59.12,42.87,42.87,0,0,0,4.59-.12,42.87,42.87,0,0,0-4.59-.12A42.72,42.72,0,0,0,75.76,440.49Z" style="fill:#e0e0e0"></path><path d="M75.71,446.82c0,.06,2.07.12,4.63.12s4.62-.06,4.62-.12a41.7,41.7,0,0,0-4.62-.13A41.82,41.82,0,0,0,75.71,446.82Z" style="fill:#e0e0e0"></path><rect x="53.52" y="435.1" width="9.18" height="17.69" transform="translate(116.21 887.9) rotate(180)" style="fill:#fff"></rect><path d="M57.85,452.79c.07,0,.12-4,.12-8.84s0-8.85-.12-8.85-.12,4-.12,8.85S57.78,452.79,57.85,452.79Z" style="fill:#e0e0e0"></path><path d="M53.52,441.25a42.72,42.72,0,0,0,4.59.12,42.87,42.87,0,0,0,4.59-.12,42.87,42.87,0,0,0-4.59-.12A42.72,42.72,0,0,0,53.52,441.25Z" style="fill:#e0e0e0"></path><path d="M53.47,447.57a41.82,41.82,0,0,0,4.63.13,41.7,41.7,0,0,0,4.62-.13c0-.06-2.07-.12-4.62-.12S53.47,447.51,53.47,447.57Z" style="fill:#e0e0e0"></path><rect x="382.47" y="220.53" width="35.53" height="150.24" transform="translate(800.48 591.3) rotate(180)" style="fill:#ebebeb"></rect><rect x="400.58" y="231.06" width="10.8" height="20.81" transform="translate(811.96 482.93) rotate(180)" style="fill:#fff"></rect><path d="M405.68,251.87c.08,0,.14-4.66.14-10.4s-.06-10.41-.14-10.41-.15,4.66-.15,10.41S405.6,251.87,405.68,251.87Z" style="fill:#e0e0e0"></path><path d="M400.58,238.29a97.27,97.27,0,0,0,10.8,0,104.21,104.21,0,0,0-10.8,0Z" style="fill:#e0e0e0"></path><path d="M400.52,245.73a98.9,98.9,0,0,0,10.89,0,106,106,0,0,0-10.89,0Z" style="fill:#e0e0e0"></path><rect x="400.58" y="258.24" width="10.8" height="20.81" transform="translate(811.96 537.29) rotate(180)" style="fill:#fff"></rect><path d="M405.68,279.05c.08,0,.14-4.66.14-10.4s-.06-10.41-.14-10.41-.15,4.66-.15,10.41S405.6,279.05,405.68,279.05Z" style="fill:#e0e0e0"></path><path d="M400.58,265.47a97.27,97.27,0,0,0,10.8,0,104.21,104.21,0,0,0-10.8,0Z" style="fill:#e0e0e0"></path><path d="M400.52,272.91a98.9,98.9,0,0,0,10.89,0,106,106,0,0,0-10.89,0Z" style="fill:#e0e0e0"></path><rect x="400.58" y="285.42" width="10.8" height="20.81" transform="translate(811.96 591.65) rotate(180)" style="fill:#fff"></rect><path d="M405.68,306.23c.08,0,.14-4.66.14-10.4s-.06-10.41-.14-10.41-.15,4.66-.15,10.41S405.6,306.23,405.68,306.23Z" style="fill:#e0e0e0"></path><path d="M400.58,292.65a104.21,104.21,0,0,0,10.8,0,104.21,104.21,0,0,0-10.8,0Z" style="fill:#e0e0e0"></path><path d="M400.52,300.09a98.9,98.9,0,0,0,10.89,0,106,106,0,0,0-10.89,0Z" style="fill:#e0e0e0"></path><rect x="400.58" y="312.6" width="10.8" height="20.81" transform="translate(811.96 646.01) rotate(180)" style="fill:#fff"></rect><path d="M405.68,333.41c.08,0,.14-4.66.14-10.41s-.06-10.4-.14-10.4-.15,4.66-.15,10.4S405.6,333.41,405.68,333.41Z" style="fill:#e0e0e0"></path><path d="M400.58,319.83a104.21,104.21,0,0,0,10.8,0,104.21,104.21,0,0,0-10.8,0Z" style="fill:#e0e0e0"></path><path d="M400.52,327.27a98.9,98.9,0,0,0,10.89,0,106,106,0,0,0-10.89,0Z" style="fill:#e0e0e0"></path><rect x="367.37" y="220.53" width="25.88" height="150.24" transform="translate(760.62 591.3) rotate(180)" style="fill:#e0e0e0"></rect><rect x="374.41" y="231.06" width="10.8" height="20.81" transform="translate(759.63 482.93) rotate(180)" style="fill:#fff"></rect><path d="M379.51,251.87c.08,0,.14-4.66.14-10.4s-.06-10.41-.14-10.41-.14,4.66-.14,10.41S379.43,251.87,379.51,251.87Z" style="fill:#e0e0e0"></path><path d="M374.41,238.29a97.27,97.27,0,0,0,10.8,0,104.21,104.21,0,0,0-10.8,0Z" style="fill:#e0e0e0"></path><path d="M374.36,245.73a98.72,98.72,0,0,0,10.88,0,105.76,105.76,0,0,0-10.88,0Z" style="fill:#e0e0e0"></path><rect x="374.41" y="258.47" width="10.8" height="20.81" transform="translate(759.63 537.74) rotate(180)" style="fill:#fff"></rect><path d="M379.51,279.27c.08,0,.14-4.66.14-10.4s-.06-10.4-.14-10.4-.14,4.65-.14,10.4S379.43,279.27,379.51,279.27Z" style="fill:#e0e0e0"></path><path d="M374.41,265.69a97.28,97.28,0,0,0,10.8,0,104.21,104.21,0,0,0-10.8,0Z" style="fill:#e0e0e0"></path><path d="M374.36,273.14a105.76,105.76,0,0,0,10.88,0,98.72,98.72,0,0,0-10.88,0Z" style="fill:#e0e0e0"></path><rect x="374.41" y="285.87" width="10.8" height="20.81" transform="translate(759.63 592.54) rotate(180)" style="fill:#fff"></rect><path d="M379.51,306.67c.08,0,.14-4.65.14-10.4s-.06-10.4-.14-10.4-.14,4.65-.14,10.4S379.43,306.67,379.51,306.67Z" style="fill:#e0e0e0"></path><path d="M374.41,293.1a104.21,104.21,0,0,0,10.8,0,97.27,97.27,0,0,0-10.8,0Z" style="fill:#e0e0e0"></path><path d="M374.36,300.54a105.76,105.76,0,0,0,10.88,0,98.72,98.72,0,0,0-10.88,0Z" style="fill:#e0e0e0"></path><rect x="374.41" y="313.27" width="10.8" height="20.81" transform="translate(759.63 647.35) rotate(180)" style="fill:#fff"></rect><path d="M379.51,334.08c.08,0,.14-4.66.14-10.41s-.06-10.4-.14-10.4-.14,4.66-.14,10.4S379.43,334.08,379.51,334.08Z" style="fill:#e0e0e0"></path><path d="M374.41,320.5a104.21,104.21,0,0,0,10.8,0,97.28,97.28,0,0,0-10.8,0Z" style="fill:#e0e0e0"></path><path d="M374.36,327.94a105.76,105.76,0,0,0,10.88,0,105.76,105.76,0,0,0-10.88,0Z" style="fill:#e0e0e0"></path><rect x="400.58" y="339.78" width="10.8" height="20.81" transform="translate(811.96 700.37) rotate(180)" style="fill:#fff"></rect><path d="M405.68,360.59c.08,0,.14-4.66.14-10.41s-.06-10.4-.14-10.4-.15,4.66-.15,10.4S405.6,360.59,405.68,360.59Z" style="fill:#e0e0e0"></path><path d="M400.58,347a104.21,104.21,0,0,0,10.8,0,97.27,97.27,0,0,0-10.8,0Z" style="fill:#e0e0e0"></path><path d="M400.52,354.45a106,106,0,0,0,10.89,0,106,106,0,0,0-10.89,0Z" style="fill:#e0e0e0"></path><rect x="374.41" y="340.67" width="10.8" height="20.81" transform="translate(759.63 702.15) rotate(180)" style="fill:#fff"></rect><path d="M379.51,361.48c.08,0,.14-4.66.14-10.4s-.06-10.41-.14-10.41-.14,4.66-.14,10.41S379.43,361.48,379.51,361.48Z" style="fill:#e0e0e0"></path><path d="M374.41,347.9a97.27,97.27,0,0,0,10.8,0,104.21,104.21,0,0,0-10.8,0Z" style="fill:#e0e0e0"></path><path d="M374.36,355.34a98.72,98.72,0,0,0,10.88,0,105.76,105.76,0,0,0-10.88,0Z" style="fill:#e0e0e0"></path><rect x="383.04" y="310.45" width="35.53" height="150.24" transform="translate(801.61 771.13) rotate(180)" style="fill:#ebebeb"></rect><rect x="401.15" y="320.98" width="10.8" height="20.81" transform="translate(813.1 662.77) rotate(180)" style="fill:#fff"></rect><path d="M406.24,341.79c.08,0,.15-4.66.15-10.41s-.07-10.4-.15-10.4-.14,4.66-.14,10.4S406.16,341.79,406.24,341.79Z" style="fill:#e0e0e0"></path><path d="M401.15,328.21a104.21,104.21,0,0,0,10.8,0,97.27,97.27,0,0,0-10.8,0Z" style="fill:#e0e0e0"></path><path d="M401.09,335.65a98.9,98.9,0,0,0,10.89,0,106,106,0,0,0-10.89,0Z" style="fill:#e0e0e0"></path><rect x="401.15" y="348.16" width="10.8" height="20.81" transform="translate(813.1 717.13) rotate(180)" style="fill:#fff"></rect><path d="M406.24,369c.08,0,.15-4.66.15-10.41s-.07-10.4-.15-10.4-.14,4.66-.14,10.4S406.16,369,406.24,369Z" style="fill:#e0e0e0"></path><path d="M401.15,355.39a104.21,104.21,0,0,0,10.8,0,97.27,97.27,0,0,0-10.8,0Z" style="fill:#e0e0e0"></path><path d="M401.09,362.83a106,106,0,0,0,10.89,0,106,106,0,0,0-10.89,0Z" style="fill:#e0e0e0"></path><rect x="401.15" y="375.34" width="10.8" height="20.81" transform="translate(813.1 771.49) rotate(180)" style="fill:#fff"></rect><path d="M406.24,396.15c.08,0,.15-4.66.15-10.41s-.07-10.4-.15-10.4-.14,4.66-.14,10.4S406.16,396.15,406.24,396.15Z" style="fill:#e0e0e0"></path><path d="M401.15,382.57a104.21,104.21,0,0,0,10.8,0,97.27,97.27,0,0,0-10.8,0Z" style="fill:#e0e0e0"></path><path d="M401.09,390A106,106,0,0,0,412,390a98.9,98.9,0,0,0-10.89,0Z" style="fill:#e0e0e0"></path><rect x="401.15" y="402.52" width="10.8" height="20.81" transform="translate(813.1 825.84) rotate(180)" style="fill:#fff"></rect><path d="M406.24,423.33c.08,0,.15-4.66.15-10.41s-.07-10.4-.15-10.4-.14,4.66-.14,10.4S406.16,423.33,406.24,423.33Z" style="fill:#e0e0e0"></path><path d="M401.15,409.75a104.21,104.21,0,0,0,10.8,0,97.27,97.27,0,0,0-10.8,0Z" style="fill:#e0e0e0"></path><path d="M401.09,417.19a106,106,0,0,0,10.89,0,98.9,98.9,0,0,0-10.89,0Z" style="fill:#e0e0e0"></path><rect x="367.93" y="310.45" width="25.89" height="150.24" transform="translate(761.75 771.13) rotate(180)" style="fill:#e0e0e0"></rect><rect x="374.98" y="320.98" width="10.8" height="20.81" transform="translate(760.76 662.77) rotate(180)" style="fill:#fff"></rect><path d="M380.08,341.79c.08,0,.14-4.66.14-10.41s-.06-10.4-.14-10.4-.15,4.66-.15,10.4S380,341.79,380.08,341.79Z" style="fill:#e0e0e0"></path><path d="M375,328.21a104.21,104.21,0,0,0,10.8,0,97.28,97.28,0,0,0-10.8,0Z" style="fill:#e0e0e0"></path><path d="M374.93,335.65a98.72,98.72,0,0,0,10.88,0,105.76,105.76,0,0,0-10.88,0Z" style="fill:#e0e0e0"></path><rect x="374.98" y="348.38" width="10.8" height="20.81" transform="translate(760.76 717.57) rotate(180)" style="fill:#fff"></rect><path d="M380.08,369.19c.08,0,.14-4.66.14-10.4s-.06-10.41-.14-10.41-.15,4.66-.15,10.41S380,369.19,380.08,369.19Z" style="fill:#e0e0e0"></path><path d="M375,355.61a97.28,97.28,0,0,0,10.8,0,104.21,104.21,0,0,0-10.8,0Z" style="fill:#e0e0e0"></path><path d="M374.93,363.05a98.72,98.72,0,0,0,10.88,0,105.76,105.76,0,0,0-10.88,0Z" style="fill:#e0e0e0"></path><rect x="374.98" y="375.78" width="10.8" height="20.81" transform="translate(760.76 772.38) rotate(180)" style="fill:#fff"></rect><path d="M380.08,396.59c.08,0,.14-4.66.14-10.4s-.06-10.41-.14-10.41-.15,4.66-.15,10.41S380,396.59,380.08,396.59Z" style="fill:#e0e0e0"></path><path d="M375,383a97.27,97.27,0,0,0,10.8,0,104.21,104.21,0,0,0-10.8,0Z" style="fill:#e0e0e0"></path><path d="M374.93,390.46c0,.07,2.43.14,5.44.14s5.44-.07,5.44-.14a98.72,98.72,0,0,0-10.88,0Z" style="fill:#e0e0e0"></path><rect x="374.98" y="403.19" width="10.8" height="20.81" transform="translate(760.76 827.18) rotate(180)" style="fill:#fff"></rect><path d="M380.08,424c.08,0,.14-4.65.14-10.4s-.06-10.4-.14-10.4-.15,4.65-.15,10.4S380,424,380.08,424Z" style="fill:#e0e0e0"></path><path d="M375,410.42a104.21,104.21,0,0,0,10.8,0,97.27,97.27,0,0,0-10.8,0Z" style="fill:#e0e0e0"></path><path d="M374.93,417.86a105.76,105.76,0,0,0,10.88,0,98.72,98.72,0,0,0-10.88,0Z" style="fill:#e0e0e0"></path><rect x="401.15" y="429.7" width="10.8" height="20.81" transform="translate(813.1 880.2) rotate(180)" style="fill:#fff"></rect><path d="M406.24,450.5c.08,0,.15-4.65.15-10.4s-.07-10.4-.15-10.4-.14,4.65-.14,10.4S406.16,450.5,406.24,450.5Z" style="fill:#e0e0e0"></path><path d="M401.15,436.93a104.21,104.21,0,0,0,10.8,0,97.28,97.28,0,0,0-10.8,0Z" style="fill:#e0e0e0"></path><path d="M401.09,444.37a106,106,0,0,0,10.89,0,98.9,98.9,0,0,0-10.89,0Z" style="fill:#e0e0e0"></path><rect x="374.98" y="430.59" width="10.8" height="20.81" transform="translate(760.76 881.99) rotate(180)" style="fill:#fff"></rect><path d="M380.08,451.4c.08,0,.14-4.66.14-10.41s-.06-10.4-.14-10.4-.15,4.66-.15,10.4S380,451.4,380.08,451.4Z" style="fill:#e0e0e0"></path><path d="M375,437.82a104.21,104.21,0,0,0,10.8,0,97.28,97.28,0,0,0-10.8,0Z" style="fill:#e0e0e0"></path><path d="M374.93,445.26a105.76,105.76,0,0,0,10.88,0,105.76,105.76,0,0,0-10.88,0Z" style="fill:#e0e0e0"></path><rect x="104.11" y="222.84" width="53.06" height="237.63" transform="translate(261.28 683.31) rotate(180)" style="fill:#ebebeb"></rect><rect x="131.15" y="238.57" width="16.13" height="31.08" transform="translate(278.43 508.22) rotate(180)" style="fill:#fff"></rect><path d="M138.76,269.65c.12,0,.22-7,.22-15.54s-.1-15.54-.22-15.54-.21,7-.21,15.54S138.64,269.65,138.76,269.65Z" style="fill:#e0e0e0"></path><path d="M131.15,249.37a76.34,76.34,0,0,0,8.07.21,76.23,76.23,0,0,0,8.06-.21,74.5,74.5,0,0,0-8.06-.22A74.61,74.61,0,0,0,131.15,249.37Z" style="fill:#e0e0e0"></path><path d="M131.07,260.48a75.77,75.77,0,0,0,8.13.22,75.77,75.77,0,0,0,8.13-.22,77.53,77.53,0,0,0-8.13-.21A77.53,77.53,0,0,0,131.07,260.48Z" style="fill:#e0e0e0"></path><rect x="131.15" y="279.16" width="16.13" height="31.08" transform="translate(278.43 589.41) rotate(180)" style="fill:#fff"></rect><path d="M138.76,310.24c.12,0,.22-7,.22-15.54s-.1-15.54-.22-15.54-.21,7-.21,15.54S138.64,310.24,138.76,310.24Z" style="fill:#e0e0e0"></path><path d="M131.15,290a74.61,74.61,0,0,0,8.07.22,74.5,74.5,0,0,0,8.06-.22,76.23,76.23,0,0,0-8.06-.21A76.34,76.34,0,0,0,131.15,290Z" style="fill:#e0e0e0"></path><path d="M131.07,301.08a81,81,0,0,0,8.13.21,81,81,0,0,0,8.13-.21,75.77,75.77,0,0,0-8.13-.22A75.77,75.77,0,0,0,131.07,301.08Z" style="fill:#e0e0e0"></path><rect x="131.15" y="319.76" width="16.13" height="31.08" transform="translate(278.43 670.6) rotate(180)" style="fill:#fff"></rect><path d="M138.76,350.84c.12,0,.22-7,.22-15.54s-.1-15.54-.22-15.54-.21,6.95-.21,15.54S138.64,350.84,138.76,350.84Z" style="fill:#e0e0e0"></path><path d="M131.15,330.56a79.71,79.71,0,0,0,8.07.21,79.59,79.59,0,0,0,8.06-.21,74.5,74.5,0,0,0-8.06-.22A74.61,74.61,0,0,0,131.15,330.56Z" style="fill:#e0e0e0"></path><path d="M131.07,341.67a75.77,75.77,0,0,0,8.13.22,75.77,75.77,0,0,0,8.13-.22,75.77,75.77,0,0,0-8.13-.22A75.77,75.77,0,0,0,131.07,341.67Z" style="fill:#e0e0e0"></path><rect x="131.15" y="360.35" width="16.13" height="31.08" transform="translate(278.43 751.78) rotate(180)" style="fill:#fff"></rect><path d="M138.76,391.43c.12,0,.22-7,.22-15.54s-.1-15.54-.22-15.54-.21,7-.21,15.54S138.64,391.43,138.76,391.43Z" style="fill:#e0e0e0"></path><path d="M131.15,371.15a74.61,74.61,0,0,0,8.07.22,74.5,74.5,0,0,0,8.06-.22,74.5,74.5,0,0,0-8.06-.22A74.61,74.61,0,0,0,131.15,371.15Z" style="fill:#e0e0e0"></path><path d="M131.07,382.26a75.77,75.77,0,0,0,8.13.22,75.77,75.77,0,0,0,8.13-.22,81,81,0,0,0-8.13-.21A81,81,0,0,0,131.07,382.26Z" style="fill:#e0e0e0"></path><rect x="81.54" y="222.84" width="38.66" height="237.63" transform="translate(201.75 683.31) rotate(180)" style="fill:#e0e0e0"></rect><rect x="92.07" y="238.57" width="16.13" height="31.08" transform="translate(200.27 508.22) rotate(180)" style="fill:#fff"></rect><path d="M99.68,269.65c.12,0,.22-7,.22-15.54s-.1-15.54-.22-15.54-.21,7-.21,15.54S99.56,269.65,99.68,269.65Z" style="fill:#e0e0e0"></path><path d="M92.07,249.37a76.23,76.23,0,0,0,8.06.21,76.34,76.34,0,0,0,8.07-.21,74.61,74.61,0,0,0-8.07-.22A74.5,74.5,0,0,0,92.07,249.37Z" style="fill:#e0e0e0"></path><path d="M92,260.48a75.77,75.77,0,0,0,8.13.22,75.77,75.77,0,0,0,8.13-.22,77.53,77.53,0,0,0-8.13-.21A77.53,77.53,0,0,0,92,260.48Z" style="fill:#e0e0e0"></path><rect x="92.07" y="279.5" width="16.13" height="31.08" transform="translate(200.27 590.07) rotate(180)" style="fill:#fff"></rect><path d="M99.68,310.58c.12,0,.22-7,.22-15.54s-.1-15.54-.22-15.54-.21,6.95-.21,15.54S99.56,310.58,99.68,310.58Z" style="fill:#e0e0e0"></path><path d="M92.07,290.29a74.5,74.5,0,0,0,8.06.22,74.61,74.61,0,0,0,8.07-.22,79.71,79.71,0,0,0-8.07-.21A79.59,79.59,0,0,0,92.07,290.29Z" style="fill:#e0e0e0"></path><path d="M92,301.41a77.53,77.53,0,0,0,8.13.21,77.53,77.53,0,0,0,8.13-.21,75.77,75.77,0,0,0-8.13-.22A75.77,75.77,0,0,0,92,301.41Z" style="fill:#e0e0e0"></path><rect x="92.07" y="320.42" width="16.13" height="31.08" transform="translate(200.27 671.93) rotate(180)" style="fill:#fff"></rect><path d="M99.68,351.5c.12,0,.22-6.95.22-15.54s-.1-15.54-.22-15.54-.21,7-.21,15.54S99.56,351.5,99.68,351.5Z" style="fill:#e0e0e0"></path><path d="M92.07,331.22a74.5,74.5,0,0,0,8.06.22,74.61,74.61,0,0,0,8.07-.22,76.34,76.34,0,0,0-8.07-.21A76.23,76.23,0,0,0,92.07,331.22Z" style="fill:#e0e0e0"></path><path d="M92,342.34a77.53,77.53,0,0,0,8.13.21,77.53,77.53,0,0,0,8.13-.21,75.77,75.77,0,0,0-8.13-.22A75.77,75.77,0,0,0,92,342.34Z" style="fill:#e0e0e0"></path><rect x="92.07" y="361.35" width="16.13" height="31.08" transform="translate(200.27 753.78) rotate(180)" style="fill:#fff"></rect><path d="M99.68,392.43c.12,0,.22-7,.22-15.54s-.1-15.54-.22-15.54-.21,7-.21,15.54S99.56,392.43,99.68,392.43Z" style="fill:#e0e0e0"></path><path d="M92.07,372.15a76.23,76.23,0,0,0,8.06.21,76.34,76.34,0,0,0,8.07-.21,74.61,74.61,0,0,0-8.07-.22A74.5,74.5,0,0,0,92.07,372.15Z" style="fill:#e0e0e0"></path><path d="M92,383.26a75.77,75.77,0,0,0,8.13.22,75.77,75.77,0,0,0,8.13-.22,77.53,77.53,0,0,0-8.13-.21A77.53,77.53,0,0,0,92,383.26Z" style="fill:#e0e0e0"></path><rect x="131.15" y="400.95" width="16.13" height="31.08" transform="translate(278.43 832.97) rotate(180)" style="fill:#fff"></rect><path d="M138.76,432c.12,0,.22-7,.22-15.54s-.1-15.54-.22-15.54-.21,6.95-.21,15.54S138.64,432,138.76,432Z" style="fill:#e0e0e0"></path><path d="M131.15,411.74a74.61,74.61,0,0,0,8.07.22,74.5,74.5,0,0,0,8.06-.22,79.59,79.59,0,0,0-8.06-.21A79.71,79.71,0,0,0,131.15,411.74Z" style="fill:#e0e0e0"></path><path d="M131.07,422.86a77.53,77.53,0,0,0,8.13.21,77.53,77.53,0,0,0,8.13-.21,75.77,75.77,0,0,0-8.13-.22A75.77,75.77,0,0,0,131.07,422.86Z" style="fill:#e0e0e0"></path><rect x="92.07" y="402.28" width="16.13" height="31.08" transform="translate(200.27 835.64) rotate(180)" style="fill:#fff"></rect><path d="M99.68,433.36c.12,0,.22-7,.22-15.54s-.1-15.54-.22-15.54-.21,7-.21,15.54S99.56,433.36,99.68,433.36Z" style="fill:#e0e0e0"></path><path d="M92.07,413.08a76.23,76.23,0,0,0,8.06.21,76.34,76.34,0,0,0,8.07-.21,74.61,74.61,0,0,0-8.07-.22A74.5,74.5,0,0,0,92.07,413.08Z" style="fill:#e0e0e0"></path><path d="M92,424.19a75.77,75.77,0,0,0,8.13.22,75.77,75.77,0,0,0,8.13-.22,77.53,77.53,0,0,0-8.13-.21A77.53,77.53,0,0,0,92,424.19Z" style="fill:#e0e0e0"></path><rect x="603.15" y="247.47" width="50.44" height="213.32" transform="translate(1256.74 708.26) rotate(180)" style="fill:#ebebeb"></rect><rect x="628.86" y="262.42" width="15.33" height="29.55" transform="translate(1273.05 554.38) rotate(180)" style="fill:#fff"></rect><path d="M636.09,292c.11,0,.21-6.61.21-14.77s-.1-14.77-.21-14.77-.2,6.61-.2,14.77S636,292,636.09,292Z" style="fill:#e0e0e0"></path><path d="M628.86,272.68a140,140,0,0,0,15.33,0,147,147,0,0,0-15.33,0Z" style="fill:#e0e0e0"></path><path d="M628.78,283.25a142.19,142.19,0,0,0,15.45,0,149.29,149.29,0,0,0-15.45,0Z" style="fill:#e0e0e0"></path><rect x="628.86" y="301.01" width="15.33" height="29.55" transform="translate(1273.05 631.57) rotate(180)" style="fill:#fff"></rect><path d="M636.09,330.56c.11,0,.21-6.62.21-14.77s-.1-14.78-.21-14.78-.2,6.62-.2,14.78S636,330.56,636.09,330.56Z" style="fill:#e0e0e0"></path><path d="M628.86,311.28a147,147,0,0,0,15.33,0,140,140,0,0,0-15.33,0Z" style="fill:#e0e0e0"></path><path d="M628.78,321.84a142.19,142.19,0,0,0,15.45,0,149.29,149.29,0,0,0-15.45,0Z" style="fill:#e0e0e0"></path><rect x="628.86" y="339.6" width="15.33" height="29.55" transform="translate(1273.05 708.75) rotate(180)" style="fill:#fff"></rect><path d="M636.09,369.15c.11,0,.21-6.61.21-14.77s-.1-14.78-.21-14.78-.2,6.62-.2,14.78S636,369.15,636.09,369.15Z" style="fill:#e0e0e0"></path><path d="M628.86,349.87a147,147,0,0,0,15.33,0,140,140,0,0,0-15.33,0Z" style="fill:#e0e0e0"></path><path d="M628.78,360.44a149.29,149.29,0,0,0,15.45,0,142.19,142.19,0,0,0-15.45,0Z" style="fill:#e0e0e0"></path><rect x="628.86" y="378.2" width="15.33" height="29.55" transform="translate(1273.05 785.94) rotate(180)" style="fill:#fff"></rect><path d="M636.09,407.74c.11,0,.21-6.61.21-14.77s-.1-14.77-.21-14.77-.2,6.61-.2,14.77S636,407.74,636.09,407.74Z" style="fill:#e0e0e0"></path><path d="M628.86,388.46a140,140,0,0,0,15.33,0,147,147,0,0,0-15.33,0Z" style="fill:#e0e0e0"></path><path d="M628.78,399a149.29,149.29,0,0,0,15.45,0,142.19,142.19,0,0,0-15.45,0Z" style="fill:#e0e0e0"></path><rect x="581.69" y="247.47" width="36.75" height="213.32" transform="translate(1200.14 708.26) rotate(180)" style="fill:#e0e0e0"></rect><rect x="591.7" y="262.42" width="15.33" height="29.55" transform="translate(1198.74 554.38) rotate(180)" style="fill:#fff"></rect><path d="M598.94,292c.11,0,.2-6.61.2-14.77s-.09-14.77-.2-14.77-.21,6.61-.21,14.77S598.82,292,598.94,292Z" style="fill:#e0e0e0"></path><path d="M591.7,272.68a140,140,0,0,0,15.33,0,147,147,0,0,0-15.33,0Z" style="fill:#e0e0e0"></path><path d="M591.62,283.25a142.37,142.37,0,0,0,15.46,0,149.48,149.48,0,0,0-15.46,0Z" style="fill:#e0e0e0"></path><rect x="591.7" y="301.33" width="15.33" height="29.55" transform="translate(1198.74 632.2) rotate(180)" style="fill:#fff"></rect><path d="M598.94,330.87c.11,0,.2-6.61.2-14.77s-.09-14.77-.2-14.77-.21,6.61-.21,14.77S598.82,330.87,598.94,330.87Z" style="fill:#e0e0e0"></path><path d="M591.7,311.59a140,140,0,0,0,15.33,0,147,147,0,0,0-15.33,0Z" style="fill:#e0e0e0"></path><path d="M591.62,322.16a149.48,149.48,0,0,0,15.46,0,142.37,142.37,0,0,0-15.46,0Z" style="fill:#e0e0e0"></path><rect x="591.7" y="340.24" width="15.33" height="29.55" transform="translate(1198.74 710.02) rotate(180)" style="fill:#fff"></rect><path d="M598.94,369.78c.11,0,.2-6.61.2-14.77s-.09-14.77-.2-14.77-.21,6.61-.21,14.77S598.82,369.78,598.94,369.78Z" style="fill:#e0e0e0"></path><path d="M591.7,350.5a140,140,0,0,0,15.33,0,147,147,0,0,0-15.33,0Z" style="fill:#e0e0e0"></path><path d="M591.62,361.07a149.48,149.48,0,0,0,15.46,0,142.37,142.37,0,0,0-15.46,0Z" style="fill:#e0e0e0"></path><rect x="591.7" y="379.15" width="15.33" height="29.55" transform="translate(1198.74 787.84) rotate(180)" style="fill:#fff"></rect><path d="M598.94,408.69c.11,0,.2-6.61.2-14.77s-.09-14.77-.2-14.77-.21,6.61-.21,14.77S598.82,408.69,598.94,408.69Z" style="fill:#e0e0e0"></path><path d="M591.7,389.41a140,140,0,0,0,15.33,0,147,147,0,0,0-15.33,0Z" style="fill:#e0e0e0"></path><path d="M591.62,400a149.48,149.48,0,0,0,15.46,0,142.37,142.37,0,0,0-15.46,0Z" style="fill:#e0e0e0"></path><rect x="628.86" y="416.79" width="15.33" height="29.55" transform="translate(1273.05 863.13) rotate(180)" style="fill:#fff"></rect><path d="M636.09,446.34c.11,0,.21-6.62.21-14.78s-.1-14.77-.21-14.77-.2,6.61-.2,14.77S636,446.34,636.09,446.34Z" style="fill:#e0e0e0"></path><path d="M628.86,427.05a140,140,0,0,0,15.33,0,147,147,0,0,0-15.33,0Z" style="fill:#e0e0e0"></path><path d="M628.78,437.62a142.19,142.19,0,0,0,15.45,0,149.29,149.29,0,0,0-15.45,0Z" style="fill:#e0e0e0"></path><rect x="591.7" y="418.06" width="15.33" height="29.55" transform="translate(1198.74 865.66) rotate(180)" style="fill:#fff"></rect><path d="M598.94,447.6c.11,0,.2-6.61.2-14.77s-.09-14.77-.2-14.77-.21,6.61-.21,14.77S598.82,447.6,598.94,447.6Z" style="fill:#e0e0e0"></path><path d="M591.7,428.32a140,140,0,0,0,15.33,0,147,147,0,0,0-15.33,0Z" style="fill:#e0e0e0"></path><path d="M591.62,438.89a149.48,149.48,0,0,0,15.46,0,142.37,142.37,0,0,0-15.46,0Z" style="fill:#e0e0e0"></path><rect x="659" y="332.99" width="30.2" height="127.69" transform="translate(1348.19 793.68) rotate(180)" style="fill:#ebebeb"></rect><rect x="674.39" y="341.94" width="9.18" height="17.69" transform="translate(1357.95 701.57) rotate(180)" style="fill:#fff"></rect><path d="M678.72,359.63c.06,0,.12-4,.12-8.84s-.06-8.85-.12-8.85-.13,4-.13,8.85S678.65,359.63,678.72,359.63Z" style="fill:#e0e0e0"></path><path d="M674.39,348.09c0,.06,2.05.12,4.58.12s4.59-.06,4.59-.12a80.92,80.92,0,0,0-9.17,0Z" style="fill:#e0e0e0"></path><path d="M674.34,354.41a89.19,89.19,0,0,0,9.25,0,89.19,89.19,0,0,0-9.25,0Z" style="fill:#e0e0e0"></path><rect x="674.39" y="365.04" width="9.18" height="17.69" transform="translate(1357.95 747.77) rotate(180)" style="fill:#fff"></rect><path d="M678.72,382.73c.06,0,.12-4,.12-8.84s-.06-8.85-.12-8.85-.13,4-.13,8.85S678.65,382.73,678.72,382.73Z" style="fill:#e0e0e0"></path><path d="M674.39,371.19a87.65,87.65,0,0,0,9.17,0,80.92,80.92,0,0,0-9.17,0Z" style="fill:#e0e0e0"></path><path d="M674.34,377.51a82.34,82.34,0,0,0,9.25,0,89.19,89.19,0,0,0-9.25,0Z" style="fill:#e0e0e0"></path><rect x="674.39" y="388.14" width="9.18" height="17.69" transform="translate(1357.95 793.97) rotate(180)" style="fill:#fff"></rect><path d="M678.72,405.83c.06,0,.12-4,.12-8.84s-.06-8.85-.12-8.85-.13,4-.13,8.85S678.65,405.83,678.72,405.83Z" style="fill:#e0e0e0"></path><path d="M674.39,394.29a87.65,87.65,0,0,0,9.17,0,87.65,87.65,0,0,0-9.17,0Z" style="fill:#e0e0e0"></path><path d="M674.34,400.61a82.34,82.34,0,0,0,9.25,0c0-.06-2.07-.12-4.63-.12S674.34,400.55,674.34,400.61Z" style="fill:#e0e0e0"></path><rect x="674.39" y="411.25" width="9.18" height="17.69" transform="translate(1357.95 840.18) rotate(180)" style="fill:#fff"></rect><path d="M678.72,428.93c.06,0,.12-4,.12-8.84s-.06-8.84-.12-8.84-.13,3.95-.13,8.84S678.65,428.93,678.72,428.93Z" style="fill:#e0e0e0"></path><path d="M674.39,417.39a87.65,87.65,0,0,0,9.17,0,87.65,87.65,0,0,0-9.17,0Z" style="fill:#e0e0e0"></path><path d="M674.34,423.71a82.34,82.34,0,0,0,9.25,0c0-.06-2.07-.12-4.63-.12S674.34,423.65,674.34,423.71Z" style="fill:#e0e0e0"></path><rect x="646.15" y="332.99" width="22" height="127.69" transform="translate(1314.31 793.68) rotate(180)" style="fill:#e0e0e0"></rect><rect x="652.15" y="341.94" width="9.18" height="17.69" transform="translate(1313.47 701.57) rotate(180)" style="fill:#fff"></rect><path d="M656.48,359.63c.06,0,.12-4,.12-8.84s-.06-8.85-.12-8.85-.13,4-.13,8.85S656.41,359.63,656.48,359.63Z" style="fill:#e0e0e0"></path><path d="M652.15,348.09c0,.06,2.05.12,4.58.12s4.59-.06,4.59-.12a80.92,80.92,0,0,0-9.17,0Z" style="fill:#e0e0e0"></path><path d="M652.1,354.41a89.19,89.19,0,0,0,9.25,0,89.19,89.19,0,0,0-9.25,0Z" style="fill:#e0e0e0"></path><rect x="652.15" y="365.23" width="9.18" height="17.69" transform="translate(1313.47 748.15) rotate(180)" style="fill:#fff"></rect><path d="M656.48,382.92c.06,0,.12-4,.12-8.84s-.06-8.85-.12-8.85-.13,4-.13,8.85S656.41,382.92,656.48,382.92Z" style="fill:#e0e0e0"></path><path d="M652.15,371.38c0,.06,2.05.12,4.58.12s4.59-.06,4.59-.12a80.92,80.92,0,0,0-9.17,0Z" style="fill:#e0e0e0"></path><path d="M652.1,377.7a89.19,89.19,0,0,0,9.25,0,89.19,89.19,0,0,0-9.25,0Z" style="fill:#e0e0e0"></path><rect x="652.15" y="388.52" width="9.18" height="17.69" transform="translate(1313.47 794.73) rotate(180)" style="fill:#fff"></rect><path d="M656.48,406.21c.06,0,.12-4,.12-8.84s-.06-8.85-.12-8.85-.13,4-.13,8.85S656.41,406.21,656.48,406.21Z" style="fill:#e0e0e0"></path><path d="M652.15,394.67a87.65,87.65,0,0,0,9.17,0,87.65,87.65,0,0,0-9.17,0Z" style="fill:#e0e0e0"></path><path d="M652.1,401a82.34,82.34,0,0,0,9.25,0,89.19,89.19,0,0,0-9.25,0Z" style="fill:#e0e0e0"></path><rect x="652.15" y="411.81" width="9.18" height="17.69" transform="translate(1313.47 841.31) rotate(180)" style="fill:#fff"></rect><path d="M656.48,429.5c.06,0,.12-4,.12-8.84s-.06-8.85-.12-8.85-.13,4-.13,8.85S656.41,429.5,656.48,429.5Z" style="fill:#e0e0e0"></path><path d="M652.15,418a87.65,87.65,0,0,0,9.17,0,87.65,87.65,0,0,0-9.17,0Z" style="fill:#e0e0e0"></path><path d="M652.1,424.28a82.34,82.34,0,0,0,9.25,0c0-.06-2.07-.12-4.63-.12S652.1,424.22,652.1,424.28Z" style="fill:#e0e0e0"></path><rect x="674.39" y="434.35" width="9.18" height="17.69" transform="translate(1357.95 886.38) rotate(180)" style="fill:#fff"></rect><path d="M678.72,452c.06,0,.12-4,.12-8.84s-.06-8.84-.12-8.84-.13,4-.13,8.84S678.65,452,678.72,452Z" style="fill:#e0e0e0"></path><path d="M674.39,440.49a87.65,87.65,0,0,0,9.17,0,87.65,87.65,0,0,0-9.17,0Z" style="fill:#e0e0e0"></path><path d="M674.34,446.82c0,.06,2.07.12,4.62.12s4.63-.06,4.63-.12a82.34,82.34,0,0,0-9.25,0Z" style="fill:#e0e0e0"></path><rect x="652.15" y="435.1" width="9.18" height="17.69" transform="translate(1313.47 887.9) rotate(180)" style="fill:#fff"></rect><path d="M656.48,452.79c.06,0,.12-4,.12-8.84s-.06-8.85-.12-8.85-.13,4-.13,8.85S656.41,452.79,656.48,452.79Z" style="fill:#e0e0e0"></path><path d="M652.15,441.25a87.65,87.65,0,0,0,9.17,0,87.65,87.65,0,0,0-9.17,0Z" style="fill:#e0e0e0"></path><path d="M652.1,447.57a82.34,82.34,0,0,0,9.25,0c0-.06-2.07-.12-4.63-.12S652.1,447.51,652.1,447.57Z" style="fill:#e0e0e0"></path><path d="M432.2,96.75c.47-3.45-4.4-6.29-8.06-6.58-1.74-.14-3.55.12-5.21-.45-3.58-1.25-5-5.88-8.51-7.35-2.61-1.1-5.62-.12-8.15,1.15s-5,2.88-7.87,3.06c-2.46.16-5.13-.75-7.29.45-1.6.9-2.44,2.75-3.92,3.84a9.46,9.46,0,0,1-5.13,1.39,14.44,14.44,0,0,0-5.29.86c-1.64.75-3,2.48-2.65,4.25Z" style="fill:#ebebeb"></path><path d="M571.72,51.15c.48-3.45-4.39-6.29-8.05-6.59-1.75-.14-3.56.13-5.22-.45-3.58-1.24-5-5.87-8.5-7.35-2.62-1.1-5.63-.12-8.16,1.16s-5,2.88-7.87,3.06c-2.46.16-5.13-.76-7.28.45-1.61.89-2.45,2.74-3.93,3.83a9.27,9.27,0,0,1-5.13,1.39,14.45,14.45,0,0,0-5.29.87c-1.64.75-3,2.48-2.65,4.24Z" style="fill:#ebebeb"></path><path d="M87,192.52c.48-3.45-4.39-6.29-8-6.58-1.75-.14-3.56.13-5.21-.45-3.59-1.25-5-5.88-8.51-7.35-2.62-1.1-5.62-.12-8.16,1.15s-5,2.88-7.86,3.06c-2.47.16-5.14-.75-7.29.45-1.61.9-2.45,2.75-3.93,3.84A9.44,9.44,0,0,1,32.82,188a14.51,14.51,0,0,0-5.29.86c-1.63.75-3,2.48-2.65,4.25Z" style="fill:#ebebeb"></path><path d="M288.31,58.76c.58-4.19-5.33-7.63-9.77-8-2.11-.17-4.31.15-6.32-.55-4.34-1.51-6.08-7.12-10.32-8.91-3.17-1.34-6.82-.15-9.89,1.4s-6.11,3.49-9.54,3.71c-3,.19-6.23-.92-8.84.54-1.95,1.09-3,3.33-4.76,4.66s-4.05,1.57-6.22,1.68-4.44.14-6.42,1.05-3.62,3-3.21,5.15Z" style="fill:#e0e0e0"></path><path d="M687.58,212c.58-4.18-5.33-7.63-9.77-8-2.12-.17-4.31.15-6.32-.55-4.34-1.51-6.08-7.13-10.32-8.91-3.17-1.34-6.82-.15-9.89,1.4s-6.11,3.49-9.54,3.71c-3,.19-6.23-.92-8.84.54-1.95,1.09-3,3.33-4.76,4.65s-4,1.57-6.23,1.69-4.43.14-6.41,1.05-3.63,3-3.21,5.15Z" style="fill:#e0e0e0"></path></g><g id="freepik--Table--inject-89"><path d="M687.09,460.68l-1.68,0-4.94,0-19,.05-69.86.08L361.16,461l-230.51-.08-69.85-.08-19-.05-4.94,0-1.68,0,1.68,0,4.94,0,19-.05,69.85-.08,230.51-.08,230.46.08,69.86.08,19,.05,4.94,0Z" style="fill:#263238"></path></g><g id="freepik--Building--inject-89"><rect x="247.75" y="101.8" width="55.68" height="32.68" style="fill:#e0e0e0"></rect><rect x="221.38" y="100.71" width="55.68" height="32.68" style="fill:#ebebeb"></rect><rect x="143.81" y="131.95" width="241.63" height="13.17" style="fill:#e0e0e0"></rect><rect x="215.65" y="95.47" width="91.32" height="7.09" style="fill:#e0e0e0"></rect><polygon points="326.51 460.69 156.6 460.47 156.31 145.12 326.51 145.12 326.51 460.69" style="fill:#ebebeb"></polygon><rect x="174.1" y="165.09" width="19.56" height="35.17" style="fill:#455a64"></rect><rect x="174.1" y="215.96" width="19.56" height="35.17" style="fill:#455a64"></rect><rect x="174.1" y="266.83" width="19.56" height="35.17" style="fill:#455a64"></rect><rect x="174.1" y="317.7" width="19.56" height="35.17" style="fill:#455a64"></rect><rect x="174.1" y="364.99" width="19.56" height="35.17" style="fill:#455a64"></rect><rect x="286.62" y="165.09" width="19.56" height="35.17" style="fill:#455a64"></rect><rect x="232.88" y="110.67" width="17.78" height="22.96" style="fill:#455a64"></rect><rect x="286.62" y="215.96" width="19.56" height="35.17" style="fill:#455a64"></rect><rect x="286.62" y="266.83" width="19.56" height="35.17" style="fill:#455a64"></rect><rect x="286.62" y="317.7" width="19.56" height="35.17" style="fill:#455a64"></rect><rect x="286.62" y="364.99" width="19.56" height="35.17" style="fill:#455a64"></rect><rect x="210.55" y="145.12" width="57.67" height="315.56" style="fill:#455a64"></rect><g style="opacity:0.30000000000000004"><polygon points="268.22 242.84 210.55 290.89 210.55 308.45 268.22 259.61 268.22 242.84" style="fill:#fff"></polygon></g><g style="opacity:0.30000000000000004"><polygon points="268.22 151.02 210.55 199.07 210.55 216.63 268.22 167.79 268.22 151.02" style="fill:#fff"></polygon></g><g style="opacity:0.30000000000000004"><polygon points="268.22 281.59 210.55 329.64 210.55 364.99 268.22 316.34 268.22 281.59" style="fill:#fff"></polygon></g><rect x="326.52" y="142.2" width="47.59" height="318.22" style="fill:#e0e0e0"></rect><path d="M374.9,460.41c-.14,0-.41-64.17-.6-143.32s-.24-143.33-.09-143.33.41,64.16.61,143.33S375.05,460.41,374.9,460.41Z" style="fill:#263238"></path><rect x="342.51" y="165.09" width="19.56" height="35.17" style="fill:#263238"></rect><rect x="342.51" y="215.96" width="19.56" height="35.17" style="fill:#263238"></rect><rect x="342.51" y="266.83" width="19.56" height="35.17" style="fill:#263238"></rect><rect x="342.51" y="317.7" width="19.56" height="35.17" style="fill:#263238"></rect><rect x="342.51" y="364.99" width="19.56" height="35.17" style="fill:#263238"></rect><rect x="342.51" y="414.53" width="19.56" height="35.17" style="fill:#263238"></rect><rect x="205.81" y="400.91" width="66.25" height="6.62" style="fill:#ebebeb"></rect><rect x="210.55" y="202.39" width="57.67" height="3.85" style="fill:#263238"></rect><rect x="210.55" y="258.03" width="57.67" height="3.85" style="fill:#263238"></rect><rect x="210.1" y="359.6" width="57.67" height="3.85" style="fill:#263238"></rect><rect x="212.74" y="311.1" width="57.67" height="3.85" style="fill:#263238"></rect><path d="M256.78,325.32c.09.11-8.52,7.63-19.22,16.8s-19.47,16.51-19.57,16.4,8.52-7.63,19.23-16.8S256.68,325.21,256.78,325.32Z" style="fill:#263238"></path><path d="M257.27,359.48c.1.11-8.51,7.63-19.22,16.8s-19.47,16.51-19.56,16.4,8.51-7.63,19.22-16.79S257.18,359.37,257.27,359.48Z" style="fill:#263238"></path><path d="M256.57,274.9c.09.11-6.22,5.63-14.1,12.33s-14.35,12-14.45,11.93,6.22-5.63,14.11-12.33S256.48,274.79,256.57,274.9Z" style="fill:#263238"></path><path d="M240.8,281.17a59,59,0,0,1-5.47,5.36,57.83,57.83,0,0,1-5.82,5,55.43,55.43,0,0,1,5.47-5.37A54.21,54.21,0,0,1,240.8,281.17Z" style="fill:#263238"></path><path d="M220.76,240.05c-.08-.12,8.59-6.74,19.37-14.78s19.59-14.48,19.67-14.37-8.58,6.74-19.36,14.79S220.85,240.16,220.76,240.05Z" style="fill:#263238"></path><path d="M232.71,235a11.57,11.57,0,0,1,2-1.45l4.92-3.32,4.89-3.38a11.74,11.74,0,0,1,2.08-1.33,11.74,11.74,0,0,1-1.86,1.62c-1.2.95-2.89,2.2-4.81,3.52s-3.71,2.43-5,3.2A10.75,10.75,0,0,1,232.71,235Z" style="fill:#263238"></path><path d="M258.46,156.79s-.12.15-.39.38-.69.6-1.17,1l-4.35,3.62-14.39,11.9-14.33,12-4.35,3.63-1.19,1c-.28.22-.43.33-.45.31a2.88,2.88,0,0,1,.38-.39l1.13-1c1.06-.93,2.5-2.2,4.24-3.75,3.61-3.14,8.63-7.43,14.24-12.1s10.74-8.82,14.49-11.79l4.46-3.49,1.23-.92A2.26,2.26,0,0,1,258.46,156.79Z" style="fill:#263238"></path><path d="M241.32,164a27.34,27.34,0,0,1-4.06,3.52,28.42,28.42,0,0,1-4.38,3.1,27,27,0,0,1,4.06-3.51A28.65,28.65,0,0,1,241.32,164Z" style="fill:#263238"></path><path d="M187.92,230.52a32.71,32.71,0,0,1-4,4.13,32,32,0,0,1-4.41,3.74,34.17,34.17,0,0,1,4.05-4.13A31.57,31.57,0,0,1,187.92,230.52Z" style="fill:#263238"></path><path d="M301.67,280.84a40.68,40.68,0,0,1-4.11,4.83,37.63,37.63,0,0,1-4.49,4.49,37.34,37.34,0,0,1,4.11-4.84A38,38,0,0,1,301.67,280.84Z" style="fill:#263238"></path><path d="M189.55,329.08a44.33,44.33,0,0,1-4.51,5,43.7,43.7,0,0,1-4.89,4.61,44.33,44.33,0,0,1,4.51-5A42.72,42.72,0,0,1,189.55,329.08Z" style="fill:#263238"></path><path d="M298.2,373.77a33.59,33.59,0,0,1-3.91,4.43,33.23,33.23,0,0,1-4.28,4.06,34.51,34.51,0,0,1,3.91-4.43A34,34,0,0,1,298.2,373.77Z" style="fill:#263238"></path><path d="M297.86,379.52a15.49,15.49,0,0,1-2.58,3.09,15.69,15.69,0,0,1-3,2.73,15.49,15.49,0,0,1,2.58-3.09A16.12,16.12,0,0,1,297.86,379.52Z" style="fill:#263238"></path><rect x="286.62" y="416" width="19.56" height="35.17" style="fill:#455a64"></rect><rect x="173.96" y="415.42" width="19.56" height="35.17" style="fill:#455a64"></rect><g style="opacity:0.30000000000000004"><polyline points="216.19 460.49 268.23 417.88 268.22 407.12 260.23 407.34 210.6 451.03 210.71 460.47" style="fill:#fff"></polyline></g><g style="opacity:0.30000000000000004"><polygon points="227.98 460.51 232.78 460.58 268.25 429.69 268.21 427.46 268.22 425.01 227.98 460.51" style="fill:#fff"></polygon></g><path d="M238.93,460.58c-.14,0-.26-11-.26-24.61s.12-24.61.26-24.61.26,11,.26,24.61S239.08,460.58,238.93,460.58Z" style="fill:#263238"></path><rect x="232.62" y="433" width="3.46" height="11.94" style="fill:#ebebeb"></rect><rect x="241.41" y="433" width="3.46" height="11.94" style="fill:#ebebeb"></rect><path d="M385.75,145.12c0,.14-54.16.26-121,.26s-121-.12-121-.26,54.15-.26,121-.26S385.75,145,385.75,145.12Z" style="fill:#263238"></path><path d="M385.75,132.21c0,.14-54.16.26-121,.26s-121-.12-121-.26,54.15-.26,121-.26S385.75,132.06,385.75,132.21Z" style="fill:#263238"></path><path d="M307.66,102.56c0,.14-20.53.26-45.85.26S216,102.7,216,102.56s20.52-.26,45.85-.26S307.66,102.41,307.66,102.56Z" style="fill:#263238"></path><path d="M156.6,460.47c-.14,0-.4-70.24-.58-156.87s-.2-156.88-.05-156.88.4,70.22.57,156.88S156.74,460.47,156.6,460.47Z" style="fill:#263238"></path></g><g id="freepik--Shield--inject-89"><path d="M165.15,80.64,125.59,67.37,86.41,80.46C81.41,82.66,77,84,77,88.34V110a77.94,77.94,0,0,0,12.9,43.13,78.77,78.77,0,0,0,36,29.73c16-4.86,28-17.81,35.27-28.89a77.82,77.82,0,0,0,12.91-43.12V91.36C174.15,85.16,170.63,82.13,165.15,80.64Z" style="fill:#FF725E"></path><path d="M125.89,174.33l-.16-.07a68.54,68.54,0,0,1-42.54-63.32V92.24c0-3.66,3.23-5,7-6.63L91.59,85l34-11.37,34.27,11.5c5.47,1.49,8.13,4.68,8.13,9.74v16.81a67.85,67.85,0,0,1-11.22,37.48c-4.87,7.38-15.34,20.46-30.71,25.13Zm-.3-99.65L92,85.92l-1.4.61C87,88,84.19,89.24,84.19,92.24v18.7A67.53,67.53,0,0,0,126,173.27c15-4.62,25.21-17.43,30-24.67A66.87,66.87,0,0,0,167,111.67V94.86c0-4.61-2.36-7.4-7.4-8.78h0Z" style="fill:#fff"></path><path d="M170.32,75.18A16.9,16.9,0,0,1,173,76a14.17,14.17,0,0,1,3,1.58,10.22,10.22,0,0,1,3.15,3.4,12.23,12.23,0,0,1,1.48,5.64c0,2.15,0,4.47,0,7,0,5,.05,10.76,0,17.16a87.62,87.62,0,0,1-12.06,43.41,97.69,97.69,0,0,1-17,21.45c-7,6.54-15.51,12.31-25.47,15.37l-.09,0-.08,0a102.51,102.51,0,0,1-10.28-5,93,93,0,0,1-9.83-6.47,88.09,88.09,0,0,1-17.18-17.16A89.57,89.57,0,0,1,76,139.47,88.6,88.6,0,0,1,70.66,115c-.31-4.08-.22-8.11-.24-12.06s0-7.85,0-11.68V85.54a19.46,19.46,0,0,1,.12-2.84,5.62,5.62,0,0,1,1.19-2.61,13.2,13.2,0,0,1,4.53-3.17c1.65-.77,3.31-1.44,4.93-2.15h0L125.53,60l.06,0,0,0,32.88,11.11,8.78,3,2.26.79c.51.17.76.28.76.28s-.26-.07-.77-.24l-2.28-.74-8.81-2.9-32.93-11h.11L81.36,75.19h0c-1.63.72-3.28,1.39-4.91,2.16a12.54,12.54,0,0,0-4.37,3A5,5,0,0,0,71,82.78a16.7,16.7,0,0,0-.1,2.76v5.69q0,5.74,0,11.68c0,4-.07,8,.24,12a87.56,87.56,0,0,0,5.31,24.36,89,89,0,0,0,12.59,22.76,87.57,87.57,0,0,0,17.07,17.06,93.5,93.5,0,0,0,9.77,6.44,105.82,105.82,0,0,0,10.22,5H126c9.87-3,18.34-8.74,25.29-15.24a97.5,97.5,0,0,0,17-21.32,88.25,88.25,0,0,0,9.31-22.45,89.56,89.56,0,0,0,2.8-20.75c0-6.38,0-12.13.06-17.15,0-2.51,0-4.84,0-7A11.84,11.84,0,0,0,179,81.1a10.28,10.28,0,0,0-3.07-3.38,14.53,14.53,0,0,0-2.95-1.61A19.1,19.1,0,0,0,171,75.4Z" style="fill:#FF725E"></path><polygon points="124.29 141.86 101.95 123.17 108.47 115.38 123.45 127.91 146.39 103.49 153.8 110.44 124.29 141.86" style="fill:#fff"></polygon></g><g id="freepik--speech-bubble--inject-89"><path d="M578.05,144.61l7-12a44.12,44.12,0,1,1,7.68,13.82v0Z" style="fill:#fff"></path><path d="M578.05,144.61l1,.1,2.83.34,10.93,1.33-.12.16v0l-.37-.79.56.67a44.16,44.16,0,0,0,17.46,12.79,43.57,43.57,0,0,0,6.49,2.05,48.53,48.53,0,0,0,7.21,1,43.7,43.7,0,0,0,31-10.2,44.2,44.2,0,0,0,11.46-14.82,43.44,43.44,0,0,0,4.16-19.43,43,43,0,0,0-5.26-20.11L664,95.35c-.49-.76-1-1.48-1.53-2.22A43.46,43.46,0,0,0,659.16,89c-.56-.69-1.25-1.26-1.87-1.89s-1.23-1.26-1.93-1.8l-2.05-1.63c-.34-.27-.67-.56-1-.8l-1.09-.71A44.5,44.5,0,0,0,632.36,75a43.65,43.65,0,0,0-18.86,1.75,43.89,43.89,0,0,0-25.3,21c-.3.56-.58,1.12-.87,1.67l-.43.82-.34.85-1.32,3.36a57.91,57.91,0,0,0-1.68,6.62,43.84,43.84,0,0,0,1.62,21.51l0,0,0,0c-2.3,3.86-4.06,6.82-5.27,8.83l-1.37,2.29-.48.79.43-.77,1.31-2.28,5.19-9v.09A43.89,43.89,0,0,1,583.22,111a59.81,59.81,0,0,1,1.67-6.68l1.32-3.39.34-.86.43-.83.87-1.69a44.4,44.4,0,0,1,44.58-23,45.07,45.07,0,0,1,19,7.16l1.11.72c.37.24.7.54,1,.81l2.07,1.65c.71.54,1.3,1.22,1.95,1.82s1.32,1.21,1.89,1.91a41.82,41.82,0,0,1,3.37,4.22c.52.75,1.05,1.48,1.55,2.24l1.34,2.39a44.35,44.35,0,0,1,1.09,40,44.49,44.49,0,0,1-27,23.37A44,44,0,0,1,624,162.65a49.12,49.12,0,0,1-7.27-1.05,42.76,42.76,0,0,1-6.54-2.09,44,44,0,0,1-17.5-13l.19-.12v0l.08.18-.2,0-11-1.48-2.79-.39Z" style="fill:#263238"></path><rect x="607.88" y="104.91" width="32.03" height="32.03" style="fill:#e0e0e0"></rect><path d="M639.91,137a1.33,1.33,0,0,1,0-.17c0-.12,0-.27,0-.45,0-.42,0-1,0-1.73,0-1.55,0-3.75-.06-6.54,0-5.62-.07-13.59-.11-23.15l.22.23-32,0c-.06.06.49-.49.26-.25h0v8.62c0,2.82,0,5.59,0,8.28,0,5.37,0,10.45,0,15.11l-.22-.23,23.15.12,6.53,0,1.74,0h.45l.16,0-.56,0-1.69,0-6.49.06-23.29.11h-.23V137c0-4.66,0-9.74,0-15.11,0-2.69,0-5.46,0-8.28v-8.62h0l.26-.27,32,0h.23v.22c0,9.62-.09,17.64-.12,23.3,0,2.76,0,4.95-.06,6.48,0,.72,0,1.28,0,1.69A4.09,4.09,0,0,1,639.91,137Z" style="fill:#263238"></path><polygon points="629 132.64 609.74 116.53 615.36 109.81 628.27 120.61 648.05 99.57 654.43 105.56 629 132.64" style="fill:#455a64"></polygon></g><g id="freepik--Character--inject-89"><path d="M489.69,255.05,466,239.22c-7.88-1.86-16.73,3.79-18.37,11.72-7.83-1.64-16.14,3.85-18.83,11.38s-.34,16.31,4.86,22.4,12.86,9.69,20.71,11.25c11.29,2.24,24.49-.23,31.26-9.55C492,277.68,491,265.79,489.69,255.05Z" style="fill:#263238"></path><path d="M591.24,237.08A21.65,21.65,0,0,0,578.88,218c2.71-9.46,5.69-19.39,3.6-29-4.73-21.72-24.3-24.7-34.14-24.56L516,185.1c-8.66,9.81,2.21,63.67,6.11,76.16A39.06,39.06,0,0,0,549.45,287c9,2.25,19.38.82,26.28-5.44s9.09-17.78,3.49-25.22A21.66,21.66,0,0,0,591.24,237.08Z" style="fill:#263238"></path><path d="M425.16,327.41l3,132.59,176.73.69S591.77,274.57,588,272.75c-2.85-1.35-37.77-12.81-37.77-12.81l-15.53-4.52-64.18,12.32-23.28,5.09Z" style="fill:#455a64"></path><path d="M435.4,305.26c0-.35,16.88-33.54,16.88-33.54-16.54,1.74-31.31,7.58-40.91,20.17-4.47,5.86-6.47,14.74-8.7,21.07-1.5,4.29-11.4,62-11.4,62L430.48,391Z" style="fill:#455a64"></path><path d="M497.69,353.81l-37-85.33c-13.48,3-28.63,6.42-38.29,12.64l5.11,62.72-.75,116.85,70.8.37,4.36-83.15Z" style="fill:#FF725E"></path><polygon points="591.99 375.55 584.37 270.16 541.43 256.41 497.58 353.09 497.58 461.06 605.95 460.7 591.99 375.55" style="fill:#FF725E"></polygon><path d="M592,375.55s.1.51.27,1.5.42,2.48.75,4.4c.65,3.88,1.6,9.59,2.83,16.94,2.43,14.71,5.95,36,10.29,62.28l0,.22H606l-108.37.42h-.25v-.25c0-26.44,0-55.23,0-85.1V353l0,0c15.8-34.8,30.67-67.55,43.88-96.67l.09-.18.19.06L584.43,270l.13,0v.14c2.3,32.28,4.17,58.63,5.47,76.91.64,9.14,1.14,16.26,1.47,21.1.17,2.41.29,4.26.37,5.51s.11,1.88.11,1.88-.07-.63-.17-1.87-.24-3.1-.42-5.51c-.37-4.84-.9-11.95-1.58-21.08-1.35-18.29-3.28-44.63-5.66-76.91l.14.18-42.94-13.73.28-.12c-13.2,29.12-28,61.88-43.82,96.69l0-.11V376c0,29.87,0,58.66,0,85.1l-.25-.25,108.37-.3-.19.22c-4.27-26.3-7.73-47.59-10.13-62.32-1.18-7.35-2.1-13.06-2.73-16.94-.3-1.93-.53-3.41-.69-4.41S592,375.55,592,375.55Z" style="fill:#263238"></path><rect x="428.15" y="372.78" width="152.16" height="19.89" style="fill:#fff"></rect><path d="M585.11,271.67s9.89-.12,24.22,25.63c16.09,28.91,26.37,65.6,26.37,65.6l-39.61,21.62Z" style="fill:#455a64"></path><path d="M436.9,274.62l4.31,186.08,16.94.09-5.87-190.54S439.56,273.24,436.9,274.62Z" style="fill:#fff"></path><polygon points="556.95 261.38 551.76 460.79 573.91 460.79 574.95 267.38 556.95 261.38" style="fill:#fff"></polygon><g style="opacity:0.30000000000000004"><path d="M511.51,314.63a25.56,25.56,0,0,0,12.23,19.19c3.23,1.91,6.91,3.11,9.74,5.58s4.41,5.69,6,8.93c12,24.05,24,48.16,33.29,73.4,2.07,5.64,4,11.4,7.35,16.42s8.22,9.29,14.13,10.43S607,447,609.35,441.47L534.62,302Z"></path></g><path d="M497.58,353.09s0,.66,0,2,0,3.22,0,5.73c0,5,0,12.41.06,21.82,0,18.85.06,45.84.1,78.46v.22h-.22l-70.92-.38h-.25v-.26c.13-21,.27-43.63.41-67,.11-17.33.22-34.24.33-50.48v0c-1.76-22-3.43-42.82-5-62V281l.12-.08c6.28-3.84,13-6.2,19.5-8.18s12.89-3.41,19-4.78l.17,0,.06.16,26.75,62c3.16,7.37,5.63,13.11,7.3,17l1.89,4.44c.43,1,.63,1.52.63,1.52s-.24-.51-.69-1.51L495,347.15l-7.41-17-26.9-61.93.23.12c-6.09,1.37-12.44,2.86-18.94,4.8s-13.18,4.34-19.39,8.16l.11-.22c1.55,19.19,3.24,40,5,62h0c-.1,16.25-.21,33.15-.32,50.48-.15,23.4-.3,46-.43,67l-.25-.25,70.91.45-.22.21c0-32.62.07-59.61.1-78.46,0-9.4,0-16.78.06-21.81,0-2.5,0-4.42,0-5.73S497.58,353.09,497.58,353.09Z" style="fill:#263238"></path><path d="M437,160.49a12.65,12.65,0,0,1,9.91-19.38l20,2.92-5.82,33.79c-.55,3.23-1.21,6.66-3.45,9.05a11.52,11.52,0,0,1-8.49,3.16A17.32,17.32,0,0,1,437,160.49Z" style="fill:#263238"></path><path d="M497.58,290.34c16.7,0,34.76-17.63,35.09-34.33l1.78-91.52c1.39-27-13.16-50.28-40.17-50.92l-2.5.09a48.3,48.3,0,0,0-46.58,46.05c-1.07,23.39-.15,44.52.44,57,1.22,25.9,25.41,30,25.41,30s-2.08,22.8,1.48,29.52c8,15.06,14.32,13.77,25.05,14Z" style="fill:#ffbf9d"></path><path d="M470.85,246.8s16.37.4,33.39-11.14c0,0-7.73,19.62-33.66,18.18Z" style="fill:#ff9a6c"></path><path d="M457.08,180.48a3.71,3.71,0,0,0,3.7,3.61,3.55,3.55,0,0,0,3.7-3.47,3.71,3.71,0,0,0-3.7-3.61A3.54,3.54,0,0,0,457.08,180.48Z" style="fill:#263238"></path><path d="M451.62,169.75c.47.46,3.2-1.71,7.18-1.84s7,1.77,7.39,1.26c.2-.22-.3-1.07-1.6-2a10.18,10.18,0,0,0-5.93-1.6,9.74,9.74,0,0,0-5.7,2.06C451.77,168.65,451.38,169.54,451.62,169.75Z" style="fill:#263238"></path><path d="M493.33,180.48a3.7,3.7,0,0,0,3.69,3.61,3.54,3.54,0,0,0,3.7-3.47A3.7,3.7,0,0,0,497,177,3.54,3.54,0,0,0,493.33,180.48Z" style="fill:#263238"></path><path d="M490.67,170c.48.46,3.21-1.71,7.19-1.84s7,1.77,7.39,1.26c.2-.22-.29-1.08-1.6-2a10.13,10.13,0,0,0-5.93-1.6,9.77,9.77,0,0,0-5.71,2.06C490.83,168.91,490.44,169.8,490.67,170Z" style="fill:#263238"></path><path d="M477.45,201.09c0-.22-2.48-.56-6.51-.94-1-.07-2-.24-2.18-.92s.12-1.84.57-3q1.31-3.74,2.74-7.85c3.79-11.16,6.5-20.33,6.05-20.48s-3.89,8.78-7.68,19.95c-.91,2.75-1.79,5.38-2.61,7.89-.35,1.16-1,2.5-.39,4a2.54,2.54,0,0,0,1.72,1.43,6.63,6.63,0,0,0,1.74.18C474.94,201.39,477.44,201.32,477.45,201.09Z" style="fill:#263238"></path><path d="M481.11,215.62a4.92,4.92,0,0,0,3.46,1.4,5.23,5.23,0,0,0,3.62-1.57c1.72-1.58,2.05-4.14,1.72-6.33a2.47,2.47,0,0,0-.4-1.05,2,2,0,0,0-.12-.59,4.63,4.63,0,0,0-2.58-2.61,5.94,5.94,0,0,0-3.77-.18,5.76,5.76,0,0,0-3.87,4.71A7.27,7.27,0,0,0,481.11,215.62Z" style="fill:#ff9a6c"></path><path d="M490.57,204.64c-.62-.18-1.62,4-5.93,6.16s-8.68.62-8.85,1.2c-.12.25.8,1.05,2.69,1.55a10.82,10.82,0,0,0,7.33-.76,9.37,9.37,0,0,0,4.7-5.23C491.09,205.84,490.86,204.69,490.57,204.64Z" style="fill:#263238"></path><path d="M489.65,156.25c.43,1.07,4.38.42,9.08.82s8.51,1.55,9.09.55c.27-.47-.43-1.47-2-2.46a15.81,15.81,0,0,0-13.84-1C490.29,154.87,489.46,155.75,489.65,156.25Z" style="fill:#263238"></path><path d="M452.67,155c.73.88,3.44-.16,6.74-.31s6.11.39,6.72-.58c.27-.46-.2-1.36-1.45-2.17a9.79,9.79,0,0,0-10.85.71C452.7,153.66,452.35,154.61,452.67,155Z" style="fill:#263238"></path><path d="M533.51,183.22c.43-.2,17.62-5.88,17.67,11.85s-17.77,14.13-17.8,13.62S533.51,183.22,533.51,183.22Z" style="fill:#ffbf9d"></path><path d="M538.78,202c.07-.06.31.21.83.45a3.09,3.09,0,0,0,2.31,0c1.87-.69,3.44-3.67,3.52-6.87a10.3,10.3,0,0,0-.88-4.42,3.58,3.58,0,0,0-2.33-2.36,1.56,1.56,0,0,0-1.82.85c-.24.5-.12.85-.22.88s-.38-.3-.24-1a1.94,1.94,0,0,1,.7-1.11,2.3,2.3,0,0,1,1.7-.46,4.35,4.35,0,0,1,3.24,2.74,10.41,10.41,0,0,1,1.08,4.94c-.1,3.58-1.92,6.92-4.48,7.67a3.3,3.3,0,0,1-2.83-.46C538.81,202.38,538.72,202,538.78,202Z" style="fill:#ff9a6c"></path><path d="M511.42,141c2.1-2.09,5.15-2.85,8.08-3.2A41.36,41.36,0,0,1,542,141.45c3.65,1.73,7.17,4.13,9.14,7.66s2,8.36-.78,11.29A12.43,12.43,0,0,1,540.41,183h0a8.07,8.07,0,0,1-12.21,6.11,12.89,12.89,0,0,1-3.19-2.88c-3.39-4.35-3.73-12.6-2.8-18a11.8,11.8,0,0,1-9.08-4.82,22.7,22.7,0,0,1-4-9.76C508.25,149.21,508.28,144.14,511.42,141Z" style="fill:#263238"></path><path d="M517.87,94.06c1.21.25,30.29,8.88,36.21,31.37s3.31,29.1,3.31,29.1a14.52,14.52,0,0,1,2.91,2.85c1.13,1.53-1.13,8.34-4.93,7.3-28-14.68-62-18.24-100.15-19.59l-29.1-2.3c-8.21.41-10.93-1.95-7.36-3.77,2.74-1.39,26.5-9.14,26.5-9.14l4.77-3L463.16,111s-1.33-2.42,1.74-4.15S494,89.11,517.87,94.06Z" style="fill:#FF725E"></path><g style="opacity:0.30000000000000004"><path d="M544,108.82s-31.48-7.26-46.18-1.36l1.71-.72-13.86,5c-2.34.85-5.07,1.66-7.19.36,0,0,7.62-6,21.23-9.6S534.56,98.38,544,108.82Z"></path></g><path d="M544.42,109A22.54,22.54,0,0,0,541.7,107a39.7,39.7,0,0,0-8.31-4.22,47.59,47.59,0,0,0-13.5-2.86A39.79,39.79,0,0,0,503.16,102a72.06,72.06,0,0,0-8,3.64c-2.5,1.33-5,2.48-7.21,3.82a43.8,43.8,0,0,1-6.44,3.5,13.76,13.76,0,0,1-6.23.83c-7.83-.41-12.52-2.34-12.14-2.82a1.22,1.22,0,0,0,.59.66,9.89,9.89,0,0,0,2.35,1,41.92,41.92,0,0,0,9.18,1.54,14,14,0,0,0,6.4-.8,42.78,42.78,0,0,0,6.52-3.49c2.22-1.31,4.7-2.46,7.2-3.78a71.81,71.81,0,0,1,7.93-3.61,39.42,39.42,0,0,1,16.53-2.14,47.45,47.45,0,0,1,13.41,2.73,41.87,41.87,0,0,1,8.32,4.05c.93.58,1.63,1.07,2.1,1.41S544.42,109,544.42,109Z" style="fill:#263238"></path><g style="opacity:0.30000000000000004"><path d="M556.24,134.8c-5.7-.42-9.93-2.19-15.51-3.8-6-1.72-11.86-3.16-17.71-5.16-4.45-1.52-9.73-3-12.47-6.43a6.62,6.62,0,0,0,1.61,6.3c1.62,1.78,7.11,4.13,9.39,4.92,13,4.48,22,7.5,35.63,9.36a39.88,39.88,0,0,0-.94-5.19"></path></g><path d="M553.32,123c3.51,1.81,5.66,3,5.56,6.1-.08,2.57-.81,5.67-3.36,5.95a6.37,6.37,0,0,1-2.32-.33l-38.85-10.54a5.92,5.92,0,0,1-3.51-1.91c-1.18-1.73-.08-4.27,1.73-5.33s4-1,6.11-.94c11.89.57,23.33,3.3,34.64,7" style="fill:#FF725E"></path><path d="M511.41,122.84a3.64,3.64,0,0,1-1-1.78,5,5,0,0,1,1.95-4.86c2-1.32,4.94-1.6,8-1.23s6.61.82,10.22,1.41a105.56,105.56,0,0,1,18.16,4.48c2.26.79,4,1.55,5.28,2.07l1.42.62a2,2,0,0,0,.5.19,2.21,2.21,0,0,0-.46-.27l-1.38-.71c-1.21-.58-3-1.39-5.24-2.23a96.32,96.32,0,0,0-18.2-4.63c-3.63-.6-7.09-1-10.26-1.38s-6.22,0-8.28,1.4a5.11,5.11,0,0,0-1.93,5.18,3.41,3.41,0,0,0,.71,1.39C511.25,122.75,511.4,122.86,511.41,122.84Z" style="fill:#263238"></path><polygon points="459.04 115.97 483.85 117.1 481.3 123.94 454.4 121.59 459.04 115.97" style="fill:#fff"></polygon><path d="M495.06,140.44c0-.14-10.91-2.44-24.43-5.16s-24.51-4.8-24.54-4.67,10.91,2.44,24.44,5.16S495,140.57,495.06,140.44Z" style="fill:#263238"></path><polygon points="463.61 268.48 470.61 255.84 497.58 290.34 535.17 243.94 540.67 258.09 511.51 309.1 499.14 292.33 496.2 292.76 486 310.49 463.61 268.48" style="fill:#e0e0e0"></polygon><path d="M521.93,293.77a9,9,0,0,1-.8,1.28c-.54.81-1.32,2-2.25,3.46a100.48,100.48,0,0,0-6.53,12.09l-.2.43-.26-.4-.77-1.22c-3.18-4.79-6.42-8.89-8.6-12-1.11-1.53-2-2.79-2.54-3.68a8.52,8.52,0,0,1-.84-1.42,11,11,0,0,1,1,1.3l2.67,3.59c2.26,3,5.55,7.08,8.74,11.91.27.42.54.83.78,1.22l-.45,0a85.13,85.13,0,0,1,6.7-12.06c1-1.46,1.8-2.61,2.39-3.38A8.75,8.75,0,0,1,521.93,293.77Z" style="fill:#263238"></path><path d="M552.42,163.47a3.33,3.33,0,0,1,.71.76,12,12,0,0,1,1.47,2.44,13.83,13.83,0,0,1-4.28,17,12.08,12.08,0,0,1-2.45,1.44,3.3,3.3,0,0,1-1,.34,27.34,27.34,0,0,0,3.21-2.07,14,14,0,0,0,4.17-16.52A27,27,0,0,0,552.42,163.47Z" style="fill:#455a64"></path><path d="M496.2,292.76s0,.13-.13.36l-.45,1c-.41.89-1,2.18-1.86,3.79a124.36,124.36,0,0,1-7.56,12.68L486,311l-.19-.35-6.21-11.49c-4.36-8.14-8.3-15.51-11.18-20.92-1.39-2.64-2.52-4.81-3.34-6.36l-.88-1.75a3.82,3.82,0,0,1-.28-.62,3.25,3.25,0,0,1,.37.57l1,1.7,3.48,6.29L480,298.87c2.18,4.08,4.27,8,6.17,11.51l-.41,0a142.16,142.16,0,0,0,7.7-12.55l2-3.72.52-1A1.5,1.5,0,0,1,496.2,292.76Z" style="fill:#263238"></path><path d="M392.14,351.46,377.75,392.7l-21.56-25.08-28.68,17.81L364,434.24c9.88,14.08,26.18,18.5,35.09,16.37,18.16-4.33,27.83-27.84,27.83-27.84l-.11-22.52-3.87-33.4Z" style="fill:#455a64"></path><path d="M392.68,309.1s55.41,60.2,66.78,71.23c5.42,5.26,16.88,12.32,16.88,12.32l-17.18,2Z" style="fill:#e0e0e0"></path><g style="opacity:0.30000000000000004"><path d="M376,399s22.72,5.29,38.22,6.14,56,.59,56,.59l-8-6.85Z"></path></g><polygon points="388.88 301.34 289.54 298.91 375.96 399.03 467.65 401.53 388.88 301.34" style="fill:#263238"></polygon><path d="M346.08,338.54a4.61,4.61,0,0,0-5-4.63c-1.46.11-3.37.29-5.72.61-6.06.81-23.82,10.27-24.18,13.87-.53,5.28,2.2,7.22,2.2,7.22s-3.37,4.78-1.94,8.6c1.22,3.27,6.55,4.23,6.55,4.23s-3.77,4.7.39,7.82c1.45,1.08,4.35,3.15,5,3.86a12.87,12.87,0,0,0,1.2,2.78,10.72,10.72,0,0,0,7.89,4.19l1,.06a7.81,7.81,0,0,0,5.4-1.75c6.87-5.63,26.29-21.9,26.55-26.24,0,0,3.7-3.09,2.09-6.14s-7.22-1.51-7.22-1.51a4.65,4.65,0,0,0,1.26-5.39c-1.42-3.21-11.47-2.59-16-1.84-3.62.59-13.72,2.58-13.72,2.58s13.36-5.08,14.08-7.41A3.94,3.94,0,0,0,346.08,338.54Z" style="fill:#ffbf9d"></path><path d="M365.46,359.16a10.07,10.07,0,0,1-1.34.87c-.87.53-2.16,1.27-3.78,2.13-3.22,1.74-7.79,3.94-12.94,6.12s-9.89,4-13.34,5.19c-1.72.61-3.12,1.09-4.1,1.4a8.07,8.07,0,0,1-1.53.44,10.24,10.24,0,0,1,1.47-.62l4-1.56c3.42-1.31,8.13-3.13,13.27-5.31s9.71-4.32,13-6c1.63-.82,2.94-1.51,3.85-2A9.18,9.18,0,0,1,365.46,359.16Z" style="fill:#ff9a6c"></path><path d="M361,351.37a9.29,9.29,0,0,1-1.47.36c-.94.22-2.32.52-4,1-3.36.85-7.94,2.29-12.94,4.05-2.5.88-4.91,1.67-7,2.5s-4,1.67-5.6,2.4-2.82,1.38-3.68,1.82a9.19,9.19,0,0,1-1.36.67,1.62,1.62,0,0,1,.31-.24c.21-.14.53-.35.95-.6.84-.5,2.07-1.19,3.63-2s3.44-1.65,5.58-2.51,4.54-1.66,7-2.55a125.87,125.87,0,0,1,13-3.91c1.7-.4,3.09-.65,4.05-.81A8.17,8.17,0,0,1,361,351.37Z" style="fill:#ff9a6c"></path><path d="M331.84,346.86a11,11,0,0,1-2.13,1.23c-1.36.69-3.27,1.56-5.37,2.51s-4,1.87-5.34,2.56a14.68,14.68,0,0,1-2.21,1.07,9.85,9.85,0,0,1,2-1.38,56.43,56.43,0,0,1,5.3-2.7c2.11-1,4-1.78,5.42-2.38A12.64,12.64,0,0,1,331.84,346.86Z" style="fill:#ff9a6c"></path><path d="M359.36,367.28a6.69,6.69,0,0,1-.9,1.08c-.61.68-1.52,1.63-2.68,2.76-2.31,2.29-5.71,5.22-9.36,8.55-.91.83-1.77,1.69-2.67,2.45a32.18,32.18,0,0,1-2.71,2.05,18.41,18.41,0,0,1-5.18,2.46,11.6,11.6,0,0,1-3.83.48,6.89,6.89,0,0,1-1-.11q-.36-.06-.36-.09c0-.05.51,0,1.41,0a12.42,12.42,0,0,0,3.73-.62,19.14,19.14,0,0,0,5-2.51,32.77,32.77,0,0,0,2.64-2c.88-.75,1.73-1.61,2.65-2.45,3.66-3.34,7.09-6.22,9.46-8.43,1.19-1.1,2.13-2,2.78-2.64A8.13,8.13,0,0,1,359.36,367.28Z" style="fill:#ff9a6c"></path><path d="M360.41,297.88l-43.61-.55a1,1,0,0,0-.81,1.73l9.5,11.12,43,1.3a1,1,0,0,0,.86-1.65l-8.14-11.51A1,1,0,0,0,360.41,297.88Z" style="fill:#e0e0e0"></path><path d="M325.27,310.65l-9.64-11.28a1.52,1.52,0,0,1,1.18-2.52l43.6.55a1.53,1.53,0,0,1,1.23.64l8.14,11.51a1.53,1.53,0,0,1-1.25,2.41Zm35.17-12.29h0l-43.6-.55a.57.57,0,0,0-.44.94l9.36,10.95,42.82,1.3a.53.53,0,0,0,.49-.31.55.55,0,0,0,0-.59l-8.13-11.5A.59.59,0,0,0,360.44,298.36Z" style="fill:#263238"></path><path d="M397.22,420.92a45.89,45.89,0,0,0,.07-5.65,25.53,25.53,0,0,0-14.76-21.33,42.85,42.85,0,0,0-5.32-1.93,1.72,1.72,0,0,1,.4,0c.25.05.63.09,1.11.22a23.34,23.34,0,0,1,4,1.33,25,25,0,0,1,15,21.64,22.35,22.35,0,0,1-.14,4.18,10.94,10.94,0,0,1-.19,1.12A1.59,1.59,0,0,1,397.22,420.92Z" style="fill:#263238"></path><path d="M545.06,340.88s21.76,53.89,31.63,73.33c10.23,20.15,25.42,53.91,55.88,36.26,24.91-14.44,2.34-90.27,2.34-90.27l-22.42,10.13-33.16-53.06Z" style="fill:#455a64"></path><path d="M557.87,254.12a2.84,2.84,0,0,0-3.92-1.68c-2.31,1.09-5.71,3.7-6.51,9.66-1.25,9.23.47,15.75-1.69,18.16s-29.3,4.34-31.4,8.3-.83,7.27-.92,9.22a2.86,2.86,0,0,1-.82,1.86c-1.23,1.26-3.31,4.1-1.32,7.53a2.93,2.93,0,0,1,.11,2.8c-.8,1.6-1.43,4.37,1.37,7.23a2.9,2.9,0,0,1,.63.92c.82,1.9,4,8.65,8.51,10a33.78,33.78,0,0,0,10.42,1.13,2.82,2.82,0,0,1,1.94.69c2.29,2,9.89,6.85,12.14,9.79,0,0,28-19.58,29.77-20.5,0,0-12.62-19.26-13.26-28.09-.67-9.42-6.6-20.39-5-29.22C558.61,258.09,558.37,255.65,557.87,254.12Z" style="fill:#ffbf9d"></path><path d="M545.06,340.88s0-.05.15-.13l.47-.36,1.87-1.33,7.05-4.94,24.59-17.05.2-.14.14.21c3.61,5.55,7.52,11.65,11.55,18L614.68,373c3,4.81,5.48,8.71,7.2,11.43l2,3.12.5.81a1.36,1.36,0,0,1,.15.29,2.77,2.77,0,0,1-.19-.26l-.54-.79c-.49-.72-1.17-1.75-2-3.06-1.75-2.66-4.27-6.53-7.34-11.34-6.16-9.6-14.45-23-23.73-37.74-4-6.39-7.93-12.5-11.52-18.06l.34.07-24.69,16.9-7.13,4.82-1.91,1.27-.5.32Z" style="fill:#263238"></path><path d="M638.28,398.61a4.76,4.76,0,0,1-.54-.9c-.37-.7-.81-1.53-1.32-2.51a44.55,44.55,0,0,0-5-7.84,20.16,20.16,0,0,0-7.3-5.59,25.89,25.89,0,0,0-3.68-1.12,3.24,3.24,0,0,1,1.05.05,12.87,12.87,0,0,1,2.77.73,19.11,19.11,0,0,1,7.55,5.59,38.29,38.29,0,0,1,5,8c.52,1.08.91,2,1.17,2.59A3.75,3.75,0,0,1,638.28,398.61Z" style="fill:#263238"></path></g></svg>
