<svg width="18" height="18" viewBox="0 0 18 18" fill="none" xmlns="http://www.w3.org/2000/svg">
<rect x="8" width="2" height="18" fill="#C4C4C4"/>
<rect x="2" y="10" width="2" height="14" transform="rotate(-90 2 10)" fill="#C4C4C4"/>
<path d="M7 10V15C7 16.1046 7.89543 17 9 17V17C10.1046 17 11 16.1046 11 15V10M7 8V3C7 1.89543 7.89543 1 9 1V1C10.1046 1 11 1.89543 11 3V8" stroke="#424242" stroke-width="2"/>
<path d="M6.33333 7L3 7C1.89543 7 1 7.89543 1 9V9C1 10.1046 1.89543 11 3 11L6.33333 11M11.6667 7L15 7C16.1046 7 17 7.89543 17 9V9C17 10.1046 16.1046 11 15 11L11.6667 11" stroke="#424242" stroke-width="2"/>
</svg>
