<svg width="20" height="21" viewBox="0 0 20 21" fill="none" xmlns="http://www.w3.org/2000/svg">
<path d="M13 20.0001H3C1.89543 20.0001 1 19.1046 1 18.0001V5.86369C1 4.75912 1.89543 3.86369 3 3.86369H8.42911C8.89079 3.86369 9.33826 4.02342 9.69559 4.31578L12.3372 6.47708L14.381 8.42796C14.7763 8.80535 15 9.3281 15 9.87467V18.0001C15 19.1046 14.1046 20.0001 13 20.0001Z" fill="#C4C4C4" stroke="#424242" stroke-width="2"/>
<path d="M10.2457 4.65864L11.9022 5.97745L13.9657 7.97066C15.2593 9.22021 14.3747 11.4092 12.5762 11.4092H9C7.89543 11.4092 7 10.5137 7 9.40915V6.22329C7 4.54845 8.93546 3.61543 10.2457 4.65864Z" fill="#C4C4C4" stroke="#424242" stroke-width="2"/>
</svg>
